<svg width="158" height="49" viewBox="0 0 158 49" fill="none" xmlns="http://www.w3.org/2000/svg">
<path d="M10.4756 45.0277L12.42 40.0004H13.2598L10.6924 46.5521C10.4605 47.144 10.13 47.6096 9.70219 47.9496C9.27419 48.2896 8.79562 48.4398 8.26762 48.3998V47.6556C8.98762 47.7356 9.53615 47.3196 9.91216 46.4076L10.0684 46.0355L7.37993 40.0004H8.21977L10.4756 45.0277ZM33.2276 37.432C34.4396 37.432 35.4723 37.8525 36.3243 38.7045C37.176 39.5444 37.5957 40.5763 37.5957 41.8002C37.5957 43.0239 37.176 44.0557 36.3243 44.9076C35.4723 45.7476 34.4396 46.1683 33.2276 46.1683C32.0158 46.1682 30.9838 45.7475 30.1319 44.9076C29.2921 44.0557 28.8722 43.024 28.8721 41.8002C28.8721 40.5763 29.2921 39.5444 30.1319 38.7045C30.9838 37.8526 32.0158 37.4321 33.2276 37.432ZM58.2959 39.8324C59.1359 39.8324 59.784 40.1204 60.252 40.7084V40.0004H61.7999V46.0004H60.252V45.2924C59.784 45.8802 59.1358 46.1683 58.2959 46.1683C57.4921 46.1683 56.8084 45.868 56.2325 45.2562C55.6685 44.6443 55.38 43.8882 55.3799 43.0004C55.3799 42.1124 55.6685 41.3682 56.2325 40.7562C56.8084 40.1443 57.492 39.8324 58.2959 39.8324ZM80.3038 39.8324C81.1438 39.8324 81.7918 40.1204 82.2598 40.7084V40.0004H83.8077V46.0004H82.2598V45.2924C81.7918 45.8801 81.1436 46.1683 80.3038 46.1683C79.5 46.1683 78.8162 45.868 78.2403 45.2562C77.6764 44.6443 77.3878 43.8882 77.3877 43.0004C77.3877 42.1124 77.6763 41.3682 78.2403 40.7562C78.8162 40.1443 79.4999 39.8325 80.3038 39.8324ZM4.3438 37.6C4.9678 37.6 5.50048 37.822 5.94048 38.266C6.38028 38.7099 6.59961 39.24 6.59966 39.8558C6.59966 40.6397 6.27211 41.2359 5.61626 41.6439C6.02407 41.8199 6.34985 42.0859 6.5938 42.4418C6.83771 42.7976 6.95992 43.2037 6.96001 43.6595C6.96001 44.3074 6.73221 44.8598 6.27641 45.3158C5.82045 45.7718 5.2681 46.0003 4.62016 46.0004H0.960007V37.6H4.3438ZM18.8165 44.4164H22.0196V46.0004H17.1602V37.6H18.8165V44.4164ZM28.0918 39.184H24.6124V40.972H27.792V42.5316H24.6124V44.4164H28.1524V46.0004H22.9561V37.6H28.0918V39.184ZM44.8916 37.6C45.6956 37.6 46.3797 37.8764 46.9317 38.4164C47.4837 38.9564 47.7598 39.6283 47.7598 40.4203C47.7597 41.2122 47.4836 41.8843 46.9317 42.4242C46.3797 42.964 45.6955 43.2396 44.8916 43.2396H43.4161V46.0004H41.7598V37.6H44.8916ZM50.3165 40.6722C50.6884 40.1084 51.2878 39.8325 52.1036 39.8324C52.7634 39.8324 53.3037 40.0478 53.7237 40.4916C54.1556 40.9355 54.3721 41.5359 54.3721 42.3158V46.0004H52.8243V42.5082C52.8243 41.7042 52.3558 41.2718 51.6358 41.2718C50.8319 41.2719 50.3165 41.7642 50.3165 42.7601V46.0004H48.7676V37.6H50.3165V40.6722ZM66.5762 41.6078C66.1082 41.5478 65.6758 41.6439 65.3038 41.8959C64.9318 42.1479 64.752 42.5563 64.752 43.1322V46.0004H63.2041V40.0004H64.752V41.0316C65.0401 40.2638 65.7603 39.8802 66.5762 39.8802V41.6078ZM74.1124 39.8324C75.4922 39.8326 76.3799 40.8042 76.3799 42.3041V46.0004H74.8321V42.4125C74.8321 41.6926 74.4601 41.272 73.8243 41.2718C73.1163 41.2718 72.7081 41.7523 72.7081 42.6283V46.0004H71.1602V42.4125C71.1602 41.6926 70.7882 41.272 70.1524 41.2718C69.4684 41.2718 69.0245 41.7523 69.0245 42.6283V46.0004H67.4756V40.0004H69.0245V40.6361C69.3845 40.0962 69.9365 39.8324 70.6924 39.8324C71.4242 39.8325 71.9763 40.1199 72.3243 40.6957C72.7203 40.1199 73.3205 39.8324 74.1124 39.8324ZM1.79985 45.2084H4.62016C5.03598 45.2083 5.38977 45.058 5.68169 44.7582C5.97369 44.4582 6.12016 44.0915 6.12016 43.6595C6.12006 43.2357 5.97358 42.8716 5.68169 42.5677C5.38978 42.264 5.03596 42.1117 4.62016 42.1117H1.79985V45.2084ZM58.584 41.308C58.104 41.308 57.7076 41.4644 57.3956 41.7884C57.0839 42.1004 56.9278 42.5086 56.9278 43.0004C56.9279 43.4921 57.0838 43.9001 57.3956 44.224C57.7076 44.536 58.104 44.6918 58.584 44.6918C59.0639 44.6918 59.4596 44.5358 59.7715 44.224C60.0955 43.9001 60.2519 43.4922 60.252 43.0004C60.252 42.5084 60.0955 42.1004 59.7715 41.7884C59.4595 41.4645 59.064 41.308 58.584 41.308ZM80.5918 41.308C80.1119 41.308 79.7163 41.4645 79.4043 41.7884C79.0924 42.1004 78.9356 42.5084 78.9356 43.0004C78.9357 43.4922 79.0924 43.9001 79.4043 44.224C79.7163 44.5358 80.112 44.6917 80.5918 44.6918C81.0718 44.6918 81.4683 44.536 81.7803 44.224C82.1041 43.9001 82.2597 43.4921 82.2598 43.0004C82.2598 42.5086 82.1041 42.1004 81.7803 41.7884C81.4683 41.4644 81.0718 41.308 80.5918 41.308ZM33.2276 39.0404C32.4598 39.0405 31.8118 39.3039 31.2959 39.8197C30.7799 40.3357 30.5157 40.9962 30.5157 41.8002C30.5157 42.604 30.7801 43.2637 31.2959 43.7797C31.8118 44.2956 32.4598 44.5481 33.2276 44.5482C33.9956 44.5482 34.6442 44.2957 35.1602 43.7797C35.676 43.2637 35.9404 42.6039 35.9405 41.8002C35.9405 40.9962 35.6762 40.3357 35.1602 39.8197C34.6442 39.3037 33.9956 39.0404 33.2276 39.0404ZM43.4161 41.6918H44.8916C45.5996 41.6918 46.1161 41.1401 46.1163 40.4203C46.1163 39.6883 45.5996 39.1478 44.8916 39.1478H43.4161V41.6918ZM1.79985 41.3197H4.3438C4.73576 41.3197 5.06976 41.1779 5.34575 40.8939C5.62175 40.6099 5.75981 40.2638 5.75981 39.8558C5.75977 39.4559 5.62171 39.1116 5.34575 38.8236C5.06981 38.5358 4.73564 38.392 4.3438 38.392H1.79985V41.3197Z" fill="white"/>
<path d="M10.4756 45.0277L12.42 40.0004H13.2598L10.6924 46.5521C10.4605 47.144 10.13 47.6096 9.70219 47.9496C9.27419 48.2896 8.79562 48.4398 8.26762 48.3998V47.6556C8.98762 47.7356 9.53615 47.3196 9.91216 46.4076L10.0684 46.0355L7.37993 40.0004H8.21977L10.4756 45.0277ZM33.2276 37.432C34.4396 37.432 35.4723 37.8525 36.3243 38.7045C37.176 39.5444 37.5957 40.5763 37.5957 41.8002C37.5957 43.0239 37.176 44.0557 36.3243 44.9076C35.4723 45.7476 34.4396 46.1683 33.2276 46.1683C32.0158 46.1682 30.9838 45.7475 30.1319 44.9076C29.2921 44.0557 28.8722 43.024 28.8721 41.8002C28.8721 40.5763 29.2921 39.5444 30.1319 38.7045C30.9838 37.8526 32.0158 37.4321 33.2276 37.432ZM58.2959 39.8324C59.1359 39.8324 59.784 40.1204 60.252 40.7084V40.0004H61.7999V46.0004H60.252V45.2924C59.784 45.8802 59.1358 46.1683 58.2959 46.1683C57.4921 46.1683 56.8084 45.868 56.2325 45.2562C55.6685 44.6443 55.38 43.8882 55.3799 43.0004C55.3799 42.1124 55.6685 41.3682 56.2325 40.7562C56.8084 40.1443 57.492 39.8324 58.2959 39.8324ZM80.3038 39.8324C81.1438 39.8324 81.7918 40.1204 82.2598 40.7084V40.0004H83.8077V46.0004H82.2598V45.2924C81.7918 45.8801 81.1436 46.1683 80.3038 46.1683C79.5 46.1683 78.8162 45.868 78.2403 45.2562C77.6764 44.6443 77.3878 43.8882 77.3877 43.0004C77.3877 42.1124 77.6763 41.3682 78.2403 40.7562C78.8162 40.1443 79.4999 39.8325 80.3038 39.8324ZM4.3438 37.6C4.9678 37.6 5.50048 37.822 5.94048 38.266C6.38028 38.7099 6.59961 39.24 6.59966 39.8558C6.59966 40.6397 6.27211 41.2359 5.61626 41.6439C6.02407 41.8199 6.34985 42.0859 6.5938 42.4418C6.83771 42.7976 6.95992 43.2037 6.96001 43.6595C6.96001 44.3074 6.73221 44.8598 6.27641 45.3158C5.82045 45.7718 5.2681 46.0003 4.62016 46.0004H0.960007V37.6H4.3438ZM18.8165 44.4164H22.0196V46.0004H17.1602V37.6H18.8165V44.4164ZM28.0918 39.184H24.6124V40.972H27.792V42.5316H24.6124V44.4164H28.1524V46.0004H22.9561V37.6H28.0918V39.184ZM44.8916 37.6C45.6956 37.6 46.3797 37.8764 46.9317 38.4164C47.4837 38.9564 47.7598 39.6283 47.7598 40.4203C47.7597 41.2122 47.4836 41.8843 46.9317 42.4242C46.3797 42.964 45.6955 43.2396 44.8916 43.2396H43.4161V46.0004H41.7598V37.6H44.8916ZM50.3165 40.6722C50.6884 40.1084 51.2878 39.8325 52.1036 39.8324C52.7634 39.8324 53.3037 40.0478 53.7237 40.4916C54.1556 40.9355 54.3721 41.5359 54.3721 42.3158V46.0004H52.8243V42.5082C52.8243 41.7042 52.3558 41.2718 51.6358 41.2718C50.8319 41.2719 50.3165 41.7642 50.3165 42.7601V46.0004H48.7676V37.6H50.3165V40.6722ZM66.5762 41.6078C66.1082 41.5478 65.6758 41.6439 65.3038 41.8959C64.9318 42.1479 64.752 42.5563 64.752 43.1322V46.0004H63.2041V40.0004H64.752V41.0316C65.0401 40.2638 65.7603 39.8802 66.5762 39.8802V41.6078ZM74.1124 39.8324C75.4922 39.8326 76.3799 40.8042 76.3799 42.3041V46.0004H74.8321V42.4125C74.8321 41.6926 74.4601 41.272 73.8243 41.2718C73.1163 41.2718 72.7081 41.7523 72.7081 42.6283V46.0004H71.1602V42.4125C71.1602 41.6926 70.7882 41.272 70.1524 41.2718C69.4684 41.2718 69.0245 41.7523 69.0245 42.6283V46.0004H67.4756V40.0004H69.0245V40.6361C69.3845 40.0962 69.9365 39.8324 70.6924 39.8324C71.4242 39.8325 71.9763 40.1199 72.3243 40.6957C72.7203 40.1199 73.3205 39.8324 74.1124 39.8324ZM1.79985 45.2084H4.62016C5.03598 45.2083 5.38977 45.058 5.68169 44.7582C5.97369 44.4582 6.12016 44.0915 6.12016 43.6595C6.12006 43.2357 5.97358 42.8716 5.68169 42.5677C5.38978 42.264 5.03596 42.1117 4.62016 42.1117H1.79985V45.2084ZM58.584 41.308C58.104 41.308 57.7076 41.4644 57.3956 41.7884C57.0839 42.1004 56.9278 42.5086 56.9278 43.0004C56.9279 43.4921 57.0838 43.9001 57.3956 44.224C57.7076 44.536 58.104 44.6918 58.584 44.6918C59.0639 44.6918 59.4596 44.5358 59.7715 44.224C60.0955 43.9001 60.2519 43.4922 60.252 43.0004C60.252 42.5084 60.0955 42.1004 59.7715 41.7884C59.4595 41.4645 59.064 41.308 58.584 41.308ZM80.5918 41.308C80.1119 41.308 79.7163 41.4645 79.4043 41.7884C79.0924 42.1004 78.9356 42.5084 78.9356 43.0004C78.9357 43.4922 79.0924 43.9001 79.4043 44.224C79.7163 44.5358 80.112 44.6917 80.5918 44.6918C81.0718 44.6918 81.4683 44.536 81.7803 44.224C82.1041 43.9001 82.2597 43.4921 82.2598 43.0004C82.2598 42.5086 82.1041 42.1004 81.7803 41.7884C81.4683 41.4644 81.0718 41.308 80.5918 41.308ZM33.2276 39.0404C32.4598 39.0405 31.8118 39.3039 31.2959 39.8197C30.7799 40.3357 30.5157 40.9962 30.5157 41.8002C30.5157 42.604 30.7801 43.2637 31.2959 43.7797C31.8118 44.2956 32.4598 44.5481 33.2276 44.5482C33.9956 44.5482 34.6442 44.2957 35.1602 43.7797C35.676 43.2637 35.9404 42.6039 35.9405 41.8002C35.9405 40.9962 35.6762 40.3357 35.1602 39.8197C34.6442 39.3037 33.9956 39.0404 33.2276 39.0404ZM43.4161 41.6918H44.8916C45.5996 41.6918 46.1161 41.1401 46.1163 40.4203C46.1163 39.6883 45.5996 39.1478 44.8916 39.1478H43.4161V41.6918ZM1.79985 41.3197H4.3438C4.73576 41.3197 5.06976 41.1779 5.34575 40.8939C5.62175 40.6099 5.75981 40.2638 5.75981 39.8558C5.75977 39.4559 5.62171 39.1116 5.34575 38.8236C5.06981 38.5358 4.73564 38.392 4.3438 38.392H1.79985V41.3197Z" fill="black"/>
<path fill-rule="evenodd" clip-rule="evenodd" d="M15.741 22.273C14.013 24.082 11.853 25 9.261 25H1.755V6.1H9.261C11.853 6.1 14.013 7.018 15.741 8.827C17.496 10.636 18.36 12.877 18.36 15.55C18.36 18.223 17.496 20.464 15.741 22.273ZM5.481 21.436H9.261C10.908 21.436 12.231 20.896 13.257 19.816C14.283 18.709 14.796 17.305 14.796 15.55C14.796 13.795 14.283 12.391 13.257 11.311C12.231 10.204 10.908 9.664 9.261 9.664H5.481V21.436ZM32.697 25V21.436H24.732V17.197H31.887V13.687H24.732V9.664H32.562V6.1H21.006V25H32.697ZM39.042 18.439V25H35.316V6.1H42.876C44.631 6.1 46.116 6.721 47.331 7.936C48.546 9.151 49.167 10.636 49.167 12.364C49.167 14.713 47.709 16.873 45.522 17.872L49.707 25H45.684L41.877 18.439H39.042ZM42.876 15.172H39.042V9.583H42.876C44.28 9.583 45.441 10.825 45.441 12.364C45.441 13.903 44.28 15.172 42.876 15.172ZM55.62 12.769V25H51.894V6.1H55.728L61.155 15.037L66.555 6.1H70.389V25H66.69V12.742L61.371 21.517H60.939L55.62 12.769ZM76.248 25L77.382 21.598H84.915L86.049 25H90.099L83.457 6.1H78.84L72.225 25H76.248ZM78.57 18.115H83.754L81.162 10.393L78.57 18.115Z" fill="black"/>
<g filter="url(#filter0_d_1_1958)">
<path fill-rule="evenodd" clip-rule="evenodd" d="M135.009 25.054C134.901 25.072 134.793 25.081 134.685 25.081C134.651 25.0833 134.62 25.084 134.59 25.0831C134.383 25.0772 134.28 24.9955 134.28 24.838C134.28 24.712 134.379 24.649 134.577 24.649H135.279C135.783 24.649 136.035 24.541 136.035 24.325C136.05 24.2372 136.058 23.7574 136.061 22.8854L136.062 22.455L136.062 22.219V8.476C136.062 7.882 136.044 7.558 136.008 7.504C135.954 7.36 135.81 7.288 135.576 7.288H135.36L134.604 7.315C134.352 7.315 134.226 7.234 134.226 7.072C134.226 6.928 134.451 6.847 134.901 6.829C135.765 6.775 136.566 6.577 137.304 6.235L137.871 5.965L138.087 5.884C138.231 6.406 138.294 7.198 138.276 8.26L138.249 10.177L138.276 23.407C138.276 23.947 138.285 24.2665 138.303 24.3655C138.317 24.4447 138.361 24.5037 138.433 24.5426L138.492 24.568C138.51 24.586 138.843 24.604 139.491 24.622C139.905 24.622 140.112 24.685 140.112 24.811C140.112 24.973 139.995 25.054 139.761 25.054H139.437C139.401 25.054 138.924 25.036 138.006 25L137.169 24.973C137.025 24.973 136.305 25 135.009 25.054ZM106.983 25C106.911 25.234 106.821 25.351 106.713 25.351C106.623 25.351 106.537 25.261 106.456 25.081C106.375 24.901 106.137 24.271 105.741 23.191C105.237 21.787 104.688 20.374 104.094 18.952C103.626 17.836 103.167 16.684 102.717 15.496C101.457 18.538 100.206 21.715 98.964 25.027C98.892 25.243 98.802 25.351 98.694 25.351C98.604 25.351 98.496 25.198 98.37 24.892C97.812 23.56 95.742 18.043 92.16 8.341C91.908 7.657 91.719 7.2295 91.593 7.0585C91.467 6.8875 91.152 6.793 90.648 6.775C89.784 6.739 89.352 6.613 89.352 6.397C89.352 6.235 89.496 6.154 89.784 6.154C89.91 6.154 90.018 6.163 90.108 6.181C91.062 6.235 92.088 6.262 93.186 6.262C93.402 6.262 93.7755 6.2485 94.3065 6.2215C94.8375 6.1945 95.526 6.181 96.372 6.181H96.669C96.975 6.181 97.128 6.262 97.128 6.424C97.128 6.622 96.849 6.73 96.291 6.748C95.175 6.784 94.617 6.928 94.617 7.18C94.617 7.684 96.273 12.373 99.585 21.247C100.791 18.205 101.691 15.964 102.285 14.524L99.612 7.612C99.468 7.234 99.3015 6.991 99.1125 6.883C98.9235 6.775 98.577 6.712 98.073 6.694C97.569 6.676 97.317 6.595 97.317 6.451C97.317 6.253 97.506 6.154 97.884 6.154C98.172 6.154 98.523 6.172 98.937 6.208C99.3134 6.24073 99.9426 6.25858 100.825 6.26155L103.149 6.262L106.119 6.316C106.785 6.316 107.586 6.28 108.522 6.208C108.63 6.19 108.756 6.181 108.9 6.181C109.332 6.181 109.548 6.271 109.548 6.451C109.548 6.613 109.395 6.694 109.089 6.694H108.63C107.82 6.694 107.208 6.802 106.794 7.018C106.614 7.108 106.281 7.756 105.795 8.962C105.579 9.466 105.219 10.321 104.715 11.527L104.229 12.742C104.355 13.102 104.751 14.101 105.417 15.739C106.281 17.827 106.992 19.618 107.55 21.112C108.558 18.196 109.746 14.749 111.114 10.771C111.584 9.39752 111.9 8.42215 112.063 7.84489L112.12 7.63522C112.169 7.44678 112.194 7.32204 112.194 7.261C112.194 6.919 111.879 6.748 111.249 6.748C110.367 6.748 109.926 6.649 109.926 6.451C109.926 6.271 110.106 6.181 110.466 6.181C110.772 6.181 111.015 6.19 111.195 6.208C111.591 6.244 111.951 6.262 112.275 6.262L114.435 6.235C114.975 6.235 115.272 6.2575 115.326 6.3025C115.38 6.3475 115.407 6.397 115.407 6.451C115.407 6.613 115.101 6.703 114.489 6.721C113.805 6.739 113.35 6.964 113.125 7.396C112.9 7.828 112.554 8.746 112.086 10.15C111.276 12.616 110.556 14.713 109.926 16.441C108.846 19.393 107.865 22.246 106.983 25ZM102.231 7.153C102.231 7.189 102.762 8.746 103.824 11.824C104.238 10.924 104.724 9.736 105.282 8.26C105.354 8.062 105.462 7.801 105.606 7.477L105.66 7.261C105.66 6.937 105.102 6.775 103.986 6.775H103.662L103.203 6.802C102.555 6.838 102.231 6.955 102.231 7.153ZM118.512 25.324C120.096 25.324 121.419 24.7345 122.481 23.5555C123.543 22.3765 124.074 20.914 124.074 19.168C124.074 17.386 123.529 15.8965 122.44 14.6995C121.351 13.5025 119.997 12.904 118.377 12.904C116.775 12.904 115.438 13.498 114.367 14.686C113.296 15.874 112.761 17.368 112.761 19.168C112.761 20.914 113.31 22.3765 114.408 23.5555C115.506 24.7345 116.874 25.324 118.512 25.324ZM116.122 23.4205C116.725 24.4375 117.567 24.946 118.647 24.946C119.475 24.946 120.087 24.631 120.483 24.001C121.239 22.813 121.617 21.193 121.617 19.141C121.617 17.161 121.311 15.622 120.699 14.524C120.249 13.714 119.493 13.309 118.431 13.309C117.423 13.309 116.635 13.8265 116.068 14.8615C115.501 15.8965 115.218 17.332 115.218 19.168C115.218 20.986 115.519 22.4035 116.122 23.4205ZM131.04 25.054C131.274 25.054 131.391 24.991 131.391 24.865C131.391 24.757 131.292 24.685 131.094 24.649C130.32 24.631 129.856 24.595 129.703 24.541C129.55 24.487 129.474 24.352 129.474 24.136V18.79C129.474 16.792 129.681 15.424 130.095 14.686C130.455 14.056 130.887 13.741 131.391 13.741C131.787 13.741 131.985 13.876 131.985 14.146C131.985 14.218 131.904 14.344 131.742 14.524C131.58 14.704 131.499 14.92 131.499 15.172C131.499 15.46 131.607 15.6985 131.823 15.8875C132.039 16.0765 132.309 16.171 132.633 16.171C133.029 16.171 133.353 16.036 133.605 15.766C133.857 15.496 133.983 15.154 133.983 14.74C133.983 14.218 133.794 13.7815 133.416 13.4305C133.038 13.0795 132.561 12.904 131.985 12.904C130.941 12.904 130.131 13.534 129.555 14.794V14.254C129.555 13.822 129.519 13.39 129.447 12.958L129.231 13.039L128.88 13.201C128.072 13.5781 127.336 13.7671 126.671 13.768C126.641 13.7621 126.554 13.7518 126.409 13.737L126.315 13.7275C126.045 13.7005 125.775 13.687 125.505 13.687H125.316C125.136 13.687 125.046 13.75 125.046 13.876C125.046 14.002 125.154 14.065 125.37 14.065C126.018 14.083 126.49 14.1685 126.787 14.3215C127.084 14.4745 127.233 15.046 127.233 16.036V23.461C127.233 24.055 127.215 24.388 127.179 24.46C127.071 24.604 126.711 24.676 126.099 24.676H125.721C125.487 24.676 125.37 24.739 125.37 24.865C125.37 24.991 125.514 25.054 125.802 25.054C126.162 25.054 126.459 25.045 126.693 25.027C126.927 25.009 127.305 25 127.827 25C128.835 25 129.519 25.009 129.879 25.027C130.239 25.045 130.626 25.054 131.04 25.054ZM149.373 25.378C149.427 25.378 149.58 25.306 149.832 25.162C150.444 24.802 151.191 24.622 152.073 24.622H152.289C152.451 24.64 152.604 24.649 152.748 24.649H152.883C153.135 24.649 153.261 24.586 153.261 24.46C153.261 24.316 153.135 24.244 152.883 24.244C152.073 24.244 151.65 24.181 151.614 24.055C151.529 23.7675 151.485 21.7328 151.479 17.9508L151.479 7.882C151.479 7.666 151.488 7.414 151.506 7.126V6.559C151.506 6.127 151.416 5.911 151.236 5.911C151.182 5.911 151.119 5.929 151.047 5.965C149.931 6.487 149.103 6.739 148.563 6.721L147.591 6.694C147.393 6.694 147.294 6.775 147.294 6.937C147.294 7.099 147.411 7.18 147.645 7.18C147.753 7.18 148.068 7.153 148.59 7.099C148.806 7.081 148.968 7.207 149.076 7.477C149.202 7.801 149.265 8.647 149.265 10.015V14.227C148.653 13.345 147.735 12.904 146.511 12.904C144.927 12.904 143.644 13.48 142.663 14.632C141.682 15.784 141.192 17.287 141.192 19.141C141.192 20.941 141.682 22.4215 142.663 23.5825C143.644 24.7435 144.891 25.324 146.403 25.324C147.465 25.324 148.383 24.955 149.157 24.217L149.13 25.054C149.13 25.27 149.211 25.378 149.373 25.378ZM145.363 24.3655C145.786 24.6805 146.223 24.838 146.673 24.838C147.231 24.838 147.735 24.6715 148.185 24.3385C148.635 24.0055 148.927 23.605 149.062 23.137C149.197 22.669 149.265 20.851 149.265 17.683C149.265 15.955 149.076 14.848 148.698 14.362C148.212 13.75 147.591 13.444 146.835 13.444C145.863 13.444 145.089 13.948 144.513 14.956C143.937 15.964 143.649 17.314 143.649 19.006C143.649 20.626 143.901 22.012 144.405 23.164C144.621 23.65 144.94 24.0505 145.363 24.3655Z" fill="#575757"/>
<path d="M134.685 25.081V24.581H134.668L134.652 24.5821L134.685 25.081ZM135.009 25.054L134.988 24.5544L134.957 24.5557L134.927 24.5608L135.009 25.054ZM134.59 25.0831L134.576 25.5829H134.576L134.59 25.0831ZM136.035 24.325L135.542 24.2428L135.535 24.2836V24.325H136.035ZM136.061 22.8854L136.561 22.8869L136.561 22.8863L136.061 22.8854ZM136.062 22.455L136.562 22.456V22.4553L136.062 22.455ZM136.062 22.219L136.562 22.2192V22.219H136.062ZM136.008 7.504L135.54 7.67956L135.56 7.73345L135.592 7.78135L136.008 7.504ZM135.36 7.288V6.788H135.351L135.342 6.78832L135.36 7.288ZM134.604 7.315V7.815H134.613L134.622 7.81468L134.604 7.315ZM134.901 6.829L134.921 7.32873L134.932 7.32803L134.901 6.829ZM137.304 6.235L137.514 6.68868L137.519 6.68643L137.304 6.235ZM137.871 5.965L137.695 5.49683L137.675 5.50436L137.656 5.51357L137.871 5.965ZM138.087 5.884L138.569 5.75103L138.424 5.22379L137.911 5.41583L138.087 5.884ZM138.276 8.26L137.776 8.25152L137.776 8.25296L138.276 8.26ZM138.249 10.177L137.749 10.17L137.749 10.178L138.249 10.177ZM138.276 23.407H138.776V23.406L138.276 23.407ZM138.303 24.3655L137.811 24.4549V24.4549L138.303 24.3655ZM138.433 24.5426L138.195 24.9826L138.215 24.9934L138.236 25.0024L138.433 24.5426ZM138.492 24.568L138.846 24.2144L138.777 24.1462L138.688 24.1082L138.492 24.568ZM139.491 24.622L139.477 25.122H139.491V24.622ZM138.006 25L138.026 24.5004L138.022 24.5003L138.006 25ZM137.169 24.973L137.185 24.4733L137.177 24.473H137.169V24.973ZM106.983 25L106.507 24.8475L106.505 24.853L106.983 25ZM105.741 23.191L105.27 23.3599L105.272 23.3631L105.741 23.191ZM104.094 18.952L104.555 18.7593L104.555 18.7586L104.094 18.952ZM102.717 15.496L103.185 15.3189L102.738 14.1393L102.255 15.3047L102.717 15.496ZM98.964 25.027L98.4958 24.8514L98.4926 24.8601L98.4896 24.8689L98.964 25.027ZM98.37 24.892L98.8323 24.7016L98.8312 24.6988L98.37 24.892ZM92.16 8.341L91.6908 8.51385L91.6909 8.51417L92.16 8.341ZM90.648 6.775L90.6272 7.27457L90.6301 7.27468L90.648 6.775ZM90.108 6.181L90.0099 6.67129L90.0445 6.67821L90.0797 6.6802L90.108 6.181ZM94.3065 6.2215L94.2811 5.72214L94.3065 6.2215ZM96.291 6.748L96.2749 6.24826L96.291 6.748ZM99.585 21.247L99.1166 21.4218L99.5709 22.6392L100.05 21.4313L99.585 21.247ZM102.285 14.524L102.747 14.7147L102.823 14.53L102.751 14.3437L102.285 14.524ZM99.612 7.612L99.1447 7.79L99.1456 7.79234L99.612 7.612ZM99.1125 6.883L99.3606 6.44888V6.44888L99.1125 6.883ZM98.073 6.694L98.0551 7.19368L98.073 6.694ZM98.937 6.208L98.8937 6.70612L98.937 6.208ZM100.825 6.26155L100.823 6.76155L100.825 6.76155L100.825 6.26155ZM103.149 6.262L103.158 5.762L103.149 5.762L103.149 6.262ZM106.119 6.316L106.11 6.816H106.119V6.316ZM108.522 6.208L108.56 6.70653L108.582 6.70483L108.604 6.7012L108.522 6.208ZM106.794 7.018L107.018 7.46528L107.025 7.46129L106.794 7.018ZM105.795 8.962L106.255 9.15901L106.259 9.14889L105.795 8.962ZM104.715 11.527L104.254 11.3342L104.251 11.3413L104.715 11.527ZM104.229 12.742L103.765 12.5563L103.695 12.7303L103.757 12.9072L104.229 12.742ZM105.417 15.739L104.954 15.9273L104.955 15.9302L105.417 15.739ZM107.55 21.112L107.082 21.2869L107.568 22.5898L108.023 21.2754L107.55 21.112ZM111.114 10.771L111.587 10.9336L111.587 10.9327L111.114 10.771ZM112.063 7.84489L112.544 7.98102L112.546 7.97641L112.063 7.84489ZM112.12 7.63522L112.603 7.76675L112.604 7.76105L112.12 7.63522ZM111.195 6.208L111.145 6.70554L111.15 6.70595L111.195 6.208ZM112.275 6.262V6.76204L112.281 6.76196L112.275 6.262ZM114.435 6.235V5.73496L114.429 5.73504L114.435 6.235ZM114.489 6.721L114.502 7.22083L114.504 7.22078L114.489 6.721ZM112.086 10.15L111.612 9.99188L111.611 9.99397L112.086 10.15ZM109.926 16.441L110.396 16.6128L110.396 16.6123L109.926 16.441ZM103.824 11.824L103.351 11.9871L103.758 13.1647L104.278 12.033L103.824 11.824ZM105.282 8.26L105.75 8.43682L105.752 8.43087L105.282 8.26ZM105.606 7.477L106.063 7.68007L106.081 7.64039L106.091 7.59826L105.606 7.477ZM105.66 7.261L106.145 7.38226L106.16 7.32255V7.261H105.66ZM103.662 6.775V6.275H103.647L103.633 6.27586L103.662 6.775ZM103.203 6.802L103.231 7.30123L103.232 7.30114L103.203 6.802ZM122.481 23.5555L122.109 23.2209L122.481 23.5555ZM122.44 14.6995L122.071 15.036V15.036L122.44 14.6995ZM114.367 14.686L114.739 15.0208L114.367 14.686ZM114.408 23.5555L114.042 23.8963L114.408 23.5555ZM116.122 23.4205L116.553 23.1655V23.1655L116.122 23.4205ZM120.483 24.001L120.061 23.7326L120.06 23.7349L120.483 24.001ZM120.699 14.524L120.262 14.7668L120.262 14.7674L120.699 14.524ZM131.094 24.649L131.183 24.1571L131.145 24.15L131.106 24.1491L131.094 24.649ZM129.703 24.541L129.87 24.0695L129.87 24.0695L129.703 24.541ZM130.095 14.686L129.661 14.4379L129.659 14.4414L130.095 14.686ZM131.742 14.524L131.37 14.1895L131.37 14.1895L131.742 14.524ZM133.605 15.766L133.239 15.4248L133.239 15.4248L133.605 15.766ZM133.416 13.4305L133.076 13.7969V13.7969L133.416 13.4305ZM129.555 14.794H129.055L130.01 15.0019L129.555 14.794ZM129.447 12.958L129.94 12.8758L129.84 12.2765L129.271 12.4898L129.447 12.958ZM129.231 13.039L129.055 12.5708L129.038 12.5773L129.021 12.585L129.231 13.039ZM128.88 13.201L128.67 12.747L128.669 12.7479L128.88 13.201ZM126.671 13.768L126.574 14.2584L126.622 14.2681L126.672 14.268L126.671 13.768ZM126.409 13.737L126.46 13.2396L126.459 13.2395L126.409 13.737ZM126.315 13.7275L126.365 13.23L126.365 13.23L126.315 13.7275ZM125.37 14.065L125.384 13.565H125.37V14.065ZM127.179 24.46L127.579 24.76L127.606 24.7239L127.626 24.6836L127.179 24.46ZM149.832 25.162L150.08 25.5962L150.085 25.593L149.832 25.162ZM152.289 24.622L152.344 24.1251L152.317 24.122H152.289V24.622ZM151.614 24.055L152.095 23.9176L152.094 23.9139L151.614 24.055ZM151.479 17.9508L150.979 17.9508V17.9515L151.479 17.9508ZM151.479 7.882H150.979V7.88202L151.479 7.882ZM151.506 7.126L152.005 7.15718L152.006 7.14161V7.126H151.506ZM151.047 5.965L151.259 6.41806L151.271 6.41221L151.047 5.965ZM148.563 6.721L148.58 6.22127L148.577 6.22119L148.563 6.721ZM147.591 6.694L147.605 6.194H147.591V6.694ZM148.59 7.099L148.548 6.60063L148.539 6.60165L148.59 7.099ZM149.076 7.477L149.542 7.29577L149.54 7.29131L149.076 7.477ZM149.265 14.227L148.854 14.512L149.765 15.8246V14.227H149.265ZM142.663 14.632L143.044 14.9562L142.663 14.632ZM142.663 23.5825L142.282 23.9052L142.282 23.9052L142.663 23.5825ZM149.157 24.217L149.657 24.2331L149.696 23.0121L148.812 23.8551L149.157 24.217ZM149.13 25.054L148.63 25.0379L148.63 25.0459V25.054H149.13ZM145.363 24.3655L145.065 24.7665L145.363 24.3655ZM149.062 23.137L149.543 23.2756V23.2756L149.062 23.137ZM148.698 14.362L149.093 14.055L149.09 14.0511L148.698 14.362ZM144.513 14.956L144.079 14.7079L144.513 14.956ZM144.405 23.164L143.947 23.3644L143.948 23.3671L144.405 23.164ZM134.685 25.081V25.581C134.821 25.581 134.956 25.5697 135.091 25.5472L135.009 25.054L134.927 24.5608C134.846 24.5743 134.765 24.581 134.685 24.581V25.081ZM134.59 25.0831L134.576 25.5829C134.623 25.5843 134.671 25.5831 134.718 25.5799L134.685 25.081L134.652 24.5821C134.632 24.5834 134.616 24.5836 134.604 24.5833L134.59 25.0831ZM134.28 24.838H133.78C133.78 25.0363 133.852 25.2551 134.047 25.4097C134.219 25.5457 134.422 25.5785 134.576 25.5829L134.59 25.0831L134.604 24.5833C134.551 24.5818 134.599 24.5709 134.668 24.6252C134.706 24.6554 134.738 24.6966 134.758 24.7436C134.778 24.7879 134.78 24.8231 134.78 24.838H134.28ZM134.577 24.649V24.149C134.441 24.149 134.253 24.1677 134.086 24.2744C133.88 24.4055 133.78 24.6192 133.78 24.838H134.28H134.78C134.78 24.8727 134.773 24.9274 134.741 24.9873C134.709 25.0487 134.664 25.0917 134.623 25.1181C134.554 25.1618 134.515 25.149 134.577 25.149V24.649ZM135.279 24.649V24.149H134.577V24.649V25.149H135.279V24.649ZM136.035 24.325H135.535C135.535 24.2741 135.553 24.2119 135.593 24.1598C135.628 24.1148 135.659 24.104 135.649 24.1084C135.639 24.1129 135.606 24.1242 135.539 24.1338C135.474 24.1431 135.388 24.149 135.279 24.149V24.649V25.149C135.551 25.149 135.822 25.1221 136.043 25.0276C136.159 24.978 136.284 24.8997 136.382 24.7737C136.486 24.6406 136.535 24.4839 136.535 24.325H136.035ZM136.061 22.8854L135.561 22.8838C135.56 23.3189 135.557 23.654 135.553 23.8902C135.548 24.151 135.541 24.245 135.542 24.2428L136.035 24.325L136.528 24.4072C136.543 24.3172 136.548 24.1274 136.552 23.9083C136.557 23.6647 136.56 23.3238 136.561 22.8869L136.061 22.8854ZM136.062 22.455L135.562 22.4541L135.561 22.8844L136.061 22.8854L136.561 22.8863L136.562 22.456L136.062 22.455ZM136.062 22.219L135.562 22.2188L135.562 22.4548L136.062 22.455L136.562 22.4553L136.562 22.2192L136.062 22.219ZM136.062 8.476H135.562V22.219H136.062H136.562V8.476H136.062ZM136.008 7.504L135.592 7.78135C135.567 7.74377 135.554 7.7118 135.548 7.69677C135.541 7.67988 135.538 7.66746 135.537 7.66238C135.534 7.65283 135.535 7.65222 135.537 7.66583C135.54 7.69238 135.545 7.74018 135.549 7.81523C135.557 7.96337 135.562 8.18202 135.562 8.476H136.062H136.562C136.562 8.17598 136.557 7.93563 136.548 7.75977C136.543 7.67282 136.536 7.59236 136.527 7.52442C136.522 7.49078 136.515 7.45135 136.505 7.41143C136.497 7.38286 136.476 7.30525 136.424 7.22665L136.008 7.504ZM135.576 7.288V7.788C135.61 7.788 135.63 7.79064 135.641 7.79267C135.652 7.79469 135.648 7.79532 135.636 7.78921C135.623 7.78262 135.602 7.7696 135.582 7.74736C135.561 7.72482 135.548 7.70052 135.54 7.67956L136.008 7.504L136.476 7.32843C136.313 6.89262 135.891 6.788 135.576 6.788V7.288ZM135.36 7.288V7.788H135.576V7.288V6.788H135.36V7.288ZM134.604 7.315L134.622 7.81468L135.378 7.78768L135.36 7.288L135.342 6.78832L134.586 6.81532L134.604 7.315ZM134.226 7.072H133.726C133.726 7.30658 133.831 7.53373 134.05 7.67484C134.232 7.79162 134.44 7.815 134.604 7.815V7.315V6.815C134.566 6.815 134.548 6.81182 134.543 6.81091C134.539 6.80991 134.559 6.81343 134.591 6.83366C134.626 6.85606 134.665 6.89379 134.693 6.94815C134.721 7.00086 134.726 7.04705 134.726 7.072H134.226ZM134.901 6.829L134.881 6.3294C134.642 6.33897 134.411 6.3659 134.225 6.43281C134.063 6.49142 133.726 6.66633 133.726 7.072H134.226H134.726C134.726 7.12113 134.716 7.17269 134.694 7.22178C134.673 7.26991 134.646 7.30538 134.622 7.32936C134.578 7.37279 134.545 7.38044 134.564 7.37369C134.579 7.36839 134.614 7.35842 134.678 7.34902C134.741 7.33986 134.821 7.3326 134.921 7.3286L134.901 6.829ZM137.304 6.235L137.094 5.78134C136.416 6.09559 135.676 6.27959 134.87 6.32997L134.901 6.829L134.932 7.32803C135.854 7.2704 136.716 7.05841 137.514 6.68865L137.304 6.235ZM137.871 5.965L137.656 5.51357L137.089 5.78357L137.304 6.235L137.519 6.68643L138.086 6.41643L137.871 5.965ZM138.087 5.884L137.911 5.41583L137.695 5.49683L137.871 5.965L138.047 6.43316L138.263 6.35216L138.087 5.884ZM138.276 8.26L138.776 8.26847C138.794 7.19528 138.733 6.34449 138.569 5.75103L138.087 5.884L137.605 6.01696C137.729 6.46751 137.794 7.20072 137.776 8.25152L138.276 8.26ZM138.249 10.177L138.749 10.184L138.776 8.26704L138.276 8.26L137.776 8.25296L137.749 10.17L138.249 10.177ZM138.276 23.407L138.776 23.406L138.749 10.176L138.249 10.177L137.749 10.178L137.776 23.408L138.276 23.407ZM138.303 24.3655L138.795 24.2761C138.796 24.2812 138.793 24.2667 138.79 24.2177C138.787 24.1737 138.785 24.1141 138.783 24.0375C138.778 23.8846 138.776 23.675 138.776 23.407H138.276H137.776C137.776 23.679 137.778 23.8992 137.783 24.0657C137.787 24.2174 137.794 24.3613 137.811 24.4549L138.303 24.3655ZM138.433 24.5426L138.67 24.1027C138.692 24.1143 138.722 24.1367 138.75 24.1739C138.777 24.2114 138.79 24.2488 138.795 24.2761L138.303 24.3655L137.811 24.4549C137.853 24.6864 137.992 24.8729 138.195 24.9826L138.433 24.5426ZM138.492 24.568L138.688 24.1082L138.629 24.0828L138.433 24.5426L138.236 25.0024L138.296 25.0278L138.492 24.568ZM139.491 24.622L139.505 24.1222C139.182 24.1132 138.942 24.1044 138.782 24.0957C138.701 24.0914 138.647 24.0874 138.616 24.0841C138.598 24.0823 138.597 24.0817 138.605 24.0832C138.608 24.0837 138.625 24.0869 138.649 24.0943C138.661 24.098 138.683 24.1055 138.71 24.1185C138.732 24.1288 138.788 24.1574 138.846 24.2144L138.492 24.568L138.138 24.9216C138.197 24.9797 138.255 25.0094 138.279 25.0209C138.309 25.035 138.334 25.0436 138.349 25.0484C138.38 25.0581 138.407 25.0635 138.422 25.0663C138.454 25.0723 138.487 25.0762 138.514 25.0789C138.57 25.0846 138.643 25.0896 138.728 25.0943C138.901 25.1036 139.152 25.1128 139.477 25.1218L139.491 24.622ZM140.112 24.811H140.612C140.612 24.3895 140.244 24.2341 140.102 24.1909C139.926 24.1373 139.711 24.122 139.491 24.122V24.622V25.122C139.583 25.122 139.656 25.1255 139.712 25.1313C139.77 25.1372 139.801 25.1444 139.811 25.1476C139.827 25.1523 139.787 25.144 139.736 25.0976C139.708 25.0718 139.675 25.033 139.65 24.9792C139.624 24.9241 139.612 24.8661 139.612 24.811H140.112ZM139.761 25.054V25.554C139.92 25.554 140.128 25.5292 140.309 25.4043C140.523 25.2564 140.612 25.0297 140.612 24.811H140.112H139.612C139.612 24.7913 139.616 24.75 139.64 24.7004C139.665 24.6484 139.702 24.6084 139.74 24.5822C139.774 24.5582 139.8 24.5521 139.802 24.5516C139.804 24.5511 139.792 24.554 139.761 24.554V25.054ZM139.437 25.054V25.554H139.761V25.054V24.554H139.437V25.054ZM138.006 25L137.986 25.4996C138.893 25.5352 139.388 25.554 139.437 25.554V25.054V24.554C139.439 24.554 139.415 24.5534 139.345 24.5509C139.281 24.5487 139.19 24.5453 139.071 24.5409C138.833 24.5319 138.485 24.5184 138.026 24.5004L138.006 25ZM137.169 24.973L137.153 25.4727L137.99 25.4997L138.006 25L138.022 24.5003L137.185 24.4733L137.169 24.973ZM135.009 25.054L135.03 25.5536C136.334 25.4992 137.039 25.473 137.169 25.473V24.973V24.473C137.011 24.473 136.276 24.5008 134.988 24.5544L135.009 25.054ZM106.713 25.351V25.851C106.974 25.851 107.155 25.7014 107.258 25.5681C107.355 25.4413 107.417 25.2886 107.461 25.147L106.983 25L106.505 24.853C106.492 24.8955 106.48 24.9249 106.472 24.944C106.462 24.9638 106.459 24.9661 106.465 24.9584C106.471 24.9508 106.493 24.9242 106.536 24.8986C106.583 24.8708 106.645 24.851 106.713 24.851V25.351ZM106.456 25.081L106.001 25.2862C106.052 25.4009 106.121 25.5252 106.219 25.6279C106.319 25.7335 106.485 25.851 106.713 25.851V25.351V24.851C106.851 24.851 106.929 24.9235 106.944 24.9391C106.956 24.9518 106.942 24.9411 106.912 24.8758L106.456 25.081ZM105.741 23.191L105.272 23.3631C105.664 24.4329 105.91 25.0854 106.001 25.2862L106.456 25.081L106.912 24.8758C106.841 24.7166 106.61 24.1091 106.21 23.0189L105.741 23.191ZM104.094 18.952L103.633 19.1447C104.223 20.5591 104.769 21.9642 105.27 23.3599L105.741 23.191L106.212 23.0221C105.705 21.6098 105.153 20.1889 104.555 18.7593L104.094 18.952ZM102.717 15.496L102.249 15.6731C102.701 16.8663 103.163 18.0237 103.633 19.1454L104.094 18.952L104.555 18.7586C104.089 17.6483 103.633 16.5017 103.185 15.3189L102.717 15.496ZM98.964 25.027L99.4322 25.2026C100.672 21.8955 101.921 18.7237 103.179 15.6873L102.717 15.496L102.255 15.3047C100.993 18.3523 99.7397 21.5345 98.4958 24.8514L98.964 25.027ZM98.694 25.351V25.851C98.9385 25.851 99.1174 25.7212 99.2266 25.5901C99.3286 25.4677 99.3933 25.3202 99.4383 25.1851L98.964 25.027L98.4896 24.8689C98.4773 24.9059 98.4668 24.9304 98.4594 24.9451C98.4517 24.9605 98.4503 24.9596 98.4584 24.9499C98.4666 24.94 98.4899 24.9149 98.5322 24.8918C98.5775 24.8671 98.6336 24.851 98.694 24.851V25.351ZM98.37 24.892L97.9077 25.0824C97.9758 25.2479 98.0511 25.4028 98.137 25.5246C98.18 25.5854 98.2389 25.6573 98.3174 25.718C98.3962 25.7788 98.5248 25.851 98.694 25.851V25.351V24.851C98.8181 24.851 98.8996 24.9041 98.9288 24.9267C98.9578 24.9491 98.965 24.9636 98.954 24.9479C98.9448 24.9349 98.9287 24.9091 98.9066 24.8657C98.8849 24.8232 98.8601 24.769 98.8323 24.7016L98.37 24.892ZM92.16 8.341L91.6909 8.51417C95.2703 18.2089 97.3454 23.7404 97.9088 25.0852L98.37 24.892L98.8312 24.6988C98.2785 23.3796 96.2137 17.8771 92.629 8.16782L92.16 8.341ZM91.593 7.0585L91.1905 7.3551C91.2185 7.39316 91.2789 7.4992 91.3719 7.70955C91.4605 7.90989 91.5667 8.17695 91.6908 8.51385L92.16 8.341L92.6292 8.16815C92.5013 7.82105 92.387 7.53235 92.2865 7.3052C92.1905 7.08805 92.0935 6.89484 91.9955 6.7619L91.593 7.0585ZM90.648 6.775L90.6301 7.27468C90.8596 7.28287 91.0175 7.30798 91.1186 7.33829C91.2257 7.37043 91.2184 7.39298 91.1905 7.3551L91.593 7.0585L91.9955 6.7619C91.8416 6.55302 91.6138 6.44282 91.4059 6.38046C91.1919 6.31627 90.9404 6.28512 90.6658 6.27532L90.648 6.775ZM89.352 6.397H88.852C88.852 6.64446 88.9848 6.82506 89.1226 6.93415C89.2492 7.03435 89.4003 7.09394 89.536 7.1335C89.8116 7.21389 90.1846 7.25612 90.6272 7.27457L90.648 6.775L90.6688 6.27543C90.2474 6.25787 89.9724 6.21911 89.816 6.1735C89.7356 6.15006 89.7248 6.1354 89.7433 6.1501C89.7731 6.17369 89.852 6.25754 89.852 6.397H89.352ZM89.784 6.154V5.654C89.6095 5.654 89.3985 5.67568 89.2149 5.77896C88.9893 5.90583 88.852 6.13094 88.852 6.397H89.352H89.852C89.852 6.43278 89.8432 6.48802 89.8091 6.54559C89.7753 6.60266 89.7325 6.63514 89.7051 6.65054C89.6807 6.66426 89.6702 6.6638 89.6871 6.66062C89.7031 6.65763 89.734 6.654 89.784 6.654V6.154ZM90.108 6.181L90.206 5.69071C90.0743 5.66437 89.9317 5.654 89.784 5.654V6.154V6.654C89.8883 6.654 89.9616 6.66163 90.0099 6.67129L90.108 6.181ZM93.186 6.262V5.762C92.0961 5.762 91.0796 5.73519 90.1362 5.6818L90.108 6.181L90.0797 6.6802C91.0444 6.7348 92.0799 6.762 93.186 6.762V6.262ZM94.3065 6.2215L94.2811 5.72214C93.7499 5.74915 93.3879 5.762 93.186 5.762V6.262V6.762C93.4161 6.762 93.8011 6.74784 94.3319 6.72085L94.3065 6.2215ZM96.372 6.181V5.681C95.5218 5.681 94.824 5.69454 94.2811 5.72214L94.3065 6.2215L94.3319 6.72085C94.851 6.69446 95.5302 6.681 96.372 6.681V6.181ZM96.669 6.181V5.681H96.372V6.181V6.681H96.669V6.181ZM97.128 6.424H97.628C97.628 6.30166 97.598 6.17134 97.5224 6.05128C97.4479 5.933 97.3469 5.85263 97.2472 5.79985C97.0627 5.70217 96.8498 5.681 96.669 5.681V6.181V6.681C96.7248 6.681 96.7615 6.6848 96.7829 6.68858C96.8055 6.69257 96.8 6.69458 96.7793 6.68364C96.7561 6.67137 96.7124 6.64162 96.6762 6.58409C96.6388 6.52478 96.628 6.46534 96.628 6.424H97.128ZM96.291 6.748L96.3071 7.24774C96.6024 7.23821 96.8797 7.20476 97.0992 7.11978C97.3167 7.03561 97.628 6.8298 97.628 6.424H97.128H96.628C96.628 6.34274 96.6613 6.26797 96.7062 6.21875C96.7414 6.18014 96.7656 6.17661 96.7382 6.18721C96.6788 6.21024 96.5375 6.23979 96.2749 6.24826L96.291 6.748ZM94.617 7.18H95.117C95.117 7.33319 95.0219 7.41123 95.011 7.419C95.0084 7.42085 95.0452 7.39688 95.1604 7.36714C95.3846 7.30929 95.7584 7.26544 96.3071 7.24774L96.291 6.748L96.2749 6.24826C95.7076 6.26656 95.2444 6.31271 94.9106 6.39886C94.7468 6.44112 94.5743 6.50265 94.4322 6.6035C94.2818 6.71027 94.117 6.90081 94.117 7.18H94.617ZM99.585 21.247L100.053 21.0722C98.3977 16.6359 97.157 13.2485 96.3305 10.9082C95.917 9.7376 95.6085 8.83257 95.4039 8.19078C95.3014 7.86936 95.2265 7.61879 95.1777 7.43616C95.1222 7.2285 95.117 7.16547 95.117 7.18H94.617H94.117C94.117 7.32052 94.1635 7.51428 94.2115 7.69418C94.2663 7.89911 94.3466 8.16689 94.4511 8.4946C94.6605 9.15105 94.973 10.0674 95.3875 11.2413C96.217 13.59 97.4603 16.9841 99.1166 21.4218L99.585 21.247ZM102.285 14.524L101.823 14.3333C101.227 15.7767 100.326 18.0204 99.1202 21.0627L99.585 21.247L100.05 21.4313C101.256 18.3896 102.155 16.1513 102.747 14.7147L102.285 14.524ZM99.612 7.612L99.1456 7.79234L101.819 14.7043L102.285 14.524L102.751 14.3437L100.078 7.43166L99.612 7.612ZM99.1125 6.883L98.8644 7.31712C98.897 7.33576 99.011 7.43884 99.1447 7.79L99.612 7.612L100.079 7.434C99.925 7.02915 99.7059 6.64624 99.3606 6.44888L99.1125 6.883ZM98.073 6.694L98.0551 7.19368C98.5583 7.21165 98.7923 7.27591 98.8644 7.31712L99.1125 6.883L99.3606 6.44888C99.0547 6.27409 98.5957 6.21235 98.0908 6.19432L98.073 6.694ZM97.317 6.451H96.817C96.817 6.65442 96.9137 6.81519 97.0312 6.92016C97.136 7.01372 97.2571 7.06496 97.353 7.09576C97.5461 7.15782 97.7907 7.18424 98.0551 7.19368L98.073 6.694L98.0908 6.19432C97.8512 6.18576 97.7179 6.16267 97.659 6.14373C97.6288 6.13404 97.6555 6.1369 97.6972 6.17422C97.721 6.19539 97.7524 6.23029 97.7776 6.28159C97.8037 6.33472 97.817 6.39318 97.817 6.451H97.317ZM97.884 6.154V5.654C97.6676 5.654 97.4286 5.67959 97.2267 5.78533C97.1184 5.84206 97.0102 5.92757 96.9306 6.05262C96.8497 6.1797 96.817 6.31864 96.817 6.451H97.317H97.817C97.817 6.48436 97.8079 6.53667 97.7743 6.5895C97.7419 6.64031 97.7045 6.66393 97.6907 6.67116C97.6794 6.67713 97.6854 6.67148 97.7219 6.66511C97.7572 6.65895 97.8099 6.654 97.884 6.654V6.154ZM98.937 6.208L98.9803 5.70988C98.5576 5.67312 98.1912 5.654 97.884 5.654V6.154V6.654C98.1528 6.654 98.4884 6.67088 98.8937 6.70612L98.937 6.208ZM100.825 6.26155L100.826 5.76156C99.9448 5.75858 99.3339 5.74063 98.9803 5.70988L98.937 6.208L98.8937 6.70612C99.2928 6.74082 99.9404 6.75857 100.823 6.76155L100.825 6.26155ZM103.149 6.262L103.149 5.762L100.825 5.76155L100.825 6.26155L100.825 6.76155L103.149 6.762L103.149 6.262ZM106.119 6.316L106.128 5.81608L103.158 5.76208L103.149 6.262L103.14 6.76192L106.11 6.81592L106.119 6.316ZM108.522 6.208L108.484 5.70947C107.556 5.78085 106.768 5.816 106.119 5.816V6.316V6.816C106.802 6.816 107.616 6.77915 108.56 6.70653L108.522 6.208ZM108.9 6.181V5.681C108.736 5.681 108.582 5.69112 108.44 5.7148L108.522 6.208L108.604 6.7012C108.678 6.68888 108.775 6.681 108.9 6.681V6.181ZM109.548 6.451H110.048C110.048 6.29751 109.999 6.1468 109.898 6.02053C109.803 5.9021 109.684 5.83083 109.578 5.78696C109.378 5.70336 109.136 5.681 108.9 5.681V6.181V6.681C108.992 6.681 109.062 6.68585 109.115 6.69312C109.141 6.6967 109.16 6.7006 109.174 6.70404C109.18 6.70573 109.185 6.70721 109.189 6.70832C109.192 6.70944 109.194 6.71008 109.194 6.71004C109.194 6.71 109.192 6.70913 109.188 6.70717C109.184 6.7052 109.179 6.70197 109.172 6.69715C109.158 6.68749 109.138 6.6709 109.117 6.64522C109.07 6.58645 109.048 6.51449 109.048 6.451H109.548ZM109.089 6.694V7.194C109.27 7.194 109.483 7.17283 109.667 7.07514C109.767 7.02237 109.868 6.942 109.942 6.82372C110.018 6.70366 110.048 6.57334 110.048 6.451H109.548H109.048C109.048 6.40966 109.059 6.35021 109.096 6.2909C109.132 6.23338 109.176 6.20363 109.199 6.19136C109.22 6.18042 109.226 6.18243 109.203 6.18642C109.182 6.1902 109.145 6.194 109.089 6.194V6.694ZM108.63 6.694V7.194H109.089V6.694V6.194H108.63V6.694ZM106.794 7.018L107.025 7.46129C107.333 7.30061 107.849 7.194 108.63 7.194V6.694V6.194C107.791 6.194 107.083 6.30338 106.563 6.57471L106.794 7.018ZM105.795 8.962L106.259 9.14889C106.5 8.55093 106.698 8.10386 106.854 7.80003C106.932 7.64725 106.995 7.54197 107.041 7.47551C107.102 7.38687 107.096 7.42614 107.018 7.46521L106.794 7.018L106.57 6.57079C106.402 6.65486 106.286 6.80888 106.22 6.90474C106.138 7.02278 106.053 7.17175 105.965 7.34296C105.788 7.68714 105.576 8.16707 105.331 8.77511L105.795 8.962ZM104.715 11.527L105.176 11.7198C105.68 10.5138 106.04 9.66067 106.255 9.15896L105.795 8.962L105.335 8.76504C105.118 9.27133 104.758 10.1282 104.254 11.3342L104.715 11.527ZM104.229 12.742L104.693 12.9277L105.179 11.7127L104.715 11.527L104.251 11.3413L103.765 12.5563L104.229 12.742ZM105.417 15.739L105.88 15.5507C105.212 13.9073 104.822 12.9222 104.701 12.5768L104.229 12.742L103.757 12.9072C103.888 13.2818 104.29 14.2947 104.954 15.9273L105.417 15.739ZM107.55 21.112L108.018 20.9371C107.458 19.4359 106.744 17.6392 105.879 15.5478L105.417 15.739L104.955 15.9302C105.818 18.0148 106.526 19.8001 107.082 21.2869L107.55 21.112ZM111.114 10.771L110.641 10.6084C109.273 14.5862 108.085 18.033 107.077 20.9486L107.55 21.112L108.023 21.2754C109.031 18.359 110.219 14.9118 111.587 10.9336L111.114 10.771ZM112.063 7.84489L111.582 7.70877C111.423 8.27175 111.11 9.23575 110.641 10.6093L111.114 10.771L111.587 10.9327C112.057 9.5593 112.377 8.57256 112.544 7.98102L112.063 7.84489ZM112.12 7.63522L111.638 7.5037L111.581 7.71337L112.063 7.84489L112.546 7.97641L112.603 7.76674L112.12 7.63522ZM112.194 7.261H111.694C111.694 7.24612 111.695 7.24166 111.694 7.25336C111.692 7.26329 111.69 7.27972 111.685 7.30398C111.675 7.35274 111.66 7.4204 111.637 7.5094L112.12 7.63522L112.604 7.76105C112.65 7.58622 112.694 7.39762 112.694 7.261H112.194ZM111.249 6.748V7.248C111.535 7.248 111.671 7.28963 111.719 7.31568C111.736 7.32462 111.723 7.32184 111.709 7.29819C111.694 7.27331 111.694 7.25499 111.694 7.261H112.194H112.694C112.694 7.09601 112.655 6.92806 112.561 6.77493C112.468 6.62303 112.337 6.51338 112.196 6.43682C111.929 6.29187 111.593 6.248 111.249 6.248V6.748ZM109.926 6.451H109.426C109.426 6.72117 109.588 6.90074 109.729 6.99565C109.86 7.08357 110.013 7.13142 110.147 7.16161C110.423 7.22358 110.799 7.248 111.249 7.248V6.748V6.248C110.817 6.248 110.531 6.22292 110.366 6.18589C110.28 6.16658 110.268 6.15255 110.288 6.16622C110.319 6.18689 110.426 6.27983 110.426 6.451H109.926ZM110.466 6.181V5.681C110.26 5.681 110.032 5.70404 109.837 5.80129C109.733 5.85344 109.625 5.93391 109.544 6.05552C109.461 6.18027 109.426 6.31851 109.426 6.451H109.926H110.426C110.426 6.49349 110.414 6.55298 110.376 6.61022C110.34 6.66434 110.299 6.68856 110.285 6.69571C110.272 6.70189 110.277 6.69686 110.312 6.69107C110.345 6.6855 110.395 6.681 110.466 6.681V6.181ZM111.195 6.208L111.245 5.71048C111.041 5.69009 110.779 5.681 110.466 5.681V6.181V6.681C110.765 6.681 110.989 6.68991 111.145 6.70552L111.195 6.208ZM112.275 6.262V5.762C111.969 5.762 111.624 5.74498 111.24 5.71005L111.195 6.208L111.15 6.70595C111.558 6.74302 111.933 6.762 112.275 6.762V6.262ZM114.435 6.235L114.429 5.73504L112.269 5.76204L112.275 6.262L112.281 6.76196L114.441 6.73496L114.435 6.235ZM115.326 6.3025L115.646 5.91839C115.57 5.85537 115.493 5.82621 115.457 5.81375C115.412 5.79858 115.37 5.78875 115.334 5.78196C115.264 5.76835 115.183 5.75956 115.101 5.7533C114.933 5.74063 114.709 5.735 114.435 5.735V6.235V6.735C114.701 6.735 114.895 6.74062 115.025 6.75045C115.091 6.75544 115.129 6.76071 115.146 6.76397C115.154 6.76563 115.148 6.76494 115.132 6.75961C115.124 6.75699 115.068 6.73838 115.006 6.68661L115.326 6.3025ZM115.407 6.451H115.907C115.907 6.20646 115.777 6.02762 115.646 5.91839L115.326 6.3025L115.006 6.68661C114.996 6.67839 114.971 6.65511 114.948 6.6128C114.923 6.56746 114.907 6.5114 114.907 6.451H115.407ZM114.489 6.721L114.504 7.22078C114.821 7.21145 115.102 7.18326 115.319 7.11968C115.425 7.08838 115.555 7.03749 115.667 6.94496C115.793 6.8418 115.907 6.67408 115.907 6.451H115.407H114.907C114.907 6.30892 114.983 6.21319 115.032 6.17303C115.068 6.14351 115.083 6.14662 115.036 6.16032C114.947 6.18674 114.769 6.21255 114.474 6.22122L114.489 6.721ZM113.125 7.396L113.569 7.62697C113.678 7.4181 113.917 7.23622 114.502 7.22083L114.489 6.721L114.476 6.22117C113.693 6.24178 113.023 6.50989 112.682 7.16503L113.125 7.396ZM112.086 10.15L112.56 10.3081C113.031 8.89737 113.365 8.01778 113.569 7.62697L113.125 7.396L112.682 7.16503C112.436 7.63822 112.077 8.59463 111.612 9.99189L112.086 10.15ZM109.926 16.441L110.396 16.6123C111.028 14.8776 111.75 12.7752 112.561 10.306L112.086 10.15L111.611 9.99397C110.802 12.4568 110.084 14.5484 109.456 16.2697L109.926 16.441ZM106.983 25L107.459 25.1525C108.339 22.4055 109.318 19.5589 110.396 16.6128L109.926 16.441L109.456 16.2692C108.374 19.227 107.391 22.0865 106.507 24.8475L106.983 25ZM103.824 11.824L104.297 11.6609C103.766 10.122 103.368 8.96398 103.102 8.18636C102.97 7.79738 102.871 7.50451 102.805 7.30707C102.772 7.20807 102.748 7.13474 102.732 7.08588C102.724 7.06101 102.719 7.04528 102.717 7.03675C102.716 7.03199 102.716 7.03329 102.717 7.03809C102.718 7.04019 102.72 7.04778 102.722 7.05838C102.723 7.06371 102.725 7.07324 102.726 7.08537C102.728 7.09467 102.731 7.12009 102.731 7.153H102.231H101.731C101.731 7.20757 101.741 7.25135 101.741 7.25322C101.744 7.26643 101.746 7.27737 101.748 7.28357C101.751 7.29656 101.755 7.30902 101.757 7.3184C101.763 7.33813 101.771 7.36255 101.78 7.38972C101.797 7.44492 101.823 7.52318 101.856 7.6233C101.923 7.82411 102.023 8.11962 102.156 8.50914C102.422 9.28851 102.82 10.4479 103.351 11.9871L103.824 11.824ZM105.282 8.26L104.814 8.08319C104.258 9.55386 103.777 10.7299 103.37 11.615L103.824 11.824L104.278 12.033C104.699 11.1181 105.19 9.91813 105.75 8.43681L105.282 8.26ZM105.606 7.477L105.149 7.27393C105.003 7.60243 104.89 7.87541 104.812 8.08913L105.282 8.26L105.752 8.43087C105.818 8.24859 105.921 7.99957 106.063 7.68007L105.606 7.477ZM105.66 7.261L105.175 7.13973L105.121 7.35573L105.606 7.477L106.091 7.59826L106.145 7.38226L105.66 7.261ZM103.986 6.775V7.275C104.532 7.275 104.893 7.31591 105.102 7.37667C105.207 7.40726 105.234 7.43184 105.227 7.42541C105.205 7.40619 105.16 7.34593 105.16 7.261H105.66H106.16C106.16 7.01407 106.045 6.81206 105.884 6.67133C105.737 6.54341 105.555 6.46674 105.381 6.41633C105.032 6.31509 104.556 6.275 103.986 6.275V6.775ZM103.662 6.775V7.275H103.986V6.775V6.275H103.662V6.775ZM103.203 6.802L103.232 7.30114L103.691 7.27414L103.662 6.775L103.633 6.27586L103.174 6.30286L103.203 6.802ZM102.231 7.153H102.731C102.731 7.25803 102.682 7.33792 102.64 7.37818C102.61 7.40742 102.598 7.40359 102.644 7.38703C102.736 7.35373 102.92 7.31847 103.231 7.30123L103.203 6.802L103.175 6.30277C102.838 6.32153 102.536 6.36277 102.304 6.44647C102.106 6.5181 101.731 6.71192 101.731 7.153H102.231ZM122.481 23.5555L122.109 23.2209C121.142 24.2948 119.954 24.824 118.512 24.824V25.324V25.824C120.238 25.824 121.696 25.1742 122.852 23.8901L122.481 23.5555ZM124.074 19.168H123.574C123.574 20.8038 123.08 22.1432 122.109 23.2209L122.481 23.5555L122.852 23.8901C124.006 22.6098 124.574 21.0242 124.574 19.168H124.074ZM122.44 14.6995L122.071 15.036C123.067 16.1313 123.574 17.4968 123.574 19.168H124.074H124.574C124.574 17.2752 123.992 15.6617 122.81 14.363L122.44 14.6995ZM118.377 12.904V13.404C119.856 13.404 121.077 13.9433 122.071 15.036L122.44 14.6995L122.81 14.363C121.626 13.0617 120.138 12.404 118.377 12.404V12.904ZM114.367 14.686L114.739 15.0208C115.715 13.9381 116.916 13.404 118.377 13.404V12.904V12.404C116.634 12.404 115.162 13.0578 113.996 14.3512L114.367 14.686ZM112.761 19.168H113.261C113.261 17.475 113.761 16.1053 114.739 15.0208L114.367 14.686L113.996 14.3512C112.832 15.6427 112.261 17.261 112.261 19.168H112.761ZM114.408 23.5555L114.774 23.2147C113.77 22.1364 113.261 20.7991 113.261 19.168H112.761H112.261C112.261 21.0289 112.85 22.6166 114.042 23.8963L114.408 23.5555ZM118.512 25.324V24.824C117.01 24.824 115.776 24.2903 114.774 23.2147L114.408 23.5555L114.042 23.8963C115.236 25.1787 116.738 25.824 118.512 25.824V25.324ZM118.647 24.946V24.446C117.763 24.446 117.076 24.048 116.553 23.1655L116.122 23.4205L115.692 23.6755C116.375 24.827 117.371 25.446 118.647 25.446V24.946ZM120.483 24.001L120.06 23.7349C119.767 24.2008 119.326 24.446 118.647 24.446V24.946V25.446C119.624 25.446 120.407 25.0612 120.906 24.2671L120.483 24.001ZM121.617 19.141H121.117C121.117 21.139 120.748 22.6535 120.061 23.7326L120.483 24.001L120.905 24.2694C121.73 22.9725 122.117 21.247 122.117 19.141H121.617ZM120.699 14.524L120.262 14.7674C120.816 15.76 121.117 17.2018 121.117 19.141H121.617H122.117C122.117 17.1202 121.806 15.484 121.136 14.2806L120.699 14.524ZM118.431 13.309V13.809C119.343 13.809 119.915 14.1417 120.262 14.7668L120.699 14.524L121.136 14.2812C120.583 13.2863 119.643 12.809 118.431 12.809V13.309ZM116.068 14.8615L116.507 15.1017C117.004 14.194 117.64 13.809 118.431 13.809V13.309V12.809C117.206 12.809 116.267 13.459 115.63 14.6213L116.068 14.8615ZM115.218 19.168H115.718C115.718 17.3736 115.997 16.0332 116.507 15.1017L116.068 14.8615L115.63 14.6213C115.006 15.7598 114.718 17.2904 114.718 19.168H115.218ZM116.122 23.4205L116.553 23.1655C116.014 22.2565 115.718 20.9406 115.718 19.168H115.218H114.718C114.718 21.0314 115.025 22.5505 115.692 23.6755L116.122 23.4205ZM131.391 24.865H130.891C130.891 24.8163 130.903 24.7501 130.944 24.6845C130.984 24.6203 131.033 24.5842 131.066 24.5665C131.096 24.5503 131.114 24.5485 131.105 24.5501C131.098 24.5514 131.077 24.554 131.04 24.554V25.054V25.554C131.186 25.554 131.373 25.5372 131.54 25.447C131.632 25.3978 131.725 25.3223 131.794 25.2109C131.864 25.098 131.891 24.9767 131.891 24.865H131.391ZM131.094 24.649L131.005 25.1409C131.072 25.1531 131.061 25.1622 131.023 25.1344C130.999 25.1173 130.964 25.0848 130.934 25.0317C130.904 24.9766 130.891 24.9178 130.891 24.865H131.391H131.891C131.891 24.628 131.77 24.4413 131.611 24.3256C131.474 24.2258 131.314 24.1809 131.183 24.1571L131.094 24.649ZM129.703 24.541L129.537 25.0125C129.685 25.0648 129.905 25.0897 130.127 25.107C130.372 25.126 130.691 25.1398 131.082 25.1489L131.094 24.649L131.106 24.1491C130.723 24.1402 130.423 24.127 130.205 24.11C130.095 24.1015 130.011 24.0924 129.949 24.0834C129.88 24.0734 129.861 24.0665 129.87 24.0695L129.703 24.541ZM129.474 24.136H128.974C128.974 24.2982 129.002 24.4793 129.096 24.6458C129.197 24.8233 129.353 24.9474 129.537 25.0125L129.703 24.541L129.87 24.0695C129.882 24.0737 129.901 24.0826 129.921 24.0993C129.942 24.1163 129.957 24.1356 129.966 24.1527C129.984 24.1842 129.974 24.1898 129.974 24.136H129.474ZM129.474 18.79H128.974V24.136H129.474H129.974V18.79H129.474ZM130.095 14.686L129.659 14.4414C129.41 14.8858 129.242 15.48 129.135 16.1907C129.026 16.9077 128.974 17.7759 128.974 18.79H129.474H129.974C129.974 17.8061 130.025 16.9913 130.124 16.3403C130.223 15.683 130.366 15.2242 130.531 14.9306L130.095 14.686ZM131.391 13.741V13.241C130.635 13.241 130.067 13.728 129.661 14.4379L130.095 14.686L130.529 14.9341C130.843 14.384 131.139 14.241 131.391 14.241V13.741ZM131.985 14.146H132.485C132.485 13.8701 132.373 13.6027 132.118 13.4291C131.898 13.2789 131.63 13.241 131.391 13.241V13.741V14.241C131.463 14.241 131.511 14.2473 131.54 14.2539C131.569 14.2605 131.569 14.2651 131.555 14.2554C131.537 14.2434 131.514 14.2207 131.499 14.1884C131.484 14.1584 131.485 14.1397 131.485 14.146H131.985ZM131.742 14.524L132.114 14.8585C132.203 14.7591 132.284 14.66 132.345 14.5649C132.392 14.4916 132.485 14.3366 132.485 14.146H131.985H131.485C131.485 14.1088 131.49 14.0794 131.495 14.0603C131.499 14.041 131.504 14.0275 131.507 14.0208C131.512 14.0086 131.513 14.009 131.504 14.0241C131.484 14.055 131.443 14.1089 131.37 14.1895L131.742 14.524ZM131.499 15.172H131.999C131.999 15.038 132.038 14.9427 132.114 14.8585L131.742 14.524L131.37 14.1895C131.122 14.4653 130.999 14.802 130.999 15.172H131.499ZM131.823 15.8875L132.152 15.5112C132.045 15.4175 131.999 15.3164 131.999 15.172H131.499H130.999C130.999 15.6036 131.169 15.9795 131.494 16.2638L131.823 15.8875ZM132.633 16.171V15.671C132.413 15.671 132.265 15.6101 132.152 15.5112L131.823 15.8875L131.494 16.2638C131.813 16.5429 132.205 16.671 132.633 16.671V16.171ZM133.605 15.766L133.239 15.4248C133.089 15.5856 132.902 15.671 132.633 15.671V16.171V16.671C133.156 16.671 133.617 16.4864 133.971 16.1072L133.605 15.766ZM133.983 14.74H133.483C133.483 15.0439 133.394 15.2589 133.239 15.4248L133.605 15.766L133.971 16.1072C134.32 15.7331 134.483 15.2641 134.483 14.74H133.983ZM133.416 13.4305L133.076 13.7969C133.351 14.052 133.483 14.3551 133.483 14.74H133.983H134.483C134.483 14.0809 134.237 13.511 133.756 13.0641L133.416 13.4305ZM131.985 12.904V13.404C132.451 13.404 132.801 13.542 133.076 13.7969L133.416 13.4305L133.756 13.0641C133.275 12.617 132.671 12.404 131.985 12.404V12.904ZM129.555 14.794L130.01 15.0019C130.536 13.8505 131.203 13.404 131.985 13.404V12.904V12.404C130.679 12.404 129.726 13.2175 129.1 14.5861L129.555 14.794ZM129.555 14.254H129.055V14.794H129.555H130.055V14.254H129.555ZM129.447 12.958L128.954 13.0402C129.021 13.4454 129.055 13.8499 129.055 14.254H129.555H130.055C130.055 13.7941 130.017 13.3346 129.94 12.8758L129.447 12.958ZM129.231 13.039L129.407 13.5072L129.623 13.4262L129.447 12.958L129.271 12.4898L129.055 12.5708L129.231 13.039ZM128.88 13.201L129.09 13.655L129.441 13.493L129.231 13.039L129.021 12.585L128.67 12.747L128.88 13.201ZM126.671 13.768L126.672 14.268C127.43 14.2669 128.239 14.052 129.091 13.6541L128.88 13.201L128.669 12.7479C127.905 13.1042 127.242 13.2672 126.67 13.268L126.671 13.768ZM126.409 13.737L126.358 14.2344C126.43 14.2417 126.485 14.2476 126.524 14.2523C126.544 14.2547 126.559 14.2566 126.569 14.258C126.581 14.2597 126.581 14.2599 126.574 14.2584L126.671 13.768L126.768 13.2776C126.71 13.2659 126.593 13.2532 126.46 13.2396L126.409 13.737ZM126.315 13.7275L126.265 14.225L126.359 14.2345L126.409 13.737L126.459 13.2395L126.365 13.23L126.315 13.7275ZM125.505 13.687V14.187C125.758 14.187 126.012 14.1997 126.265 14.225L126.315 13.7275L126.365 13.23C126.078 13.2013 125.792 13.187 125.505 13.187V13.687ZM125.316 13.687V14.187H125.505V13.687V13.187H125.316V13.687ZM125.046 13.876H125.546C125.546 13.9039 125.541 13.9525 125.514 14.0083C125.487 14.0666 125.445 14.1126 125.4 14.1439C125.323 14.198 125.269 14.187 125.316 14.187V13.687V13.187C125.183 13.187 124.994 13.2075 124.827 13.3246C124.627 13.4645 124.546 13.6775 124.546 13.876H125.046ZM125.37 14.065V13.565C125.355 13.565 125.344 13.5644 125.336 13.5638C125.332 13.5634 125.329 13.5631 125.327 13.5628C125.325 13.5625 125.324 13.5624 125.324 13.5624C125.324 13.5624 125.325 13.5626 125.327 13.5632C125.33 13.5639 125.333 13.5649 125.338 13.5665C125.347 13.5697 125.361 13.5755 125.379 13.5859C125.416 13.6077 125.464 13.6473 125.5 13.7106C125.536 13.7737 125.546 13.8344 125.546 13.876H125.046H124.546C124.546 14.1151 124.666 14.3277 124.875 14.4496C125.043 14.5474 125.23 14.565 125.37 14.565V14.065ZM126.787 14.3215L127.016 13.877C126.616 13.6706 126.049 13.5837 125.384 13.5652L125.37 14.065L125.356 14.5648C125.987 14.5823 126.365 14.6664 126.559 14.766L126.787 14.3215ZM127.233 16.036H127.733C127.733 15.523 127.695 15.0843 127.606 14.7391C127.521 14.4147 127.36 14.0541 127.016 13.877L126.787 14.3215L126.559 14.766C126.512 14.7419 126.573 14.7436 126.638 14.9906C126.696 15.217 126.733 15.559 126.733 16.036H127.233ZM127.233 23.461H127.733V16.036H127.233H126.733V23.461H127.233ZM127.179 24.46L127.626 24.6836C127.677 24.5818 127.692 24.4695 127.698 24.4231C127.707 24.354 127.714 24.2725 127.719 24.1832C127.728 24.0034 127.733 23.7612 127.733 23.461H127.233H126.733C126.733 23.7548 126.728 23.9761 126.72 24.1293C126.716 24.2065 126.711 24.2588 126.707 24.291C126.705 24.3071 126.704 24.3119 126.704 24.3089C126.705 24.3071 126.706 24.3003 126.71 24.2899C126.713 24.2805 126.719 24.261 126.732 24.2364L127.179 24.46ZM126.099 24.676V25.176C126.419 25.176 126.7 25.1576 126.926 25.1123C127.121 25.0734 127.405 24.9918 127.579 24.76L127.179 24.46L126.779 24.16C126.819 24.1072 126.855 24.0942 126.841 24.1005C126.83 24.1058 126.796 24.1184 126.73 24.1317C126.596 24.1584 126.391 24.176 126.099 24.176V24.676ZM125.721 24.676V25.176H126.099V24.676V24.176H125.721V24.676ZM125.37 24.865H125.87C125.87 24.9137 125.858 24.9799 125.817 25.0455C125.777 25.1097 125.728 25.1458 125.695 25.1635C125.665 25.1797 125.647 25.1815 125.656 25.1799C125.663 25.1786 125.684 25.176 125.721 25.176V24.676V24.176C125.575 24.176 125.388 24.1928 125.221 24.283C125.129 24.3322 125.036 24.4077 124.967 24.5191C124.897 24.632 124.87 24.7533 124.87 24.865H125.37ZM125.802 25.054V24.554C125.747 24.554 125.709 24.5509 125.685 24.5474C125.66 24.5437 125.661 24.5411 125.678 24.5487C125.696 24.5564 125.747 24.5823 125.795 24.6447C125.847 24.7136 125.87 24.7941 125.87 24.865H125.37H124.87C124.87 24.9989 124.911 25.1345 124.999 25.2507C125.083 25.3603 125.188 25.4256 125.278 25.4648C125.445 25.5383 125.637 25.554 125.802 25.554V25.054ZM126.693 25.027L126.655 24.5285C126.438 24.5451 126.155 24.554 125.802 24.554V25.054V25.554C126.169 25.554 126.48 25.5449 126.731 25.5255L126.693 25.027ZM127.827 25V24.5C127.304 24.5 126.909 24.5089 126.655 24.5285L126.693 25.027L126.731 25.5255C126.945 25.5091 127.306 25.5 127.827 25.5V25ZM129.879 25.027L129.904 24.5276C129.53 24.5089 128.834 24.5 127.827 24.5V25V25.5C128.836 25.5 129.508 25.5091 129.854 25.5264L129.879 25.027ZM131.04 25.054V24.554C130.633 24.554 130.255 24.5452 129.904 24.5276L129.879 25.027L129.854 25.5264C130.223 25.5448 130.619 25.554 131.04 25.554V25.054ZM149.832 25.162L149.584 24.7279C149.463 24.7972 149.374 24.8438 149.315 24.8716C149.285 24.8857 149.271 24.8912 149.268 24.8923C149.267 24.8927 149.273 24.8902 149.286 24.8872C149.297 24.8848 149.329 24.878 149.373 24.878V25.378V25.878C149.475 25.878 149.56 25.8492 149.596 25.8367C149.645 25.8198 149.695 25.7983 149.741 25.7764C149.835 25.7322 149.949 25.6708 150.08 25.5961L149.832 25.162ZM152.073 24.622V24.122C151.123 24.122 150.284 24.3161 149.578 24.731L149.832 25.162L150.085 25.593C150.604 25.2879 151.259 25.122 152.073 25.122V24.622ZM152.289 24.622V24.122H152.073V24.622V25.122H152.289V24.622ZM152.748 24.649V24.149C152.625 24.149 152.49 24.1413 152.344 24.1251L152.289 24.622L152.234 25.1189C152.412 25.1387 152.583 25.149 152.748 25.149V24.649ZM152.883 24.649V24.149H152.748V24.649V25.149H152.883V24.649ZM153.261 24.46H152.761C152.761 24.404 152.776 24.3327 152.821 24.2653C152.864 24.2011 152.915 24.1684 152.943 24.1545C152.969 24.1416 152.981 24.1416 152.966 24.144C152.953 24.1462 152.926 24.149 152.883 24.149V24.649V25.149C153.035 25.149 153.223 25.1327 153.39 25.049C153.481 25.0036 153.579 24.9315 153.653 24.82C153.73 24.7054 153.761 24.579 153.761 24.46H153.261ZM152.883 24.244V24.744C152.924 24.744 152.946 24.747 152.955 24.7487C152.964 24.7505 152.948 24.7488 152.918 24.7321C152.886 24.7137 152.841 24.6777 152.805 24.6174C152.77 24.557 152.761 24.4989 152.761 24.46H153.261H153.761C153.761 24.2068 153.632 23.988 153.415 23.8639C153.239 23.7636 153.04 23.744 152.883 23.744V24.244ZM151.614 24.055L151.133 24.1924C151.21 24.4601 151.441 24.5663 151.523 24.6C151.635 24.6463 151.763 24.6732 151.885 24.6913C152.133 24.7283 152.471 24.744 152.883 24.744V24.244V23.744C152.485 23.744 152.206 23.7282 152.032 23.7022C151.99 23.696 151.958 23.6897 151.935 23.6841C151.911 23.6784 151.902 23.6747 151.904 23.6753C151.905 23.6759 151.911 23.6785 151.921 23.6839C151.931 23.6893 151.946 23.6991 151.965 23.7147C152.002 23.7451 152.064 23.8102 152.095 23.9176L151.614 24.055ZM151.479 17.9508L150.979 17.9515C150.982 19.8436 150.995 21.3018 151.017 22.3244C151.028 22.8352 151.042 23.2411 151.059 23.5396C151.067 23.6886 151.076 23.815 151.087 23.9165C151.096 24.0067 151.109 24.1113 151.134 24.1961L151.614 24.055L152.094 23.9139C152.097 23.9268 152.091 23.905 152.082 23.8141C152.073 23.7345 152.065 23.6253 152.057 23.484C152.042 23.2019 152.028 22.8089 152.017 22.3023C151.995 21.2902 151.982 19.8401 151.979 17.9501L151.479 17.9508ZM151.479 7.882L150.979 7.88202L150.979 17.9508L151.479 17.9508L151.979 17.9508L151.979 7.88197L151.479 7.882ZM151.506 7.126L151.007 7.09481C150.989 7.38999 150.979 7.65281 150.979 7.882H151.479H151.979C151.979 7.67918 151.987 7.43801 152.005 7.15718L151.506 7.126ZM151.506 6.559H151.006V7.126H151.506H152.006V6.559H151.506ZM151.236 5.911V6.411C151.173 6.411 151.101 6.38895 151.042 6.34193C151.016 6.32139 151 6.30124 150.99 6.28732C150.985 6.28038 150.982 6.27481 150.98 6.27114C150.978 6.26748 150.977 6.2654 150.977 6.26531C150.977 6.26521 150.978 6.26674 150.979 6.27018C150.98 6.2736 150.981 6.27861 150.983 6.28539C150.986 6.29916 150.99 6.31848 150.994 6.34428C151.001 6.39661 151.006 6.46719 151.006 6.559H151.506H152.006C152.006 6.32333 151.984 6.08134 151.9 5.88069C151.856 5.77541 151.785 5.65581 151.666 5.56106C151.54 5.46005 151.389 5.411 151.236 5.411V5.911ZM151.047 5.965L151.271 6.41221C151.285 6.40504 151.29 6.4041 151.286 6.40526C151.282 6.40641 151.264 6.411 151.236 6.411V5.911V5.411C151.076 5.411 150.934 5.4627 150.823 5.51779L151.047 5.965ZM148.563 6.721L148.546 7.22072C149.217 7.24306 150.141 6.94096 151.259 6.4179L151.047 5.965L150.835 5.51209C149.721 6.03304 148.989 6.23494 148.58 6.22128L148.563 6.721ZM147.591 6.694L147.577 7.19381L148.549 7.22081L148.563 6.721L148.577 6.22119L147.605 6.19419L147.591 6.694ZM147.294 6.937H147.794C147.794 6.94647 147.793 6.97754 147.776 7.01933C147.757 7.06419 147.726 7.10773 147.685 7.14173C147.608 7.20494 147.547 7.194 147.591 7.194V6.694V6.194C147.437 6.194 147.228 6.22356 147.052 6.36777C146.856 6.5277 146.794 6.74948 146.794 6.937H147.294ZM147.645 7.18V6.68C147.614 6.68 147.602 6.67714 147.604 6.67762C147.606 6.6781 147.632 6.68419 147.666 6.70815C147.704 6.73435 147.741 6.77443 147.766 6.8264C147.79 6.87596 147.794 6.91732 147.794 6.937H147.294H146.794C146.794 7.15574 146.883 7.3824 147.097 7.53034C147.278 7.65524 147.486 7.68 147.645 7.68V7.18ZM148.59 7.099L148.539 6.60165C148.004 6.65699 147.721 6.68 147.645 6.68V7.18V7.68C147.785 7.68 148.132 7.64901 148.641 7.59634L148.59 7.099ZM149.076 7.477L149.54 7.29131C149.466 7.10645 149.355 6.92089 149.18 6.78532C148.994 6.64067 148.774 6.58195 148.548 6.60073L148.59 7.099L148.632 7.59727C148.632 7.59725 148.629 7.59748 148.624 7.59704C148.619 7.59658 148.612 7.59549 148.605 7.59326C148.588 7.58841 148.574 7.5807 148.567 7.57468C148.56 7.56942 148.562 7.5696 148.572 7.58317C148.581 7.59707 148.595 7.62206 148.612 7.66269L149.076 7.477ZM149.265 10.015H149.765C149.765 9.32511 149.749 8.75784 149.716 8.31737C149.685 7.89571 149.635 7.53494 149.542 7.29578L149.076 7.477L148.61 7.65822C148.643 7.74306 148.688 7.96728 148.719 8.39163C148.749 8.79716 148.765 9.33689 148.765 10.015H149.265ZM149.265 14.227H149.765V10.015H149.265H148.765V14.227H149.265ZM146.511 12.904V13.404C147.598 13.404 148.35 13.7852 148.854 14.512L149.265 14.227L149.676 13.942C148.956 12.9048 147.872 12.404 146.511 12.404V12.904ZM142.663 14.632L143.044 14.9562C143.925 13.9216 145.066 13.404 146.511 13.404V12.904V12.404C144.788 12.404 143.364 13.0384 142.283 14.3078L142.663 14.632ZM141.192 19.141H141.692C141.692 17.378 142.156 15.9986 143.044 14.9562L142.663 14.632L142.283 14.3078C141.209 15.5694 140.692 17.196 140.692 19.141H141.192ZM142.663 23.5825L143.045 23.2598C142.154 22.2051 141.692 20.8457 141.692 19.141H141.192H140.692C140.692 21.0363 141.211 22.6379 142.282 23.9052L142.663 23.5825ZM146.403 25.324V24.824C145.039 24.824 143.932 24.309 143.045 23.2598L142.663 23.5825L142.282 23.9052C143.357 25.178 144.743 25.824 146.403 25.824V25.324ZM149.157 24.217L148.812 23.8551C148.13 24.5052 147.335 24.824 146.403 24.824V25.324V25.824C147.594 25.824 148.636 25.4048 149.502 24.5789L149.157 24.217ZM149.13 25.054L149.63 25.0701L149.657 24.2331L149.157 24.217L148.657 24.2009L148.63 25.0379L149.13 25.054ZM149.373 25.378V24.878C149.388 24.878 149.424 24.8804 149.47 24.9008C149.519 24.9225 149.561 24.9568 149.591 24.997C149.644 25.0677 149.63 25.1139 149.63 25.054H149.13H148.63C148.63 25.2101 148.657 25.4183 148.791 25.597C148.945 25.8027 149.17 25.878 149.373 25.878V25.378ZM146.673 24.838V24.338C146.348 24.338 146.014 24.2267 145.662 23.9645L145.363 24.3655L145.065 24.7665C145.559 25.1343 146.098 25.338 146.673 25.338V24.838ZM148.185 24.3385L147.888 23.9366C147.523 24.2061 147.124 24.338 146.673 24.338V24.838V25.338C147.338 25.338 147.947 25.1369 148.482 24.7404L148.185 24.3385ZM149.062 23.137L148.582 22.9984C148.482 23.3456 148.263 23.6587 147.888 23.9366L148.185 24.3385L148.482 24.7404C149.007 24.3523 149.373 23.8644 149.543 23.2756L149.062 23.137ZM149.265 17.683H148.765C148.765 19.2646 148.748 20.504 148.715 21.4039C148.698 21.8542 148.677 22.2149 148.653 22.4888C148.628 22.7738 148.601 22.9323 148.582 22.9984L149.062 23.137L149.543 23.2756C149.591 23.1077 149.624 22.8635 149.649 22.577C149.676 22.2793 149.697 21.8998 149.714 21.4411C149.748 20.523 149.765 19.2694 149.765 17.683H149.265ZM148.698 14.362L148.303 14.669C148.415 14.8131 148.54 15.1119 148.63 15.6409C148.718 16.156 148.765 16.8339 148.765 17.683H149.265H149.765C149.765 16.8041 149.717 16.0645 149.616 15.4726C149.517 14.8946 149.359 14.3969 149.093 14.055L148.698 14.362ZM146.835 13.444V13.944C147.433 13.944 147.912 14.1757 148.306 14.6729L148.698 14.362L149.09 14.0511C148.512 13.3243 147.749 12.944 146.835 12.944V13.444ZM144.513 14.956L144.947 15.2041C145.455 14.316 146.08 13.944 146.835 13.944V13.444V12.944C145.646 12.944 144.723 13.58 144.079 14.7079L144.513 14.956ZM143.649 19.006H144.149C144.149 17.3638 144.43 16.1097 144.947 15.2041L144.513 14.956L144.079 14.7079C143.444 15.8183 143.149 17.2642 143.149 19.006H143.649ZM144.405 23.164L144.863 22.9636C144.393 21.8902 144.149 20.5761 144.149 19.006H143.649H143.149C143.149 20.6759 143.409 22.1338 143.947 23.3644L144.405 23.164ZM145.363 24.3655L145.662 23.9645C145.309 23.7012 145.043 23.3691 144.862 22.9609L144.405 23.164L143.948 23.3671C144.199 23.9309 144.572 24.3998 145.065 24.7665L145.363 24.3655Z" fill="black"/>
</g>
<path fill-rule="evenodd" clip-rule="evenodd" d="M99 30H154V34H100.539L99 30Z" fill="#C7E3DD"/>
<defs>
<filter id="filter0_d_1_1958" x="84.852" y="5.22379" width="72.909" height="28.6542" filterUnits="userSpaceOnUse" color-interpolation-filters="sRGB">
<feFlood flood-opacity="0" result="BackgroundImageFix"/>
<feColorMatrix in="SourceAlpha" type="matrix" values="0 0 0 0 0 0 0 0 0 0 0 0 0 0 0 0 0 0 127 0" result="hardAlpha"/>
<feOffset dy="4"/>
<feGaussianBlur stdDeviation="2"/>
<feComposite in2="hardAlpha" operator="out"/>
<feColorMatrix type="matrix" values="0 0 0 0 0 0 0 0 0 0 0 0 0 0 0 0 0 0 0.25 0"/>
<feBlend mode="normal" in2="BackgroundImageFix" result="effect1_dropShadow_1_1958"/>
<feBlend mode="normal" in="SourceGraphic" in2="effect1_dropShadow_1_1958" result="shape"/>
</filter>
</defs>
</svg>
