<svg width="221" height="221" viewBox="0 0 221 221" fill="none" xmlns="http://www.w3.org/2000/svg">
<g filter="url(#filter0_d_1_2302)">
<circle cx="110.024" cy="100.529" r="90" fill="white"/>
</g>
<path d="M104.774 191.386C94.0237 190.738 91.3775 189.93 94.6853 190.253C103.555 190.871 112.462 190.762 121.314 189.93C136.112 188.558 150.553 184.672 163.985 178.444C174.747 173.189 184.848 166.729 194.087 159.195C200.868 153.695 206.491 149.651 209.799 149.651C209.965 149.651 210.296 149.812 210.461 149.812C213.107 150.298 211.949 155.636 203.349 162.915C194.914 170.033 179.532 179.253 157.866 185.4C143.217 189.513 128.053 191.606 112.812 191.618C109.72 191.618 107.01 191.525 104.774 191.386Z" fill="url(#paint0_linear_1_2302)"/>
<path d="M176.719 161.136C169.111 169.871 161.503 175.695 161.999 176.665C162.33 177.636 174.073 173.106 185.154 163.077C196.401 153.048 198.551 142.21 194.581 142.695C190.446 142.857 184.492 152.562 176.719 161.136Z" fill="#DA9BC5"/>
<path d="M101.279 192.194C98.7371 191.965 96.0329 191.643 93.0277 191.224H92.8623C87.4908 190.637 82.1794 189.609 76.9845 188.15C75.3305 187.665 74.0074 187.18 72.8496 186.856C70.2033 185.886 68.2186 185.238 67.2263 184.753C66.6375 184.447 65.4055 183.405 65.4055 183.405C65.4055 183.405 64.7623 183.07 65.4057 182.386C66.0492 181.701 79.6792 188.866 92.3661 189.93C105.053 190.994 95.1778 190.253 96.0048 190.415C98.6511 190.577 101.463 190.738 104.274 190.738C111.229 190.714 118.161 189.954 124.949 188.474C132.023 186.733 138.983 184.572 145.788 182.003C151.584 179.978 157.222 177.546 162.658 174.724C163.981 173.915 165.47 173.106 166.959 172.297C168.447 171.489 169.77 170.518 171.259 169.871C172.377 169.345 173.539 168.912 174.732 168.577C174.732 168.577 175.063 168.415 175.89 169.224H176.386C176.505 169.259 176.617 169.314 176.717 169.386V170.842C175.724 173.268 167.951 178.606 163.816 180.709L159.847 182.65C153.845 185.434 147.587 187.655 141.157 189.283C137.518 190.091 133.715 190.738 130.076 191.224H129.91C127.264 191.547 124.618 191.871 122.302 192.033C121.672 192.091 121.052 192.145 120.443 192.194H101.279Z" fill="url(#paint1_linear_1_2302)"/>
<path d="M79.4722 101.062H90.1978C91.9424 100.998 95.9434 101.457 99.3257 103.824C101.911 105.634 106.417 107.467 108.673 108.265H125.777C127.178 108.265 128.982 108.54 130.503 109.516C132.147 110.569 133.293 112.345 133.293 114.853C133.293 115.22 133.278 115.583 133.249 115.937C136.707 114.379 140.752 112.429 144.413 110.631C146.251 109.728 148.009 108.855 149.542 108.095C152.101 106.824 154.031 105.866 154.652 105.603C156.316 104.896 158.479 104.277 160.663 104.509C162.974 104.754 165.168 105.949 166.636 108.551C167.895 110.783 167.759 112.999 166.829 114.863C165.952 116.621 164.419 117.994 162.934 118.957L162.84 119.018L162.741 119.067C151.944 124.466 128.539 137.248 123.558 140.178C118.09 143.394 111.676 142.243 109.632 141.876C109.527 141.857 109.433 141.84 109.351 141.826L109.203 141.8L87.0376 134.424H79.4722V138.026H57.7876C56.6832 138.026 55.7879 137.131 55.7876 136.026C55.7876 134.922 56.6831 134.026 57.7876 134.026H75.4722V99.2041H51.0894C49.9849 99.2041 49.0896 98.3084 49.0894 97.2041C49.0894 96.0995 49.9848 95.2041 51.0894 95.2041H79.4722V101.062ZM90.3247 105.061L90.2817 105.062H79.4722V130.424H87.686L110.18 137.91C110.201 137.914 110.222 137.917 110.243 137.921C112.31 138.282 117.386 139.168 121.53 136.73C126.579 133.761 149.931 121.007 160.847 115.542C161.956 114.807 162.82 113.938 163.25 113.077C163.637 112.3 163.706 111.497 163.153 110.517C162.353 109.098 161.333 108.603 160.24 108.486C159.018 108.357 157.585 108.703 156.215 109.284C155.7 109.503 154.012 110.341 151.646 111.516C150.075 112.296 148.203 113.226 146.176 114.222C141.186 116.673 135.357 119.472 131.256 121.162C130.925 121.298 130.579 121.337 130.248 121.296C129.009 122.004 127.544 122.236 126.063 122.236C125.439 122.236 124.302 122.232 122.865 122.228C118.506 122.213 111.384 122.191 107.413 122.234C106.643 122.377 105.556 122.691 104.675 123.165C103.629 123.728 103.504 124.152 103.499 124.238C103.429 125.34 102.48 126.179 101.377 126.11C100.275 126.041 99.4378 125.091 99.5063 123.989C99.6487 121.712 101.465 120.35 102.781 119.643C104.207 118.876 105.824 118.442 106.898 118.263L107.05 118.238L107.204 118.236C111.176 118.19 118.516 118.213 122.928 118.228C124.344 118.232 125.459 118.236 126.063 118.236C127.572 118.236 128.25 117.909 128.581 117.585C128.905 117.267 129.293 116.56 129.293 114.853C129.293 113.737 128.866 113.217 128.344 112.883C127.701 112.47 126.747 112.265 125.777 112.265H108.001L107.686 112.156C105.505 111.408 100.231 109.341 97.0317 107.102C94.5355 105.354 91.4372 105.012 90.3247 105.061ZM119.67 48C119.773 48.0004 119.876 48.0109 119.979 48.0273C120 48.0307 120.022 48.033 120.042 48.0371C120.076 48.0436 120.11 48.0523 120.143 48.0605C120.172 48.0678 120.202 48.0744 120.231 48.083C120.264 48.093 120.297 48.1054 120.331 48.1172C120.358 48.1269 120.386 48.1355 120.414 48.1465C120.449 48.1608 120.483 48.1778 120.518 48.1943C120.542 48.2058 120.567 48.2171 120.59 48.2295C120.619 48.2446 120.647 48.2617 120.675 48.2783C120.706 48.2965 120.738 48.314 120.768 48.334C120.774 48.3382 120.781 48.3424 120.788 48.3467C122.215 49.3182 124.873 50.832 128.068 52.0967C131.274 53.3657 134.884 54.33 138.255 54.3301H140.255V56.3301C140.255 70.1514 135.384 87.3371 120.792 97.3428C120.039 97.859 119.06 97.7884 118.389 97.2344C103.911 87.2166 99.0718 70.1017 99.0718 56.3281V54.3281H101.072C104.442 54.328 108.052 53.3645 111.257 52.0957C114.452 50.8312 117.11 49.3179 118.537 48.3467C118.541 48.3439 118.545 48.3416 118.549 48.3389C118.587 48.3137 118.626 48.29 118.665 48.2676C118.685 48.2556 118.706 48.2436 118.727 48.2324C118.753 48.2186 118.78 48.206 118.807 48.1934C118.842 48.1766 118.878 48.16 118.914 48.1455C118.934 48.1374 118.955 48.1305 118.975 48.123C119.014 48.1089 119.052 48.0946 119.091 48.083C119.12 48.0744 119.15 48.0678 119.179 48.0605C119.212 48.0523 119.245 48.0436 119.279 48.0371C119.301 48.0328 119.323 48.0299 119.345 48.0264C119.389 48.0193 119.434 48.0128 119.478 48.0088C119.481 48.0085 119.483 48.008 119.486 48.0078C119.541 48.003 119.597 48.0002 119.653 48H119.67ZM119.662 52.374C117.946 53.426 115.515 54.7126 112.729 55.8154C109.849 56.9555 106.495 57.9407 103.104 58.2373C103.524 70.5113 108.037 84.5923 119.667 93.2305C131.292 84.5897 135.804 70.5116 136.223 58.2393C132.831 57.9426 129.476 56.9559 126.595 55.8154C123.809 54.7124 121.377 53.4262 119.662 52.374ZM126.591 64.417C127.372 63.636 128.638 63.6362 129.419 64.417C130.2 65.198 130.2 66.4641 129.419 67.2451L120.496 76.1689C119.763 76.9011 118.605 76.9465 117.82 76.3057L117.667 76.1689L113.525 72.0264C112.744 71.2453 112.744 69.9792 113.525 69.1982C114.306 68.4173 115.572 68.4175 116.353 69.1982L119.082 71.9268L126.591 64.417Z" fill="#00609C"/>
<defs>
<filter id="filter0_d_1_2302" x="0.0239258" y="0.528564" width="220" height="220" filterUnits="userSpaceOnUse" color-interpolation-filters="sRGB">
<feFlood flood-opacity="0" result="BackgroundImageFix"/>
<feColorMatrix in="SourceAlpha" type="matrix" values="0 0 0 0 0 0 0 0 0 0 0 0 0 0 0 0 0 0 127 0" result="hardAlpha"/>
<feOffset dy="10"/>
<feGaussianBlur stdDeviation="10"/>
<feColorMatrix type="matrix" values="0 0 0 0 0.596078 0 0 0 0 0.792157 0 0 0 0 0.921569 0 0 0 1 0"/>
<feBlend mode="normal" in2="BackgroundImageFix" result="effect1_dropShadow_1_2302"/>
<feBlend mode="normal" in="SourceGraphic" in2="effect1_dropShadow_1_2302" result="shape"/>
</filter>
<linearGradient id="paint0_linear_1_2302" x1="208.051" y1="172.429" x2="97.7839" y2="167.288" gradientUnits="userSpaceOnUse">
<stop stop-color="#97CAEB"/>
<stop offset="0.0667423" stop-color="#97CAEB"/>
<stop offset="0.1774" stop-color="#7CB7DD"/>
<stop offset="0.4178" stop-color="#4791C1"/>
<stop offset="0.6263" stop-color="#2076AD"/>
<stop offset="0.7924" stop-color="#0966A0"/>
<stop offset="0.8953" stop-color="#00609C"/>
<stop offset="1" stop-color="#00609C"/>
</linearGradient>
<linearGradient id="paint1_linear_1_2302" x1="-0.749069" y1="180.492" x2="176.606" y2="180.492" gradientUnits="userSpaceOnUse">
<stop stop-color="#97CAEB"/>
<stop offset="0.2666" stop-color="#97CAEB"/>
<stop offset="0.3397" stop-color="#7CB7DD"/>
<stop offset="0.4986" stop-color="#4791C1"/>
<stop offset="0.6363" stop-color="#2076AD"/>
<stop offset="0.7461" stop-color="#0966A0"/>
<stop offset="0.8141" stop-color="#00609C"/>
<stop offset="1" stop-color="#00609C"/>
</linearGradient>
</defs>
</svg>
