<svg width="220" height="220" viewBox="0 0 220 220" fill="none" xmlns="http://www.w3.org/2000/svg">
<g filter="url(#filter0_d_1_2289)">
<circle cx="110" cy="100" r="90" fill="white"/>
</g>
<path d="M105.516 190.281C94.7658 189.634 92.1195 188.825 95.4274 189.149C104.297 189.766 113.204 189.658 122.056 188.825C136.854 187.454 151.295 183.567 164.727 177.34C175.489 172.084 185.591 165.625 194.829 158.09C201.61 152.59 207.233 148.546 210.541 148.546C210.707 148.546 211.038 148.708 211.203 148.708C213.849 149.193 212.691 154.531 204.091 161.811C195.656 168.928 180.274 178.149 158.608 184.296C143.959 188.409 128.795 190.502 113.554 190.514C110.462 190.514 107.752 190.42 105.516 190.281Z" fill="url(#paint0_linear_1_2289)"/>
<path d="M177.461 160.031C169.853 168.767 162.245 174.59 162.741 175.561C163.072 176.531 174.815 172.002 185.896 161.973C197.143 151.943 199.293 141.105 195.324 141.59C191.189 141.752 185.235 151.458 177.461 160.031Z" fill="#DA9BC5"/>
<path d="M102.021 191.09C99.4791 190.86 96.7749 190.538 93.7697 190.119H93.6044C88.2329 189.533 82.9214 188.505 77.7265 187.046C76.0726 186.56 74.7494 186.075 73.5917 185.752C70.9454 184.781 68.9607 184.134 67.9683 183.649C67.3795 183.343 66.1476 182.301 66.1476 182.301C66.1476 182.301 65.5043 181.966 66.1478 181.281C66.7912 180.597 80.4212 187.761 93.1081 188.825C105.795 189.889 95.9199 189.149 96.7468 189.31C99.3931 189.472 102.205 189.634 105.016 189.634C111.971 189.609 118.903 188.85 125.691 187.369C132.765 185.629 139.725 183.468 146.53 180.899C152.326 178.874 157.964 176.441 163.4 173.619C164.723 172.811 166.212 172.002 167.701 171.193C169.189 170.384 170.512 169.413 172.001 168.766C173.119 168.24 174.281 167.807 175.474 167.472C175.474 167.472 175.805 167.311 176.632 168.119H177.128C177.247 168.155 177.359 168.209 177.459 168.281V169.737C176.466 172.163 168.693 177.502 164.558 179.605L160.589 181.546C154.587 184.33 148.329 186.551 141.899 188.178C138.26 188.987 134.457 189.634 130.818 190.119H130.652C128.006 190.443 125.36 190.766 123.044 190.928C122.414 190.986 121.794 191.04 121.185 191.09H102.021Z" fill="url(#paint1_linear_1_2289)"/>
<path d="M82.1504 100.363H92.876C94.6206 100.299 98.6217 100.758 102.004 103.125C104.589 104.935 109.095 106.766 111.352 107.565H128.455C129.856 107.565 131.66 107.841 133.182 108.817C134.825 109.87 135.972 111.645 135.972 114.153C135.972 114.521 135.956 114.883 135.927 115.236C139.386 113.679 143.43 111.73 147.091 109.932C148.929 109.029 150.688 108.156 152.22 107.396C154.78 106.125 156.709 105.167 157.33 104.903C158.994 104.197 161.158 103.578 163.341 103.81C165.652 104.055 167.846 105.249 169.314 107.852C170.574 110.084 170.437 112.298 169.507 114.163C168.63 115.921 167.098 117.295 165.612 118.258L165.519 118.318L165.419 118.368C154.623 123.766 131.217 136.549 126.236 139.479C120.768 142.695 114.354 141.543 112.311 141.176C112.205 141.157 112.111 141.14 112.029 141.126L111.881 141.101L89.7158 133.725H82.1504V137.327H60.4658C59.3614 137.327 58.466 136.432 58.4658 135.327C58.4658 134.223 59.3613 133.327 60.4658 133.327H78.1504V98.505H53.7676C52.6632 98.505 51.7678 97.6094 51.7676 96.505C51.7676 95.4004 52.663 94.505 53.7676 94.505H82.1504V100.363ZM93.0029 104.361L92.96 104.363H82.1504V129.725H90.3643L112.858 137.21C112.879 137.214 112.9 137.217 112.921 137.221C114.988 137.582 120.064 138.468 124.208 136.03C129.257 133.06 152.609 120.308 163.525 114.843C164.635 114.108 165.498 113.239 165.928 112.378C166.315 111.601 166.384 110.797 165.831 109.817C165.031 108.398 164.011 107.903 162.918 107.787C161.697 107.657 160.263 108.004 158.894 108.585C158.378 108.804 156.691 109.641 154.324 110.817C152.753 111.597 150.882 112.526 148.854 113.522C143.864 115.973 138.036 118.772 133.935 120.462C133.603 120.599 133.257 120.638 132.925 120.596C131.687 121.304 130.222 121.536 128.741 121.536C128.117 121.536 126.98 121.533 125.543 121.528C121.185 121.514 114.062 121.49 110.091 121.534C109.322 121.677 108.235 121.992 107.354 122.466C106.306 123.029 106.182 123.453 106.177 123.539C106.108 124.642 105.158 125.479 104.056 125.41C102.953 125.341 102.116 124.391 102.185 123.289C102.327 121.012 104.143 119.65 105.459 118.942C106.885 118.176 108.503 117.743 109.576 117.564L109.729 117.538L109.882 117.536C113.854 117.49 121.195 117.514 125.606 117.528C127.022 117.533 128.137 117.536 128.741 117.536C130.251 117.536 130.928 117.21 131.259 116.886C131.583 116.568 131.972 115.862 131.972 114.153C131.972 113.038 131.544 112.518 131.022 112.184C130.379 111.771 129.425 111.565 128.455 111.565H110.68L110.364 111.456C108.183 110.708 102.909 108.641 99.71 106.401C97.2137 104.654 94.1154 104.313 93.0029 104.361ZM124.138 49.1153C127.187 47.1563 131.235 46.2111 136.307 48.0382C142.886 50.4083 145.555 56.0014 145.429 61.756C145.305 67.3984 142.534 73.3736 138.109 77.2657C137.725 77.6036 137.345 77.9386 136.969 78.2696C129.983 84.4169 124.365 89.3576 121.018 91.5587C121.006 91.5664 120.995 91.5737 120.983 91.5812C120.982 91.5822 120.981 91.5841 120.979 91.5851C120.973 91.5895 120.965 91.5925 120.958 91.5968C120.911 91.6269 120.863 91.6558 120.813 91.6818C120.788 91.6951 120.762 91.7067 120.736 91.7189C120.706 91.7332 120.676 91.7481 120.645 91.7609C120.602 91.7784 120.559 91.7933 120.516 91.8077C120.499 91.8133 120.483 91.8192 120.466 91.8243C120.428 91.8358 120.39 91.8445 120.353 91.8536C120.323 91.8607 120.294 91.8684 120.265 91.8741C120.237 91.8794 120.21 91.8837 120.183 91.8878C120.146 91.8934 120.109 91.898 120.072 91.9015C120.044 91.9042 120.015 91.9059 119.986 91.9073C119.952 91.9091 119.918 91.9112 119.884 91.9112C119.849 91.9112 119.815 91.9092 119.78 91.9073C119.752 91.9059 119.724 91.9041 119.695 91.9015C119.658 91.898 119.622 91.8934 119.585 91.8878C119.558 91.8837 119.53 91.8794 119.503 91.8741C119.472 91.8682 119.442 91.861 119.412 91.8536C119.376 91.8449 119.34 91.8361 119.305 91.8253C119.282 91.8184 119.26 91.8096 119.237 91.8019C119.2 91.7891 119.163 91.7769 119.126 91.7618C119.085 91.745 119.045 91.7257 119.005 91.7062C118.99 91.6987 118.974 91.6925 118.959 91.6847C118.887 91.6472 118.817 91.6051 118.75 91.5587C115.402 89.3575 109.785 84.4167 102.799 78.2696C102.423 77.9386 102.042 77.6036 101.658 77.2657C97.2335 73.3736 94.4615 67.3984 94.3379 61.756C94.212 56.0014 96.8815 50.4083 103.461 48.0382C108.533 46.2112 112.581 47.1564 115.631 49.1153C117.414 50.2612 118.816 51.7302 119.884 53.0646C120.951 51.73 122.354 50.2613 124.138 49.1153ZM134.951 51.8019C131.112 50.4188 128.359 51.1577 126.3 52.4806C124.124 53.8783 122.61 56.0022 121.543 57.588C121.537 57.5975 121.529 57.606 121.522 57.6153C121.493 57.6576 121.463 57.6993 121.43 57.7394C121.414 57.7589 121.396 57.7772 121.38 57.796C121.351 57.8281 121.323 57.8603 121.292 57.8907C121.274 57.9088 121.254 57.9252 121.235 57.9425C121.208 57.9678 121.181 57.9938 121.151 58.0177C121.114 58.0487 121.074 58.0767 121.034 58.1046C121.023 58.1127 121.013 58.1231 121.001 58.131C120.999 58.1322 120.997 58.1327 120.995 58.1339C120.952 58.1626 120.907 58.1878 120.862 58.213C120.847 58.2214 120.833 58.2314 120.818 58.2394C120.785 58.2569 120.751 58.2717 120.717 58.2872C120.69 58.2996 120.664 58.3133 120.637 58.3243C120.517 58.3727 120.394 58.4101 120.268 58.4347C120.15 58.4576 120.031 58.4683 119.912 58.4698C119.903 58.47 119.893 58.4708 119.884 58.4708C119.875 58.4708 119.866 58.47 119.856 58.4698C119.576 58.4662 119.295 58.4029 119.03 58.2775C119.003 58.2646 118.975 58.2535 118.948 58.2394C118.932 58.2308 118.917 58.2201 118.901 58.2111C118.858 58.1866 118.815 58.1617 118.773 58.1339C118.772 58.1327 118.769 58.1322 118.768 58.131C118.756 58.123 118.745 58.1128 118.733 58.1046C118.693 58.0764 118.653 58.048 118.615 58.0167C118.588 57.9947 118.564 57.9706 118.538 57.9474C118.517 57.9282 118.495 57.91 118.475 57.8898C118.443 57.8581 118.413 57.8245 118.384 57.7911C118.369 57.7742 118.353 57.7579 118.339 57.7403C118.307 57.7019 118.278 57.6616 118.25 57.6212C118.242 57.6099 118.232 57.5995 118.225 57.588C117.157 56.0023 115.644 53.8782 113.469 52.4806C111.409 51.1577 108.656 50.4187 104.816 51.8019C100.164 53.4778 98.2417 57.278 98.3379 61.6691C98.4366 66.1722 100.701 71.0965 104.301 74.2628C104.586 74.5138 104.868 74.7626 105.148 75.0089C111.629 80.71 116.672 85.1431 119.884 87.4757C123.095 85.1432 128.139 80.7101 134.619 75.0089C134.899 74.7626 135.182 74.5138 135.467 74.2628C139.066 71.0965 141.331 66.1723 141.43 61.6691C141.526 57.278 139.603 53.4778 134.951 51.8019Z" fill="#00609C"/>
<defs>
<filter id="filter0_d_1_2289" x="0" y="0" width="220" height="220" filterUnits="userSpaceOnUse" color-interpolation-filters="sRGB">
<feFlood flood-opacity="0" result="BackgroundImageFix"/>
<feColorMatrix in="SourceAlpha" type="matrix" values="0 0 0 0 0 0 0 0 0 0 0 0 0 0 0 0 0 0 127 0" result="hardAlpha"/>
<feOffset dy="10"/>
<feGaussianBlur stdDeviation="10"/>
<feColorMatrix type="matrix" values="0 0 0 0 0.596078 0 0 0 0 0.792157 0 0 0 0 0.921569 0 0 0 1 0"/>
<feBlend mode="normal" in2="BackgroundImageFix" result="effect1_dropShadow_1_2289"/>
<feBlend mode="normal" in="SourceGraphic" in2="effect1_dropShadow_1_2289" result="shape"/>
</filter>
<linearGradient id="paint0_linear_1_2289" x1="208.793" y1="171.324" x2="98.526" y2="166.184" gradientUnits="userSpaceOnUse">
<stop stop-color="#97CAEB"/>
<stop offset="0.0667423" stop-color="#97CAEB"/>
<stop offset="0.1774" stop-color="#7CB7DD"/>
<stop offset="0.4178" stop-color="#4791C1"/>
<stop offset="0.6263" stop-color="#2076AD"/>
<stop offset="0.7924" stop-color="#0966A0"/>
<stop offset="0.8953" stop-color="#00609C"/>
<stop offset="1" stop-color="#00609C"/>
</linearGradient>
<linearGradient id="paint1_linear_1_2289" x1="-0.00695404" y1="179.388" x2="177.348" y2="179.388" gradientUnits="userSpaceOnUse">
<stop stop-color="#97CAEB"/>
<stop offset="0.2666" stop-color="#97CAEB"/>
<stop offset="0.3397" stop-color="#7CB7DD"/>
<stop offset="0.4986" stop-color="#4791C1"/>
<stop offset="0.6363" stop-color="#2076AD"/>
<stop offset="0.7461" stop-color="#0966A0"/>
<stop offset="0.8141" stop-color="#00609C"/>
<stop offset="1" stop-color="#00609C"/>
</linearGradient>
</defs>
</svg>
