<svg width="139" height="139" viewBox="0 0 139 139" fill="none" xmlns="http://www.w3.org/2000/svg">
<path fill-rule="evenodd" clip-rule="evenodd" d="M128.837 8.12003C128.837 8.19177 128.784 8.12003 128.784 8.12003L128.837 7.9663C128.837 8.04829 128.893 8.12003 128.837 8.12003" fill="white"/>
<path fill-rule="evenodd" clip-rule="evenodd" d="M126.198 12.9533C126.252 13.3245 126.139 13.772 125.912 13.8494C125.679 13.994 125.512 13.994 125.342 13.9166C125.115 13.6957 125.005 13.3917 125.118 13.0979C125.177 12.7938 125.405 12.4955 125.687 12.5001C125.915 12.5001 126.146 12.7267 126.198 12.9533" fill="white"/>
<path fill-rule="evenodd" clip-rule="evenodd" d="M42.5997 43.6586C41.2342 44.3237 40.4251 46.1069 40.1352 47.8218C39.8444 49.5379 40.0076 51.3302 40.1716 53.1271C40.617 55.8156 41.1196 58.5042 42.6483 60.6825C43.0997 61.2804 43.8384 61.4398 44.466 61.1403C45.0364 60.7748 45.6084 60.0323 45.6128 59.1362C45.5025 58.3892 45.2777 57.6376 44.9357 56.9623C44.2021 55.9124 43.8636 54.5676 43.7568 53.2239C43.7056 51.6582 44.1093 50.3179 44.6275 49.0505C45.032 47.7114 45.4365 45.8416 44.8159 44.4204C44.3089 43.5243 43.4009 43.2874 42.5997 43.6586M45.6526 44.0543C45.9356 44.7284 46.1006 45.4754 46.0424 46.2998C45.9244 47.4898 45.5198 48.608 45.1743 49.7262C44.8297 50.6167 44.5432 51.5129 44.5354 52.5594C44.4191 53.8268 44.7559 55.0213 45.3766 55.9994C45.9973 57.1222 46.5633 58.3942 46.3324 59.8882C46.0962 61.1556 45.1231 62.2681 44.1569 62.5619C42.5588 62.7748 41.373 60.8231 40.524 59.2516C40.1308 58.3509 39.794 57.3773 39.5144 56.332C38.8417 53.7152 38.57 50.7283 38.9198 47.8177L39.2679 46.4786C39.787 44.9117 40.7046 43.1239 42.0154 42.6138C42.6413 42.3917 43.3271 42.2471 44.0068 42.402C44.6899 42.5557 45.2004 43.3027 45.6526 44.0543" fill="white"/>
<path fill-rule="evenodd" clip-rule="evenodd" d="M13.4069 80.7926C13.3999 82.1374 12.9989 83.25 12.7636 84.5219C12.7636 85.2689 12.7602 85.9385 12.8704 86.6138L12.8669 87.8812C12.6308 89.1486 12.5145 90.5651 12.1646 91.8314C12.1646 91.9088 12.11 91.9088 12.0544 91.8314L11.9962 91.4613C12.1178 90.1894 12.1212 88.7716 12.1273 87.4279C12.0735 86.7584 12.1907 86.0888 12.195 85.3418L12.4294 83.1008C12.6612 82.2821 12.8339 81.4622 13.0102 80.566C13.1239 80.2677 13.4069 80.5706 13.4069 80.7926" fill="white"/>
<path fill-rule="evenodd" clip-rule="evenodd" d="M16.7597 81.7883C16.5323 81.7837 16.363 82.155 16.304 82.3816C16.1304 83.0511 16.3561 83.7253 16.6937 84.2502C17.0904 84.4005 17.4906 84.1067 17.7771 83.7355C18.008 83.2094 17.4941 83.1331 17.324 82.8336L16.7597 81.7883ZM18.4203 79.8551C18.0783 79.928 17.7328 80.371 17.619 80.8914C17.7293 81.4208 17.5565 82.0858 18.067 82.3125C18.2953 82.4673 18.5227 82.317 18.7502 82.0961C19.0366 81.6531 19.0948 81.0553 18.9845 80.4575C18.9307 80.1546 18.7024 79.8551 18.4203 79.8551V79.8551ZM19.5002 79.86C19.896 80.4624 19.9481 81.4314 19.6617 82.101C19.3752 82.6259 19.0297 83.2966 18.5184 83.2146C18.3465 83.6622 18.4012 84.1825 18.0601 84.4809C17.4871 84.925 16.8621 85.2962 16.1789 84.9922C15.6685 84.6881 15.3855 83.9423 15.3898 83.1953C15.4471 82.2991 15.7935 81.6239 16.2492 81.108L16.7631 80.8871L16.8222 80.2893C17.1121 79.5468 17.6816 79.1039 18.3101 79.1084C18.7649 79.1084 19.2172 79.335 19.5002 79.86V79.86Z" fill="white"/>
<path fill-rule="evenodd" clip-rule="evenodd" d="M15.1041 83.2656C15.0971 85.4292 14.4608 87.2944 14.1709 89.3077L13.8731 92.5177C13.8697 93.0381 13.8106 93.5585 13.6388 94.006C13.3549 94.0835 13.2412 93.7794 13.1274 93.5528L13.0728 93.1816C13.0797 91.4667 13.1422 89.8235 13.4912 88.2578C13.723 87.0678 14.295 86.0213 14.4174 84.7539C14.5312 84.1618 14.4791 83.4102 14.7612 82.8944C14.9348 82.7452 15.0494 82.9673 15.1041 83.2656" fill="white"/>
<path fill-rule="evenodd" clip-rule="evenodd" d="M17.7134 85.6006C17.591 87.6867 17.0146 89.552 16.4937 91.4115C16.1474 92.6072 16.2542 94.0237 16.4781 95.2228C16.5345 95.5223 16.6474 95.8206 16.5884 96.119C16.42 96.1918 16.1917 96.1918 16.1344 95.9652C15.7411 94.6215 15.4069 93.2722 15.5831 91.7053C15.9312 89.47 17.137 87.7596 17.4304 85.4469C17.4304 85.1474 17.7134 85.4469 17.7134 85.6006" fill="white"/>
<path fill-rule="evenodd" clip-rule="evenodd" d="M51.8527 88.2228C51.5627 88.5166 51.1079 88.9653 51.1079 89.5574C51.2719 90.0823 51.4959 90.9113 52.0107 91.0605C52.5801 91.1379 52.9803 90.5401 53.2668 90.0254C53.4985 89.4321 53.1018 88.9026 53.0463 88.3765C52.7633 87.929 52.2494 88.1499 51.8527 88.2228M50.7875 83.5153C50.442 84.03 50.383 84.9273 50.6113 85.524C50.7763 85.9772 51.0627 86.4259 51.4013 86.4976C51.8561 86.5796 52.1469 86.0592 52.3753 85.6105C52.6617 85.0138 52.5506 84.1939 52.2685 83.669C51.9846 82.9949 51.133 82.9949 50.7875 83.5153M53.0063 84.0493C53.344 84.8737 53.1687 85.9919 52.7676 86.657C52.7086 87.0327 53.1088 87.0327 53.2789 87.2639C53.7294 88.0109 54.068 88.9834 53.8926 90.0298C53.8327 90.5502 53.7155 91.1424 53.318 91.4419C52.8041 91.8119 52.1217 92.256 51.5514 91.8028C50.8717 91.4271 50.534 90.5263 50.4785 89.6347C50.3144 88.8877 50.4863 88.0633 51.001 87.4711C51.001 87.1728 50.659 87.1671 50.5488 86.8688C49.9793 86.1172 49.5861 85.1436 49.8178 84.0254C49.935 83.505 50.1078 83.0575 50.4498 82.7637C50.85 82.4687 51.3648 82.3196 51.8162 82.4687C52.3856 82.701 52.837 83.3034 53.0063 84.0493" fill="white"/>
<path fill-rule="evenodd" clip-rule="evenodd" d="M55.2538 91.6803C55.989 92.8031 56.2677 94.1525 56.7747 95.347L57.1132 96.5427C57.45 97.3705 57.7886 98.2667 58.4136 98.7973C58.865 99.3951 59.4336 99.9975 59.7722 100.672C59.7722 100.894 59.714 101.119 59.6541 101.265C59.0308 101.265 58.6341 100.661 58.1775 100.136C57.1601 98.8599 56.3667 97.4331 55.9196 95.79C55.529 94.0705 55.0819 92.4273 54.2329 91.0005L54.2885 90.7739C54.6887 90.9288 54.9708 91.3046 55.2538 91.6803" fill="white"/>
<path fill-rule="evenodd" clip-rule="evenodd" d="M117.623 94.2008C118.53 95.4773 118.981 96.9713 118.915 98.7636C118.857 99.3615 118.571 99.9536 118.735 100.629C118.955 101.901 119.635 102.874 120.202 103.848C120.202 103.997 120.202 104.074 120.145 104.146C119.235 103.322 118.276 102.195 117.938 100.773C117.774 99.7281 118.288 98.9083 118.122 97.8629C117.901 96.3644 117.85 94.8749 116.943 93.7476C116.943 93.5984 117.001 93.521 117.111 93.4492C117.34 93.6029 117.453 93.9742 117.623 94.2008" fill="white"/>
<path fill-rule="evenodd" clip-rule="evenodd" d="M53.3557 96.5945C54.3765 97.7993 55.3948 98.9995 56.2429 100.348C56.8089 101.399 57.4877 102.228 58.3402 102.824C59.019 103.057 59.6441 103.731 60.2691 104.256C60.3793 104.482 60.5521 104.781 60.4375 105.08C60.0963 104.854 59.8689 104.554 59.526 104.4C58.506 103.871 57.3671 103.716 56.5181 102.666C55.7802 101.837 55.2733 100.792 54.88 99.8137C54.314 98.6909 53.5197 97.6444 52.8999 96.5899C52.959 96.2905 53.242 96.4453 53.3557 96.5945" fill="white"/>
<path fill-rule="evenodd" clip-rule="evenodd" d="M14.192 97.8208C13.9645 97.9654 13.9645 98.3412 13.9602 98.635C13.9602 98.939 14.1885 99.0108 14.3022 99.1657C14.6408 99.2419 15.0956 99.2419 15.3274 98.9436C15.4958 98.799 15.3856 98.5724 15.3274 98.3503C15.1581 97.8254 14.5922 97.5988 14.192 97.8208M16.0149 97.8312C16.1278 98.1341 16.4117 98.4324 16.2936 98.8811C16.1217 99.4732 15.6061 99.8444 15.1503 99.9173C14.4671 100.134 13.8977 99.7579 13.5053 99.0838C13.277 98.5577 13.395 97.8118 13.5678 97.2914C13.9133 96.771 14.4819 96.853 14.9923 96.9293C15.3899 97.0067 15.7311 97.4542 16.0149 97.8312" fill="white"/>
<path fill-rule="evenodd" clip-rule="evenodd" d="M115.497 99.1877C115.324 99.4097 115.324 99.7081 115.379 100.084C115.434 100.3 115.548 100.609 115.776 100.682C115.944 100.682 116.117 100.686 116.234 100.46C116.345 100.238 116.463 99.8618 116.349 99.5634C116.239 99.043 115.78 98.8893 115.497 99.1877M116.859 99.7173C116.914 100.166 116.911 100.613 116.741 100.985C116.455 101.284 116.168 101.505 115.831 101.501C115.431 101.351 114.975 100.976 114.924 100.378C114.755 99.9303 114.924 99.4816 115.041 99.1058C115.217 98.7346 115.556 98.59 115.842 98.5182C116.466 98.3736 116.639 99.1969 116.859 99.7173" fill="white"/>
<path fill-rule="evenodd" clip-rule="evenodd" d="M79.638 99.8337C79.5833 100.21 79.1823 100.354 79.0651 100.73C78.4887 102.518 78.9358 104.608 79.8985 105.886L80.4098 106.638C80.1815 106.782 79.8394 106.705 79.6667 106.705C78.9288 106.7 78.7083 105.577 78.3663 104.903C77.973 103.409 78.0954 101.54 78.7821 100.281C79.013 100.056 79.2413 99.68 79.5833 99.762L79.638 99.8337Z" fill="white"/>
<path fill-rule="evenodd" clip-rule="evenodd" d="M89.3405 106.551C89.2268 106.7 89.0575 106.845 88.9985 107.067C89.113 107.143 89.2858 107.143 89.3952 107.071C89.3952 106.922 89.5167 106.623 89.3405 106.551V106.551ZM67.1462 105.949L67.0325 106.175C66.9188 106.469 66.6358 106.618 66.5732 106.989C66.8597 107.067 67.3155 107.216 67.4874 106.845C67.4292 106.551 67.3736 106.175 67.1462 105.949V105.949ZM22.8713 105.495C22.8123 105.424 22.6986 105.269 22.643 105.418C22.5849 105.939 22.2949 106.382 22.0119 106.758C21.8973 106.83 21.9529 106.98 22.0666 106.98C22.2949 106.985 22.5224 107.056 22.696 106.763C22.8088 106.387 22.9225 105.944 22.8713 105.495V105.495ZM19.742 105.323C19.5692 105.472 19.3409 105.694 19.3409 105.921C19.3965 106.142 19.5067 106.441 19.6795 106.518C19.9069 106.518 20.248 106.749 20.4173 106.45C20.531 106.224 20.5354 105.925 20.4763 105.776C20.4798 105.25 20.0241 105.178 19.742 105.323V105.323ZM127.882 105.167C127.767 105.24 127.536 105.318 127.65 105.539L128.385 106.965C128.499 107.043 128.557 106.965 128.613 106.893C128.784 106.445 128.962 105.925 128.789 105.4C128.506 105.245 128.168 105.173 127.882 105.167V105.167ZM130.783 105.116C130.666 105.563 131.008 105.79 131.008 106.165C131.121 106.465 131.003 107.057 131.404 107.135C131.801 106.768 131.801 106.021 131.804 105.347C131.698 104.749 131.066 105.044 130.783 105.116V105.116ZM90.317 104.692C90.1486 104.764 89.9168 104.836 89.9759 105.135C90.0271 105.809 90.1408 106.407 90.1373 107.076C90.3066 107.225 90.4794 107.076 90.6521 106.927C91.0488 106.411 91.1113 105.515 90.9455 104.841C90.7728 104.542 90.4898 104.913 90.317 104.692V104.692ZM87.9854 104.595C87.9263 104.595 87.8708 104.672 87.8708 104.749L87.981 105.79L87.8638 106.985L87.9185 107.061C88.2571 106.912 88.488 106.469 88.6608 106.094C88.6608 105.651 88.7788 105.202 88.6642 104.826C88.4958 104.6 88.2128 104.6 87.9854 104.595V104.595ZM65.8458 104.446C65.7868 104.667 65.9005 104.744 65.9005 104.893C66.0698 105.269 65.838 105.94 66.1245 106.165C66.5212 105.867 66.6939 105.275 66.6983 104.677C66.529 104.152 66.1288 104.296 65.8458 104.446V104.446ZM21.5675 103.844C21.3392 104.066 20.9981 104.142 20.9937 104.509C21.222 104.962 21.3904 105.338 21.6153 105.785L21.729 105.863C21.9564 105.491 21.9052 104.894 21.8497 104.369C21.795 104.219 21.795 103.766 21.5675 103.844V103.844ZM23.3306 103.852C23.1579 104.228 23.4443 104.528 23.499 104.826C23.6092 105.202 23.4955 105.722 23.6648 106.098C23.7195 106.098 23.7785 106.026 23.8332 105.949C24.124 105.428 24.2968 104.759 24.1275 104.084C24.0138 103.636 23.558 103.781 23.3306 103.852V103.852ZM133.976 104.094C133.744 104.165 133.689 104.465 133.575 104.691C133.344 105.356 134.141 105.515 134.251 106.184C134.305 106.411 134.251 106.705 134.475 106.86C134.875 106.566 134.707 105.741 134.71 105.221C134.486 104.841 134.313 104.315 133.976 104.094V104.094ZM67.5611 102.667C67.3884 102.667 67.2156 102.961 67.1609 103.183C67.1019 103.481 67.0984 103.93 67.2669 104.157C67.7782 104.459 67.95 105.135 68.2886 105.582C68.4023 105.511 68.4023 105.212 68.4614 105.057C68.4648 104.089 68.1271 103.265 67.5611 102.667V102.667ZM77.0345 95.6365C76.8661 95.7139 76.6934 95.8585 76.6343 96.0851C76.4069 96.5281 76.8036 96.9038 76.9764 97.2807C77.0857 97.357 77.3141 97.357 77.4278 97.1361C77.6552 96.8367 77.6596 96.3163 77.5493 95.9405C77.4356 95.7139 77.2628 95.6365 77.0345 95.6365V95.6365ZM82.5112 92.4662C82.2838 92.539 82.0564 92.8328 81.9973 93.1312C81.7655 93.6561 82.1076 94.2539 82.3315 94.7026C82.5043 94.8518 82.7838 94.9338 83.0738 94.7846C83.3602 94.6343 83.4149 94.1913 83.4774 93.8155C83.4774 93.3669 83.4193 92.9911 83.191 92.6928C82.967 92.4662 82.7395 92.4662 82.5112 92.4662V92.4662ZM83.7126 90.9767C83.5954 91.2807 83.5399 91.5791 83.5954 91.874C83.8819 92.1769 83.9922 92.7748 84.3889 92.7748C84.6163 92.7793 84.9028 92.6301 85.0208 92.3363C85.1311 91.8831 84.9063 91.5074 84.855 91.0644C84.5686 90.6886 83.9991 90.6829 83.7126 90.9767V90.9767ZM47.5892 86.9254C47.2471 86.6988 46.9607 87.1463 46.7332 87.4412C46.3886 87.9616 46.6707 88.6357 46.8947 89.1607C47.123 89.5319 47.347 90.2834 47.8018 90.1388C48.0883 89.9179 48.3713 89.6959 48.4894 89.3201C48.7203 88.6505 48.2098 88.1245 48.0406 87.5278L47.5892 86.9254ZM54.697 107.255C55.171 107.255 55.23 107.101 55.0199 106.836C54.1162 105.636 53.2091 104.436 52.5294 103.088C51.854 101.363 50.9503 99.7911 50.1057 98.0659C48.9737 96.1916 47.7879 94.3173 46.6559 92.3712C46.0318 91.3976 45.3556 90.4957 45.0769 89.3729C44.4007 87.1228 44.8087 84.3717 44.4189 81.977C44.3121 80.1072 43.6368 78.5369 42.5603 77.2592C41.8806 76.5851 41.1428 75.9053 40.2903 75.7516C38.4647 77.1579 36.6938 78.4162 34.6408 79.1484C33.5609 79.5868 32.1364 79.2064 31.3343 80.6185C30.5339 81.8084 29.619 82.921 28.5903 83.7363C26.9921 84.9934 25.1709 85.5765 23.3453 86.0149C22.9486 86.082 22.5476 86.2267 22.2064 86.5261C21.2324 88.0873 20.3695 89.7203 19.7966 91.5126L19.3886 93.8982C19.3851 94.2694 19.2124 94.7944 19.4407 95.0927C20.1195 95.4742 20.8583 95.7771 21.4277 96.3749C22.3349 97.1265 22.8965 98.403 23.2898 99.5987L23.5728 99.7524C24.7117 100.206 25.3914 101.632 25.7803 102.976C26.0633 104.248 25.7143 105.515 25.3688 106.634C25.3688 106.783 25.3002 107.178 25.4687 107.255H54.697ZM101.528 75.9483C98.2704 80.4827 95.0082 85.0125 91.4603 89.1711C89.6304 91.1753 87.8022 93.2523 85.9723 95.179C85.9168 95.2519 85.8577 95.401 85.9723 95.5502C86.5374 95.7051 87.1104 95.9317 87.5626 96.4566C88.6391 97.3619 89.2597 98.8605 89.594 100.354L90.5046 100.735C91.1305 101.039 91.4708 101.935 91.6331 102.759C92.2572 103.656 92.5984 104.701 92.4187 105.895C92.3562 106.349 92.1687 106.879 92.1652 107.255H119.212L119.105 107.052C118.598 106.156 117.864 105.627 117.181 105.024L116.387 103.824L116.05 103.82C115.418 104.113 114.565 104.108 114.058 103.429C113.206 102.46 113.1 100.961 112.761 99.6177C112.372 98.4949 112.262 97.2993 112.096 96.0273C111.924 95.0537 112.045 93.9366 111.821 93.0405C111.597 92.3652 111.484 91.5419 111.146 90.9441C109.566 87.7978 107.928 84.7278 106.175 81.7261C104.758 79.7026 103.347 77.678 101.701 76.0212L101.528 75.9483ZM29.395 72.7632C28.5981 72.4603 27.6285 72.3783 26.8897 72.8213C25.4644 73.7084 24.7152 75.5679 24.197 77.3557C23.7343 79.2927 23.3263 81.2342 23.0919 83.3215C23.0875 83.4707 23.2056 83.6198 23.3193 83.6973C24.2265 83.9284 25.138 83.5572 25.9383 83.1905C26.8498 82.7476 27.6502 82.0826 28.5061 81.4175C29.935 80.3096 31.0227 78.4443 31.1433 76.3582C31.0921 75.2399 30.8682 74.1172 30.1294 73.3656L29.395 72.7632ZM69.6141 107.255H75.2566L75.2862 106.975C75.2862 106.676 75.1724 106.378 75.1134 106.002C74.8348 105.028 75.1282 103.988 75.3556 103.092C75.0735 102.195 74.7349 101.217 74.7974 100.104C74.8009 99.5786 75.0327 99.1299 74.8634 98.605C74.7497 98.1574 74.412 97.858 74.412 97.3376C73.7948 95.092 74.0882 92.2589 75.0657 90.3219C76.7298 86.9012 78.735 83.6285 80.2854 80.1304C81.4313 77.6776 82.1258 74.9219 83.6171 72.6911C83.7899 72.3916 84.0139 72.1707 84.0139 71.8713C83.2204 71.9396 82.5937 72.3825 81.9053 72.5272C80.5424 73.1922 79.1179 73.5531 77.6925 73.7649C76.1568 74.0542 74.5622 74.0451 72.9684 73.9585C72.2852 73.9528 71.7157 73.7991 71.0916 73.7217L68.4717 73.404C66.7677 73.1683 65.1183 72.7105 63.4099 72.6239C61.8751 72.4645 60.5123 71.7802 59.0903 71.1732C58.9766 71.245 58.9766 71.4716 58.9766 71.6264C58.9141 72.9656 58.7379 74.233 58.2197 75.2737C58.04 78.3335 57.5695 81.2441 56.7647 83.8506C57.2135 85.4937 57.2613 87.2861 57.4818 89.0113L58.2674 91.7772C58.8334 93.1983 59.395 94.6923 60.3577 95.8971C61.7241 95.9062 63.2632 95.7673 64.3987 96.6726C65.1331 97.1975 65.6435 98.2485 66.1505 99.1447C66.6071 99.4488 67.0611 99.6025 67.4543 100.051C68.759 101.405 70.0629 103.279 69.7096 105.67C69.7061 106.184 69.4231 106.56 69.5334 107.009L69.6141 107.255ZM87.3786 71.294L86.5782 71.8144C85.3256 72.7732 84.7483 74.4881 83.9991 75.9001C82.7986 78.2038 81.8211 80.6611 80.8437 83.123C79.6943 85.8024 78.0892 88.1778 76.8288 90.708C76.3114 92.1246 75.6794 93.4637 75.6169 95.1024C75.6134 95.5556 75.6681 96.0031 75.8409 96.3014C76.0649 96.2297 75.8956 95.8539 76.0136 95.6273C76.182 95.3335 76.4138 95.0352 76.6968 94.9668C77.038 94.7459 77.3835 94.8906 77.7212 95.1217C78.1734 95.4975 78.1734 96.1671 78.2246 96.8412C78.2246 97.2898 77.9972 97.8102 77.6517 98.0323C77.2515 98.104 76.7446 97.9503 76.6821 98.6244C76.1057 99.8872 76.3843 101.607 76.9512 102.729C77.123 103.178 76.7776 103.476 76.7185 103.848C76.5423 105.043 76.6343 106.488 77.5562 107.255H82.7543L82.7361 107.024C82.5738 105.834 82.8055 104.71 83.2647 103.819C82.9271 103.366 82.8125 102.768 82.6988 102.248C82.5885 101.501 82.8203 100.98 83.1068 100.46C83.276 100.233 83.4488 100.013 83.6762 100.084C83.6762 100.388 83.4488 100.46 83.3906 100.76C83.2717 101.352 83.441 102.027 83.6102 102.552C83.7205 103.004 84.0044 103.375 84.1172 103.824C84.1172 103.973 83.8889 104.122 83.8307 104.271C83.5443 105.236 83.757 106.57 84.2127 107.255H86.5782C86.9012 107.207 87.0114 106.609 87.067 106.233C87.2388 105.563 86.9012 104.889 87.0739 104.219C87.2467 104.07 87.4741 103.848 87.4776 103.549C87.5331 103.101 87.0808 102.874 86.9124 102.576C86.685 102.421 86.402 102.421 86.2293 102.123C86.0635 101.448 86.0088 100.701 85.6667 100.176C85.4393 99.9499 85.1598 99.8007 84.8733 99.8007V99.7233C85.1598 99.3521 85.6155 99.4295 86.0122 99.5832C86.5782 100.108 86.8612 101.005 87.0852 101.751C87.7128 102.055 88.2788 102.807 88.4993 103.631L89.4655 104.161C89.6964 103.863 89.9282 103.491 90.0974 103.198C89.7554 102.595 89.304 102.369 88.7892 102.215C88.2823 102.06 88.2823 101.241 88.2276 100.643C88.0071 99.2222 86.9272 98.2441 85.961 97.8626C85.2778 97.7089 84.5391 97.5552 83.8559 97.8489C83.6319 97.8489 83.4557 98.1473 83.2318 98.1427C83.0035 97.1019 83.349 96.0566 83.8116 95.2367C84.1537 94.64 84.5539 94.2688 84.8403 93.6755C84.6719 93.6038 84.3854 93.5981 84.2162 93.7427C83.9844 94.2688 83.9262 94.8609 83.5252 95.305C83.125 95.7526 82.4418 95.6751 82.0486 95.3722C81.5893 94.9965 81.2517 94.3986 81.0867 93.8008C80.9721 92.9775 81.3767 92.3842 81.7178 91.7875C82.0598 91.4926 82.5191 91.4209 82.9158 91.2763C82.9748 90.9005 83.1432 90.601 83.375 90.3072C83.7752 89.8597 84.3993 89.7925 84.9141 90.018C85.2518 90.2446 85.4245 90.765 85.5348 91.2136C85.645 91.9652 85.4723 92.7839 85.1268 93.3772H85.1858L87.1842 91.4539L91.298 86.7032C93.5316 83.952 95.7027 81.1326 97.8807 78.2368C98.7366 77.0468 99.7106 75.8614 100.401 74.4449C100.287 74.2957 100.118 73.9917 99.8868 73.9917C98.458 75.9241 96.8008 77.6299 95.3129 79.4848C93.6566 81.2681 91.8822 83.2722 90.1669 85.1272C89.08 86.3126 88.1651 87.802 86.9671 88.8383C86.5635 89.1321 86.1077 89.6524 85.5973 89.4258C85.5973 89.0546 85.6563 88.6014 85.6008 88.1539C85.4983 86.4333 85.7327 84.7947 85.9645 83.2289C86.5374 81.5186 87.0591 79.7262 87.6356 77.943C88.0436 75.8569 88.3925 73.765 89.1972 71.9055C89.2563 71.6789 89.4247 71.4626 89.3144 71.236C88.6278 71.2314 87.9481 71.1494 87.3786 71.294V71.294ZM96.5994 71.135C95.4605 71.2751 94.3181 71.4197 93.1792 71.4869C92.4404 71.4823 91.6435 71.3274 90.9638 71.4721C89.252 72.8021 89.2962 75.4861 88.8301 77.7271C88.1981 79.1391 87.9082 80.7094 87.3899 82.1214C86.9863 83.2396 86.7033 84.4296 86.6364 85.7015C86.5748 86.2994 86.5192 86.9644 86.685 87.4164C88.5731 85.6389 90.3466 83.2635 92.1175 81.2582C92.7495 80.3678 93.6636 79.6253 94.3511 78.6619C95.3242 77.4765 96.4041 76.3583 97.3781 75.1729C97.8955 74.4305 98.5205 73.9101 98.9242 73.0913C98.4137 72.3398 97.9068 71.8194 97.3963 71.0678C97.1133 70.9186 96.8269 71.0576 96.5994 71.135V71.135ZM52.3202 70.6814C51.4096 70.8989 50.7777 72.1651 50.6605 73.2833C50.3072 75.8956 51.3801 78.0682 52.8533 79.6442C53.7014 80.6941 54.7266 81.1519 55.461 82.425H55.6303C56.2067 80.7864 56.3282 78.9211 56.5635 77.0571C56.5669 76.0106 56.8569 74.7432 56.4636 73.9199C55.5018 72.1993 54.1424 70.2475 52.3202 70.6814V70.6814ZM108.563 68.3062C107.594 68.9712 106.958 70.3878 106.954 71.8772C106.888 74.4883 107.733 76.661 108.805 78.6127C110.33 81.5336 112.141 84.3086 113.724 87.1565H113.838C113.724 86.2604 113.504 85.5134 113.339 84.6889C112.718 82.2225 111.303 80.117 110.404 77.876C109.956 76.6758 109.161 75.553 109.397 73.9827C109.566 73.4623 110.022 73.1685 110.536 73.1731C111.729 73.4817 112.346 75.2011 113.026 76.4742C114.154 79.2447 114.822 82.3136 116.292 84.9349C116.972 86.3572 117.534 87.85 118.496 89.0548C118.837 89.5797 119.176 90.1776 119.686 90.5533C119.462 89.2097 118.841 88.0869 118.565 86.7421C117.89 84.1982 117.217 81.5814 116.428 79.0375L115.477 76.0449C114.521 72.8258 112.71 69.6749 110.326 68.0215C109.76 67.8678 109.074 67.935 108.563 68.3062V68.3062ZM75.8409 67.1834C75.2749 67.0297 74.6985 67.3998 74.1299 67.5444L74.0153 67.6947C74.5258 68.1468 75.268 68.075 75.8921 68.2287C76.1786 68.2344 76.3513 67.7858 76.465 67.5592C76.2966 67.2609 76.0136 67.3326 75.8409 67.1834V67.1834ZM77.7733 67.9453C77.7142 68.0216 77.7142 68.172 77.8245 68.2437C78.6804 68.4748 79.6466 68.4077 80.5607 68.263C80.9617 67.8918 81.4756 67.6698 81.8724 67.1494V67.0002C80.3957 66.6199 78.9157 66.9809 77.7733 67.9453V67.9453ZM94.7399 66.4898C94.1123 66.7108 93.6565 67.2312 93.1383 67.6024C93.0836 67.7516 92.9143 67.8962 93.0246 68.051C93.5906 68.2777 94.2225 68.0602 94.7877 68.2822C95.3024 68.3642 95.7538 68.8891 96.3789 68.6671L96.3823 68.5179C95.9822 68.1421 95.6436 67.6217 95.3059 67.2414C95.0785 67.0148 94.9639 66.6436 94.7399 66.4898V66.4898ZM90.758 65.7954C90.1304 66.0904 89.5028 66.7554 88.929 67.1984C88.8162 67.2747 88.587 67.425 88.587 67.5696C89.2155 67.7951 89.9499 67.8771 90.6339 67.8054L91.9482 67.5207L92.6357 66.7793C92.6904 66.7019 92.8041 66.5573 92.6904 66.4798C92.0619 66.0995 91.4412 65.9503 90.758 65.7954V65.7954ZM86.376 65.3192C85.52 65.7622 84.7778 66.4226 83.9809 67.0148C83.9774 67.0922 83.9774 67.164 84.0365 67.2414C85.0608 67.3234 86.027 67.8529 87.0522 67.5591C87.7354 67.1161 88.363 66.2974 88.9359 65.6323C88.0809 65.6267 87.1729 65.6938 86.376 65.3192V65.3192ZM77.6153 64.8126C77.3288 64.9572 77.0458 65.1019 76.7593 64.9527C76.1309 64.9481 75.5067 65.1645 74.9373 65.3137C74.768 65.3866 74.4815 65.4583 74.4815 65.6803C75.3887 66.359 76.4138 66.5139 77.439 66.4513C77.9529 66.3784 78.3497 66.0083 78.8601 66.0846C79.0884 65.94 79.2611 65.6416 79.3783 65.3433C79.3783 65.193 79.2056 65.1884 79.1509 65.1167C78.6361 65.1167 78.1222 64.9618 77.6153 64.8126V64.8126ZM70.5552 64.7605C70.1585 64.6831 69.7583 64.9051 69.4197 65.0543L69.4753 65.126L71.0066 66.1042C71.7453 66.4857 72.5422 66.5665 73.3391 66.6439V66.5722C73.1117 65.9698 72.5422 66.1907 72.2046 65.8924C71.6351 65.5884 71.1247 64.9871 70.5552 64.7605V64.7605ZM83.1953 63.8734L82.967 64.0226C82.1111 64.3164 81.3142 64.7605 80.572 65.3526C80.5173 65.4255 80.3411 65.4255 80.3993 65.5747C81.138 66.0279 82.1623 66.0324 83.0191 65.8149C83.7023 65.5986 84.3299 65.1499 84.9584 64.7115C85.0166 64.6352 85.1859 64.5623 85.0721 64.4132L83.1953 63.8734ZM73.6924 63.5118C73.0674 63.5836 72.5535 63.7282 71.9284 63.6462L71.0143 63.8637C71.0143 63.8637 70.9588 63.94 71.0143 64.0174C71.5838 64.244 72.0942 64.6198 72.6637 64.9227C72.9467 65.073 73.2879 64.8555 73.629 65.0047L75.0544 64.2679L75.2862 64.0459L75.2272 63.9696C74.7167 63.8193 74.261 63.5164 73.6924 63.5118V63.5118ZM93.048 63.3439C92.4152 63.6423 91.8457 64.1581 91.39 64.7503V64.8277C91.956 65.1306 92.5801 65.2855 93.2086 65.4346C93.4916 65.4346 93.884 66.1145 94.1158 65.4392L93.048 63.3439ZM74.893 62.4761L74.6065 62.6207C74.5475 62.6981 74.5475 62.7698 74.6065 62.8473C75.0622 63.0727 75.6317 63.0056 76.0831 63.305C76.1421 63.305 76.2558 63.1559 76.1968 63.083L74.893 62.4761ZM89.0063 62.4994C88.2094 62.9378 87.4672 63.6074 86.7805 64.1233C86.7805 64.3499 86.9489 64.2724 87.0627 64.3499C87.9186 64.3544 88.8257 64.5856 89.6235 64.2201C90.1409 63.9263 90.8796 64.0026 91.3935 63.4821C91.3935 63.4104 91.5081 63.2612 91.3935 63.1109C90.5966 62.8797 89.6895 62.9469 89.0063 62.4994V62.4994ZM79.7308 62.1333C78.7611 62.278 78.0189 62.8712 77.2185 63.5362C77.163 63.6125 77.163 63.6854 77.2767 63.7571C78.1257 64.0611 79.0406 63.9985 79.9513 64.2251C80.749 64.0805 81.4313 63.7913 82.1188 63.2709V63.1992C82.0051 62.9726 81.8949 62.6731 81.6631 62.6731C81.039 62.4419 80.3592 62.2882 79.7308 62.1333V62.1333ZM85.428 61.2038C84.9688 61.4976 84.5139 61.5693 84.1137 61.7914C83.7717 62.0134 83.4296 62.2344 83.1987 62.6056C83.5954 63.0588 84.2821 62.6876 84.7344 62.9142C85.1936 63.0679 85.645 63.1454 86.0452 63.2991C86.7249 62.8561 87.4159 62.4086 88.0947 61.9702C88.1572 61.8198 88.2675 61.5944 88.1572 61.5215L87.0739 61.5169C86.5044 61.5841 85.9393 61.4304 85.428 61.2038V61.2038ZM66.4734 61.0729C66.1323 60.9966 65.6219 60.8418 65.3354 61.1356L65.7321 61.8154C66.753 62.8664 67.8841 63.6954 69.1923 64.0029C69.306 64.0029 69.365 63.782 69.365 63.6317C69.4787 63.4108 69.8199 63.4825 69.8242 63.1887C69.0265 62.8084 68.233 62.2777 67.4952 61.5262L66.4734 61.0729ZM68.9787 60.7892C68.865 60.9383 68.5785 60.9383 68.5785 61.2367C69.2583 61.9165 70.0551 62.5143 70.9041 62.8172C71.359 62.75 71.8738 62.6009 72.3295 62.4562V62.3788C71.5943 61.8539 70.8564 61.4007 70.2314 60.7265C69.8347 60.5774 69.3798 60.7163 68.9787 60.7892V60.7892ZM74.9008 60.5346C74.669 60.7555 74.3313 60.751 74.2688 61.0493C75.0657 61.5071 75.8626 61.9603 76.8878 61.8157C77.229 61.6665 77.4538 62.0468 77.7949 61.8202C77.9677 61.6756 78.1951 61.6756 78.3644 61.4547C78.3132 61.1507 78.0814 61.2281 77.913 61.0789C77.7437 60.924 77.9712 60.6303 77.8609 60.4037C76.9512 60.0279 75.7576 60.1634 74.9008 60.5346V60.5346ZM91.7468 59.9754L91.0671 60.3455C90.6079 60.6404 90.0975 61.0105 89.752 61.4592C89.8622 61.6812 90.1487 61.6812 90.3171 61.7575C91.0011 61.9887 91.7945 62.2153 92.5359 61.9261C92.2572 61.3294 92.0341 60.6496 91.805 59.98L91.7468 59.9754ZM72.6264 59.7724C72.0569 59.8396 71.543 59.9125 71.0325 60.1334V60.2063C71.767 60.885 72.6229 61.3382 73.3582 61.8631C73.5266 61.8688 73.813 62.018 73.9268 61.7242C73.5891 61.4202 73.1889 61.2664 72.8469 61.0398V60.8952C73.1333 60.3703 73.5925 60.4523 73.9346 60.081C73.9893 60.0036 74.2176 59.9319 74.103 59.7816C73.6516 59.6278 73.0821 59.6233 72.6264 59.7724V59.7724ZM82.3611 59.7622C82.0156 59.7622 81.7916 59.4593 81.5051 59.4593C81.0459 59.9022 80.5355 60.0514 80.0207 60.196C79.907 60.2689 79.683 60.3406 79.6795 60.5672C80.5867 61.3188 81.7847 61.4008 82.9227 61.411L83.4922 61.1172C83.7787 60.8177 84.4618 60.8223 84.2943 60.0764C84.2344 59.9261 84.0651 59.9261 83.9514 59.9261C83.4375 60.1436 82.8125 59.9888 82.3611 59.7622V59.7622ZM127.609 107.255C127.551 106.879 127.194 106.585 127.08 106.281C126.967 105.91 126.567 105.983 126.684 105.611C126.97 104.791 127.54 104.571 128.109 104.353C128.285 104.277 128.509 104.353 128.738 104.204C128.741 103.756 128.627 103.308 128.403 102.932C126.812 101.28 124.77 100.816 123.066 99.4623C122.441 98.8599 121.93 98.1083 121.538 97.2896C121.427 96.6872 120.972 96.3114 120.917 95.7136C120.802 95.4152 120.689 95.0395 120.81 94.7457C120.865 94.6728 120.92 94.8174 121.034 94.822C121.714 95.873 122.279 97.145 123.183 97.8965C124.149 98.5763 125.06 99.3279 126.137 99.6308C127.33 100.239 128.58 100.918 129.487 102.344C129.765 102.942 129.879 103.616 129.876 104.363L129.699 105.255L129.53 105.553L129.413 106.227C129.413 106.599 129.119 106.879 129.174 107.255H130.489C130.666 106.363 129.696 105.857 130.045 104.961C130.159 104.512 130.501 104.29 130.845 104.146C131.015 103.847 130.673 103.77 130.618 103.543C129.828 102.792 129.833 101.524 129.321 100.624C129.207 100.325 129.038 100.103 129.156 99.805C129.722 100.032 130.004 100.855 130.343 101.453C130.567 102.2 131.077 102.658 131.588 103.029C132.208 103.78 132.381 104.754 132.37 105.871C132.484 106.391 132.01 106.879 132.293 107.255C132.862 107.207 133.454 107.49 133.622 106.777C133.568 106.102 133.116 105.505 132.664 105.201C132.605 104.604 132.95 104.234 133.178 103.713V103.414C132.899 102.667 132.274 102.364 131.764 101.838C131.081 101.236 130.633 100.263 130.181 99.3621C128.99 97.3374 127.106 99.1924 125.571 98.6583C123.984 97.227 123.084 95.1306 122.18 93.1116C121.39 91.3147 120.888 89.3675 120.439 87.3485C119.877 85.2579 119.601 83.0123 119.157 80.8442C118.712 78.0828 117.982 75.3897 117.25 72.7684C116.858 71.4235 116.295 70.0787 115.961 68.653C116.531 67.9823 117.104 67.241 117.622 66.4268C118.709 64.5661 119.91 62.7066 120.486 60.5476C120.432 60.2493 120.203 60.3939 120.035 60.321C119.808 60.1673 119.866 59.6469 119.638 59.5694C119.352 60.4656 119.235 61.4347 118.945 62.258C118.426 64.1904 117.283 65.9007 115.965 67.159C115.164 67.9015 114.139 67.9686 113.173 68.185C112.945 68.2624 112.603 68.1804 112.545 68.4788C113.963 69.983 114.75 71.9291 115.656 73.7317C116.558 76.1982 117.288 78.8195 117.956 81.3646C118.407 83.0077 118.856 84.6498 119.359 86.2258L119.642 87.1948C120.086 89.2138 120.766 91.0836 121.442 92.9579C121.442 93.0296 121.383 93.1788 121.324 93.1788C120.759 92.8759 120.361 92.2006 119.796 91.8977C118.264 90.3217 116.847 88.5192 115.833 86.4239C114.363 83.4985 113.581 80.2851 112.399 77.2879C112.001 76.4681 111.777 75.4899 111.153 74.8203C110.925 74.5937 110.587 74.2908 110.301 74.5117C110.132 74.9604 110.238 75.4079 110.352 75.7791C111.311 77.8801 112.442 79.9765 113.401 82.0774C113.966 83.4985 114.36 85.1417 114.694 86.7131C115.084 89.1796 115.241 91.719 115.347 94.3357L115.289 94.4075C114.889 93.9554 114.893 93.2847 114.727 92.6835L114.33 91.4104C113.992 90.5142 113.544 89.6954 113.202 88.789C112.695 87.8211 112.016 86.9204 111.564 85.8693C110.888 84.3753 109.981 82.9497 109.191 81.5228C108.287 79.8751 107.329 78.2274 106.653 76.3531C106.256 75.3794 106.146 74.3341 105.925 73.2876C105.757 72.3914 105.816 71.4953 105.937 70.5991C105.937 70.1561 106.279 69.7804 106.223 69.3317C105.54 69.4763 104.97 69.9204 104.343 70.2905C103.09 71.1058 101.606 71.0238 100.129 71.0865L99.7288 71.0808C99.8973 71.452 100.18 71.8323 100.463 72.1318C101.771 73.4858 103.13 74.686 104.32 76.2665C106.921 79.9423 109.298 83.7639 111.329 87.8837C112.063 89.6806 113.25 91.2566 113.53 93.3473C113.695 94.1718 113.577 95.0679 113.519 95.8867C113.515 97.1598 113.908 98.2051 114.415 99.255L114.524 100.522C114.635 101.049 114.918 101.645 115.311 102.021C115.543 102.176 115.939 102.248 116.226 102.103C116.795 101.954 117.026 101.14 117.14 100.542C117.258 100.094 117.148 99.6456 117.262 99.1981L117.485 99.723C117.709 100.397 117.706 101.144 117.703 101.887C117.816 102.638 118.099 103.163 118.555 103.688C119.686 104.817 120.847 105.828 121.75 107.255H124.098L124.116 107.086C124.119 105.89 123.095 105.51 122.588 104.758C122.588 104.686 122.474 104.536 122.588 104.536C123.158 104.99 123.841 105.143 124.465 105.592C124.975 105.823 125.284 106.657 125.567 107.255H127.609ZM88.1095 58.3844C87.9411 58.3081 87.8855 58.6065 87.7128 58.7557C87.0296 59.0495 86.2883 59.267 85.6598 59.8591C85.5426 59.9365 85.4879 60.0857 85.5426 60.2349C86.1112 60.4615 86.7397 60.3897 87.3091 60.4706C87.9923 60.4763 88.5618 59.9559 89.2415 60.3317L90.2111 59.522L90.2146 59.2954C89.5904 58.7705 88.9072 58.4664 88.1095 58.3844V58.3844ZM63.1313 57.393C63.0176 57.393 62.9586 57.6185 63.0723 57.7631C63.5237 58.5876 64.3171 58.8916 64.8284 59.5703C65.2251 59.7969 65.6809 59.8698 66.0811 59.6523C65.4561 59.1991 65.1184 58.452 64.7807 57.7005C64.3249 57.3247 63.7008 57.171 63.1313 57.393V57.393ZM65.864 57.1852C65.7503 57.257 65.5775 57.1852 65.522 57.3344C65.6322 57.9322 66.1435 58.308 66.4847 58.7601C66.9916 59.4353 67.6158 59.7382 68.2408 60.0423C68.641 59.9648 69.0412 59.7485 69.4379 59.7485C69.4969 59.7485 69.6662 59.7485 69.6106 59.5993C68.9309 58.9241 68.1931 58.3945 67.6271 57.5701C67.114 57.2718 66.4881 57.2661 65.864 57.1852V57.1852ZM68.6523 57.0543C68.5386 57.0543 68.5386 57.2047 68.5933 57.2809L69.5013 58.2546C69.8424 58.4812 70.1254 58.857 70.4666 59.161C71.1498 58.7898 71.9475 59.0209 72.6307 58.7989L72.741 58.6543L72.6854 58.5723C71.3816 57.8981 70.1324 57.0691 68.6523 57.0543V57.0543ZM84.5322 56.7179C83.6763 57.3054 82.7648 57.7495 81.9644 58.4191V58.4908C82.8169 58.9486 83.8412 58.8769 84.8074 59.0351C85.4394 58.5159 86.1191 57.9955 86.9195 57.8509C86.9195 57.778 87.1434 57.7063 87.034 57.5559L86.1816 57.4022C85.6121 57.1756 85.0461 57.0219 84.5322 56.7179V56.7179ZM90.7988 56.1625C89.9976 56.4574 89.0869 56.4517 88.4585 57.1941C88.7414 57.5654 89.1972 57.4982 89.5939 57.7965C90.1634 57.9503 90.6703 58.6972 91.4125 58.408C91.3605 57.6622 91.133 56.9869 91.0228 56.1625H90.7988ZM121.019 56.3653C120.336 56.067 120.388 57.1897 120.105 57.6327C120.211 58.0813 120.157 58.678 120.381 58.9775C120.722 58.9046 120.84 58.3125 121.126 58.1633C121.413 57.7192 121.467 57.1225 121.644 56.5965C121.586 56.5202 121.53 56.4473 121.53 56.5202C121.357 56.7456 121.13 56.5965 121.019 56.3653V56.3653ZM64.6148 55.6866C64.3318 55.6092 63.9351 55.3826 63.594 55.6046C63.594 55.9747 63.8179 56.2013 63.9316 56.4279C64.3283 56.577 64.7285 56.4324 65.1261 56.3561C65.1843 56.2833 65.3535 56.2878 65.2398 56.0624L64.6148 55.6866ZM66.1002 55.0983C65.9856 55.0983 65.9266 55.2486 65.9266 55.3978C66.2686 55.8453 66.4926 56.5922 67.1167 56.5205C67.2304 56.2985 67.5759 56.3804 67.6306 56.1538C67.1792 55.6289 66.6098 55.3249 66.1002 55.0983V55.0983ZM87.4489 53.9757C86.4792 54.3424 85.5643 54.8582 84.7118 55.5232C84.5981 55.5995 84.5946 55.7442 84.6493 55.8216C85.5018 56.4285 86.5852 56.3568 87.6651 56.3659C88.2936 55.7738 88.9802 55.4071 89.778 55.1133V54.9641C89.0939 54.2843 88.2458 54.2023 87.4489 53.9757V53.9757ZM119.951 53.5276C119.774 53.7485 119.55 53.9705 119.546 54.2689C119.601 54.9441 119.653 55.7629 119.822 56.3652L119.88 56.2878L120.399 54.795L120.229 53.8988C120.176 53.7485 120.116 53.5276 119.951 53.5276V53.5276ZM88.3595 53.085H88.4151C89.0427 53.4653 89.6677 53.8411 90.2363 54.2886C90.4612 54.4434 90.7433 54.5926 91.0298 54.5254C91.0341 53.6293 91.2103 52.8049 91.2694 52.0579C90.1851 51.9759 89.1608 52.1934 88.3595 53.085V53.085ZM122.173 51.9754C121.945 52.3466 121.887 52.867 121.545 53.1608C121.199 52.8624 121.148 52.1154 120.81 51.7397C120.696 51.8171 120.634 52.038 120.578 52.1883C120.292 52.8579 120.799 53.3828 120.858 54.0524C120.854 54.3508 121.141 54.5056 121.137 54.804C121.192 54.9532 121.251 55.1752 121.42 55.1035C121.648 54.804 121.766 54.361 122.052 54.139C122.511 53.6914 122.452 52.9444 122.514 52.2749C122.573 52.0483 122.349 51.3775 122.173 51.9754V51.9754ZM26.0156 49.6678L25.9018 49.5187C25.7291 49.5961 25.6154 49.8944 25.5017 50.039C24.6379 52.1981 23.8896 54.4334 23.65 56.8964C23.242 59.5075 23.2898 62.4955 23.1613 65.1795C23.0407 67.7188 22.4043 69.9541 21.314 71.964C19.7671 74.9326 17.0891 75.289 14.8668 76.5462C14.4666 76.84 14.0109 77.2112 13.7209 77.8045C13.148 78.7006 12.8615 79.8177 12.457 80.8585L11.9361 83.3216C11.8146 85.1856 11.8068 87.2718 11.7999 89.2907C11.7339 90.935 11.5577 92.4951 11.3224 93.9948C11.1497 94.9627 11.1419 96.008 11.0281 96.9771C10.9031 99.7328 10.3779 102.943 11.3372 105.418C11.6158 106.238 12.2955 106.912 12.8763 107.255H17.4198C17.6915 106.994 17.9303 107.106 18.0448 106.807C17.9893 106.58 17.9346 106.431 17.82 106.282C17.4233 105.751 17.2549 105.081 17.1446 104.407C17.0309 103.959 16.6377 103.732 16.3512 103.578C15.3295 102.682 13.7904 103.116 12.9423 101.767C12.2625 100.644 12.5013 99.0006 12.5603 97.6558C12.5638 96.9099 12.3398 96.2392 12.4535 95.5651C12.9127 95.7188 12.8502 96.5432 13.0195 96.9919C13.2982 98.109 12.839 99.3046 13.1775 100.273C13.7982 101.626 14.9328 101.931 16.0752 101.79C16.8686 101.795 17.5518 102.393 17.8903 103.294C18.1733 103.669 18.57 103.824 18.7384 104.272C18.9077 104.494 18.794 104.942 19.018 105.019C19.3635 104.798 19.8183 104.653 20.2194 104.504L20.5059 104.06L21.5302 103.097C21.7029 102.947 21.5345 102.721 21.4199 102.494C21.0276 101.896 20.5128 101.444 20.3435 100.62C19.6126 99.1258 17.9051 99.4151 17.5118 97.6182C17.5118 97.5453 17.5709 97.3961 17.6846 97.3961C18.3678 97.994 19.1022 98.4517 19.8991 98.6783C20.5822 99.0587 21.0901 99.882 21.2585 100.856C21.6552 101.082 22.1075 101.458 22.2177 102.056C22.2759 102.576 22.4998 103.024 22.6691 103.477C23.0111 103.405 23.1839 103.106 23.4704 103.034C23.6978 102.885 24.0945 103.034 24.2082 102.74C24.2673 102.291 23.8705 102.065 23.6422 101.762C23.0771 101.535 22.3939 101.087 22.2281 100.263C21.8314 99.1407 20.8696 98.3117 20.0718 97.7867C19.3374 97.3335 18.4268 96.9532 18.0882 95.8304C17.8686 94.1098 18.386 92.4712 18.6811 90.9054C19.2567 88.6701 20.4026 86.814 21.321 84.8008C21.7212 83.9854 22.0667 83.2396 22.2394 82.4197C22.4191 80.7765 22.7099 79.2108 22.9999 77.7213C23.6388 74.8882 25.1857 71.4675 27.7491 71.1111C28.6016 71.0382 29.3985 71.3422 30.1372 71.7226C31.5583 72.7053 32.1173 74.6479 32.2232 76.5894C32.2788 77.0381 32.0513 77.4856 32.2198 77.8568L33.1859 77.4902C35.0671 76.9071 36.9482 76.4016 38.6045 74.9178C38.6627 74.8404 38.6627 74.6912 38.5489 74.6183C37.5281 74.1606 36.5619 73.409 35.6548 72.5037C34.2398 70.9277 32.7675 69.2026 31.5774 67.1791C29.7657 64.5532 28.5868 61.334 27.6875 58.1205C27.125 56.3225 26.7352 54.3764 26.3428 52.5112L26.0156 49.6678ZM119.907 49.1186C119.675 50.0147 119.392 50.9109 118.988 51.6533L119.098 52.3275C119.212 52.5495 119.15 52.997 119.381 52.997C119.669 52.4049 119.841 51.7308 120.071 51.0658C120.358 50.4679 120.076 49.7927 119.961 49.1186H119.907ZM90.883 48.771C90.3101 49.0648 89.6859 49.2094 89.1164 49.5806C88.9437 49.7298 88.6572 49.8801 88.547 50.1739C88.8847 50.3277 89.2814 50.4005 89.6234 50.7035L91.0445 50.9392C91.2728 50.8674 91.3865 51.1658 91.5558 51.0166C91.673 50.4245 91.8457 49.8221 91.9629 49.2242C91.6252 49.075 91.2797 48.771 90.883 48.771V48.771ZM121.566 46.8926C121.225 47.3401 120.993 47.9334 120.88 48.5312C120.822 48.8296 120.534 48.9025 120.645 49.2008L121.383 51.2197L121.493 51.3735C121.953 50.7039 121.729 49.654 122.07 48.9116L121.905 47.6396C121.849 47.4176 121.798 47.0418 121.566 46.8926V46.8926ZM117.589 45.6732C117.302 45.8952 117.019 46.0398 116.733 46.189V46.3336C117.07 46.8586 117.298 47.3846 117.695 47.8367C117.699 47.24 117.754 46.7196 117.872 46.1992C117.757 46.0444 117.816 45.6732 117.589 45.6732V45.6732ZM113.085 47.3552C112.009 46.1562 110.646 45.3272 109.22 45.6881C107.74 45.9774 106.539 47.312 105.283 48.2753C103.63 49.5336 101.749 50.1166 99.754 50.4776C98.9024 50.5448 97.9909 50.6177 97.0803 50.4537L95.0889 50.1451L94.9205 50.2225C94.6297 50.8147 94.3432 51.4079 94.2885 52.1549C93.9908 54.019 94.042 56.1109 94.4908 57.8315C95.1627 60.5245 96.1176 63.295 97.8182 65.1694C98.6125 65.9209 99.405 66.6008 100.376 66.9048C101.283 67.0585 102.193 66.8422 103.049 66.5529C104.702 65.815 106.41 65.0111 108.233 64.7219C109.148 64.4281 110.228 64.5864 111.194 64.6683C111.762 64.6683 112.332 64.4474 112.901 64.3791C113.471 64.2345 114.04 64.0136 114.558 63.5649C115.869 62.5344 116.674 60.7466 116.795 58.8039C116.802 57.3874 116.751 55.9662 116.472 54.6943C116.137 52.2312 115.01 50.0586 113.768 48.1842L113.085 47.3552ZM119.355 45.1629C119.069 45.6059 118.437 45.9725 118.496 46.6467L118.202 49.186L118.367 49.8556C118.481 49.933 118.65 50.2314 118.827 50.1596C119.168 49.1906 119.4 48.0735 119.63 47.027L119.52 45.9862C119.52 45.6878 119.583 45.3121 119.355 45.1629V45.1629ZM120.16 43.5968C119.984 44.6421 120.203 45.6875 120.373 46.5882C120.432 46.7385 120.314 47.104 120.542 47.0369C121.001 46.3616 121.118 45.5474 121.347 44.7287L121.24 43.8997C121.13 43.1572 120.498 43.5239 120.16 43.5968V43.5968ZM28.829 42.6668C28.2639 42.5939 27.9184 43.3364 27.6875 43.8568C27.6241 45.2734 27.5078 46.6899 26.875 47.8081C26.9262 49.6005 27.375 51.0945 27.5399 52.8151C27.7057 54.087 28.0399 55.2816 28.3221 56.4818C28.7118 58.0475 29.2188 59.4686 29.6702 60.9729C30.7944 64.0372 32.6052 66.8122 34.4716 69.2844C35.5515 70.4937 36.6835 71.6211 37.9318 72.5229C38.6149 72.9033 39.2356 73.3508 39.9188 73.5831C40.7166 73.5102 41.4544 73.5148 42.1967 73.3701C42.7661 73.0046 42.7149 72.1859 42.7731 71.4389C42.7184 70.7636 42.4354 70.0895 42.0977 69.4917C40.5143 67.0924 38.6445 65.357 37.1166 62.8859C35.7607 60.1872 34.5784 57.4167 34.0783 54.2795L33.9681 53.3833C33.6894 51.7356 33.4689 50.097 33.1347 48.4492C32.4585 46.6512 32.0106 44.5605 30.5921 43.2783C30.0817 42.8308 29.4575 42.6714 28.829 42.6668V42.6668ZM115.208 43.1144C115.039 43.2647 114.75 43.3365 114.75 43.5585C115.09 43.9343 115.373 44.3146 115.774 44.613C115.887 44.3192 115.66 44.1655 115.546 44.0163C115.437 43.7122 115.55 43.1201 115.208 43.1144V43.1144ZM117.544 42.1612L116.63 43.1245C116.575 43.7941 116.626 44.5411 116.509 45.1435L116.567 45.3644C116.964 45.3701 117.195 44.7005 117.596 44.4739C117.596 43.7269 117.655 42.9071 117.603 42.1612H117.544ZM118.86 41.6496C118.797 41.6496 118.741 41.6496 118.683 41.645C118.459 41.7942 118.282 42.0162 118.282 42.3146C118.279 43.2107 118.452 43.886 118.448 44.781C118.448 44.8539 118.562 45.0031 118.672 44.9313C118.904 44.5601 119.241 44.2618 119.304 43.8177C119.19 43.5865 118.962 43.5148 118.848 43.2882C118.794 43.139 118.794 43.0661 118.848 42.9169C118.856 42.4683 119.024 42.0982 118.86 41.6496V41.6496ZM106.962 41.1199C106.447 41.2646 106.22 41.8567 105.764 42.0059C105.764 42.2279 105.988 42.4545 106.16 42.5308L107.472 41.9432C107.472 41.7941 107.476 41.572 107.358 41.4957C107.075 41.7166 107.075 41.2691 106.962 41.1199V41.1199ZM111.689 40.7001C111.403 40.9996 111.061 41.2205 110.888 41.5917L111.571 41.7511C111.685 41.5245 111.744 41.1533 111.744 40.7775L111.689 40.7001ZM120.002 40.3871C119.598 40.9804 119.425 41.7991 119.539 42.6235C119.932 42.6998 120.333 42.5564 120.677 42.3343C120.733 41.9585 120.509 41.6602 120.45 41.2833C120.34 40.9849 120.226 40.5374 120.002 40.3871V40.3871ZM109.018 40.0114C108.618 40.4555 108.101 40.9759 108.214 41.7218C108.442 41.7992 108.725 41.8049 108.898 41.5783C108.952 41.1296 109.07 40.5375 109.074 40.0114H109.018ZM113.004 39.3658C112.776 39.4432 112.549 39.6653 112.486 39.9636C112.545 40.5615 112.483 41.231 112.479 41.8289L112.537 42.0498C112.707 42.1272 112.82 42.2764 113.048 42.2764L113.11 41.2356C113.052 40.8598 113.511 40.3394 113.056 40.0411C113 39.8145 113.118 39.5924 113.004 39.3658V39.3658ZM117.39 38.7246C117.049 38.7975 116.648 38.9421 116.307 39.1642C115.961 40.0604 115.954 41.1775 115.895 42.224C115.895 42.3731 115.895 42.5223 116.009 42.5269C116.465 41.929 116.868 41.4086 117.379 40.9657L117.438 40.7391C117.327 40.0695 117.556 39.3999 117.559 38.7246H117.39ZM115.34 38.4111C114.94 38.7869 114.539 39.231 114.139 39.5965C114.022 40.643 113.794 41.6109 113.728 42.6563C113.787 42.8066 113.9 42.8829 114.014 42.8066C114.356 42.5891 114.642 42.1416 115.043 41.9195C115.161 40.8013 115.164 39.6785 115.51 38.6377C115.51 38.5614 115.458 38.3394 115.34 38.4111V38.4111ZM107.035 37.8335C106.466 38.1991 105.889 38.6477 105.265 38.7923C105.093 39.4619 105.147 40.2089 105.147 40.883L105.257 41.1051C105.94 40.8876 106.399 39.9971 106.969 39.3993L107.09 37.9827L107.035 37.8335ZM110.848 37.7847C110.616 37.8576 110.389 38.0785 110.22 38.2288L109.871 39.7946C109.816 40.2421 109.698 40.7625 109.867 41.2157C110.264 41.2157 110.605 40.7682 110.892 40.397L110.958 38.0068L110.848 37.7847ZM104.475 37.5924C104.074 37.8862 103.674 38.2575 103.273 38.4795L103.159 38.5513L103.953 39.756C104.067 39.8289 104.18 40.1272 104.346 40.0544C104.353 39.2356 104.471 38.4886 104.529 37.7416L104.475 37.5924ZM108.582 35.5303C108.181 35.8286 107.895 36.4219 108.004 37.0915C107.718 37.9877 107.825 38.9567 107.711 39.9292L107.766 40.0784C107.935 40.0784 108.049 39.8574 108.221 39.7083C108.45 39.337 108.85 39.0433 108.684 38.4454L108.746 36.1281C108.692 35.9015 108.865 35.4586 108.582 35.5303V35.5303ZM114.616 35.2694C114.327 36.0893 113.981 36.9126 113.864 37.8042C113.86 38.0262 113.75 38.3246 113.974 38.4066C114.374 38.1082 114.774 37.6641 115.116 37.2166L115.803 36.7736L116.208 35.7329C116.262 35.5825 116.432 35.3616 116.321 35.135C115.752 35.2068 115.128 35.053 114.616 35.2694V35.2694ZM117.401 35.1444C117.001 35.8094 116.828 36.5564 116.538 37.2989C116.424 37.448 116.314 37.8238 116.538 37.973L117.849 37.6075C118.022 37.5346 118.36 37.3182 118.529 37.6838C118.415 38.6574 118.124 39.4818 118.121 40.4452C118.18 40.6718 118.176 40.8984 118.349 40.8984L119.091 40.1559C119.26 39.8576 119.66 39.6355 119.66 39.1926C118.929 37.8386 118.249 36.4938 117.691 35.0681C117.632 34.9235 117.46 35.0681 117.401 35.1444V35.1444ZM113.82 34.6669C113.25 34.6669 112.736 35.111 112.226 35.2556L111.707 36.3727C111.535 37.2643 111.413 38.2334 111.465 39.207C111.465 39.3562 111.52 39.5828 111.696 39.4325C112.266 38.7629 112.839 38.0216 113.294 37.2017L113.471 36.0892C113.588 35.6405 113.816 35.3422 113.93 34.8218L113.82 34.6669ZM105.077 34.1618C104.791 34.3064 104.445 34.3839 104.166 34.229L103.593 34.6731C103.306 34.8997 102.965 34.9669 102.679 35.3427C102.733 36.0077 102.56 36.6818 102.557 37.4288C102.557 37.578 102.671 37.7283 102.784 37.7283C103.527 37.2842 104.328 36.6921 104.955 35.8779C105.07 35.3575 105.074 34.8314 105.191 34.311C105.191 34.2347 105.133 34.1618 105.077 34.1618V34.1618ZM101.319 34.0605C101.092 34.2826 100.746 34.3543 100.522 34.6538L101.709 36.379L101.877 36.4507L101.94 35.7082C101.94 35.5591 101.771 35.5545 101.657 35.5545C101.429 35.3279 101.485 34.8804 101.485 34.5092C101.488 34.36 101.547 34.0605 101.319 34.0605V34.0605ZM92.8223 33.1059C91.515 32.8747 90.0349 32.7882 89.0062 33.9019C88.2605 34.5714 87.9775 35.6896 87.7978 36.8067C87.7388 37.6266 87.7388 38.4499 87.8491 39.1969C88.3526 41.1396 89.4837 42.7918 90.8466 43.8417C92.8336 45.2014 94.9352 46.2615 97.2678 46.5792C98.5751 46.7386 99.7687 46.4437 100.967 46.1499C101.709 45.7889 102.506 45.4951 103.134 44.9019C102.627 43.852 101.834 42.9513 101.323 41.9002C100.364 40.4017 99.2878 39.0477 98.2704 37.6221C97.135 36.2727 95.8901 34.995 94.5863 34.0169C94.0168 33.6365 93.4473 33.3382 92.8223 33.1059V33.1059ZM110.58 33.0821L109.779 34.1184C109.375 35.0874 109.43 36.3537 109.257 37.4719C109.257 37.5493 109.312 37.6985 109.426 37.7031C110.165 37.1827 111.138 36.4413 111.255 35.174C111.26 34.427 111.546 33.8337 111.55 33.1596L110.58 33.0821ZM99.0492 32.7021C98.9901 32.7739 98.9901 32.7739 98.9901 32.8467C99.0457 33.0005 99.1038 33.1508 99.1603 33.0005C99.2184 32.9287 99.2184 32.7021 99.0492 32.7021V32.7021ZM85.5565 33.0534V33.2026C85.7848 33.1354 86.0713 33.0579 86.185 32.6867C86.244 32.3884 86.6408 32.1663 86.6442 31.7951C86.0748 31.6414 85.7883 32.5375 85.5565 33.0534V33.0534ZM127.169 32.22C127.11 32.22 127.054 31.998 126.993 32.1472C126.823 32.6676 126.596 33.188 126.478 33.7084C126.647 33.935 126.875 34.1616 127.102 34.1616C127.217 33.5649 127.334 32.8942 127.169 32.22V32.22ZM107.417 31.7148C107.016 32.3069 106.557 32.7499 106.216 33.2759L106.098 33.9398C105.871 35.14 105.691 36.33 105.518 37.5257C105.514 37.7477 105.746 37.7523 105.859 37.6748C106.37 37.1544 107.002 36.6386 107.288 35.8916C107.407 34.7016 107.354 33.4297 107.645 32.3114C107.645 32.0848 107.645 31.7148 107.417 31.7148V31.7148ZM100.875 31.5164C100.588 31.743 100.243 31.965 99.9598 32.2588L99.7835 33.7517C99.7801 33.8246 99.7801 33.9783 99.8973 33.9783C100.18 33.68 100.526 33.6025 100.809 33.237C101.209 32.7121 102.01 32.3499 101.955 31.4538C101.613 31.4492 101.217 31.7476 100.875 31.5164V31.5164ZM97.6863 31.2702C97.7453 31.5696 97.9137 31.6459 98.083 31.7234L98.1455 31.203C98.201 30.6051 97.7453 31.1255 97.6863 31.2702V31.2702ZM116.34 31.0248H116.281C115.994 31.2514 115.877 31.7 115.877 32.1476C115.649 32.7408 115.304 33.2612 115.076 33.8579C114.958 33.9308 114.958 34.1574 115.131 34.1574C115.701 34.162 116.325 34.2394 116.781 33.9399C116.953 33.8727 117.181 33.7964 117.181 33.5744L116.34 31.0248ZM113.834 30.7171C113.261 31.3822 112.861 32.2009 112.519 32.9434C112.457 33.3909 112.17 33.7667 112.339 34.1379C113.082 34.0707 113.599 33.0299 114.396 32.8853C114.797 32.5141 115.197 31.7671 115.201 31.0975L113.834 30.7171ZM111.898 30.7021C111.615 30.7739 111.556 31.1451 111.502 31.3671C111.439 31.6655 111.102 31.8875 111.207 32.2633C111.439 32.3407 111.722 32.1904 112.009 32.047C112.236 31.5983 112.582 31.1508 112.695 30.6292C112.412 30.6247 112.126 30.7739 111.898 30.7021V30.7021ZM96.4701 32.2334C95.6732 31.6322 94.8797 31.1061 94.0316 30.7258C92.0368 29.8148 89.5905 30.0949 87.9333 31.5787C86.5635 32.8415 85.9906 34.7785 85.6372 36.72C85.5088 40.4447 86.9194 43.5193 89.1313 45.6977L90.2659 46.6747C92.6505 48.2609 95.2617 49.1765 98.2227 49.1958C99.3061 49.0557 100.496 49.2095 101.528 48.7665C103.406 48.2609 105.003 46.5551 106.774 45.446C107.689 44.781 108.769 44.6375 109.794 44.3426L111.105 44.5066C112.809 45.1909 114.396 46.6223 115.469 48.7904C116.152 49.9132 116.542 51.1134 116.99 52.3854C117.332 53.5856 117.497 54.7755 117.658 56.0475L117.82 58.2156C117.813 60.6775 117.064 62.914 115.52 64.3214C114.033 65.8769 111.987 65.7858 110.051 65.6264C108.229 65.6173 106.69 66.354 105.095 66.9371C103.502 67.8241 101.675 68.6292 99.8573 68.0211C98.1489 67.2605 96.5074 65.6845 95.49 63.5881C94.8138 61.9404 94.0828 60.2152 93.7451 58.3511L93.4691 57.3001C93.0802 54.9828 93.1462 52.1497 93.9517 50.0624C93.726 49.6866 93.3259 49.8312 93.0984 49.6866L92.8701 49.7549C92.4074 51.2478 92.2312 52.9638 92.1652 54.6787L92.2199 56.2502C92.3823 58.1871 92.9439 60.0615 93.5064 61.7809C94.4648 63.8773 95.4822 66.1229 97.069 67.5543C98.5422 69.1302 100.534 69.9683 102.583 69.3853C103.494 69.0187 104.46 68.8023 105.375 68.209C106.855 67.6943 108.284 66.8847 109.933 66.9712C111.245 67.2024 112.608 66.9132 113.919 66.7014C116.255 66.1958 118.033 63.1451 118.613 60.312C118.959 58.9729 118.907 57.4014 118.86 55.9074C118.694 53.8167 118.073 51.947 117.398 50.0772C116.498 47.9762 115.311 45.8036 113.724 44.2993C113.044 43.6969 112.302 43.3212 111.568 43.0137C110.429 42.7097 109.232 42.8497 108.152 43.0661C106.384 43.4999 104.956 44.9119 103.413 46.1691C101.132 48.0195 98.0569 48.1493 95.3277 47.5333C93.1644 46.9206 91.1774 45.7888 89.3665 44.1308C87.6069 42.2519 86.3647 39.6306 86.7762 36.4979C86.9524 34.9322 87.6434 33.4439 88.7823 32.5568C91.0706 30.629 94.1375 31.8485 96.122 33.7274L98.7844 36.5856C100.827 38.7583 102.41 41.6108 104.276 44.1604C104.559 43.9383 104.904 43.7937 105.133 43.4225L104.114 41.8477C102.756 39.5247 101.172 37.6401 99.5856 35.4674C98.9059 34.7933 98.2852 33.8914 97.6055 33.289L96.4701 32.2334ZM104.296 29.9746C103.894 30.3458 103.439 30.6396 103.042 30.9334C102.98 31.3821 102.811 31.6804 102.693 32.0562C102.521 32.7258 102.403 33.3953 102.285 34.0649C102.23 34.2152 102.34 34.2915 102.455 34.2915C103.141 33.9977 103.711 33.3282 104.173 32.6586C104.232 31.7624 104.346 31.02 104.468 30.1967C104.468 30.0521 104.468 29.8972 104.296 29.9746V29.9746ZM85.9679 29.4008C85.3437 29.6229 84.7743 30.1387 84.1458 30.5099L83.7421 31.7716L83.7977 31.8491C84.3116 31.7762 84.7673 31.1841 85.2778 31.0349C85.678 30.8174 85.9644 30.2981 85.9679 29.7003V29.4008ZM95.5334 28.6443L94.6193 29.2364V29.3867C95.306 29.6133 95.872 30.1428 96.4961 30.4412C96.6098 30.1474 96.7279 29.9208 96.6688 29.545H96.4449C96.1541 29.4687 95.9301 29.7671 95.6992 29.6179C95.5299 29.3913 95.8199 28.7217 95.5334 28.6443V28.6443ZM98.7809 28.519C98.3251 28.4416 97.9249 28.9574 97.5247 29.1066C97.352 29.4061 97.352 29.7762 97.411 30.1531C97.7496 30.0756 98.0907 29.7819 98.4909 29.709C98.6046 29.3378 98.7774 29.0394 98.8356 28.6682L98.7809 28.519ZM107.259 28.0571C106.917 28.5001 106.517 28.8713 106.117 29.1651C105.834 29.3871 105.548 29.4589 105.319 29.6809C105.147 30.7263 105.084 31.849 105.022 32.8944C105.364 32.8944 105.65 32.596 105.878 32.2977C106.392 31.6327 106.851 30.8902 107.365 30.1432L107.373 28.278C107.373 28.2017 107.377 28.0571 107.259 28.0571V28.0571ZM110.161 29.044C109.757 29.9356 109.074 30.6781 108.501 31.2702L108.317 34.6294H108.372C108.945 33.9644 109.515 33.3711 109.977 32.5524C110.15 32.032 110.491 31.6608 110.892 31.2178C111.406 30.4708 110.381 30.7646 110.216 30.316C109.984 29.4152 110.73 28.7502 110.789 27.9258C110.282 27.7766 110.333 28.6728 110.161 29.044V29.044ZM88.9958 27.7052C88.5401 27.7006 88.0809 27.9215 87.6251 27.9944C87.225 28.664 87.0522 29.4827 86.8204 30.2252L86.817 30.5292C86.9897 30.6009 87.1625 30.4518 87.3309 30.3789C87.6173 30.3071 88.014 30.3846 88.2458 30.1625C88.5288 29.4201 88.7641 28.5968 89.0505 27.8543L88.9958 27.7052ZM90.4716 27.6376C90.2476 27.7139 90.1304 28.0088 89.9021 27.936C89.7303 28.3789 89.4429 28.7501 89.5575 29.2034L91.2103 28.6921L91.2694 27.7196C91.1036 27.3427 90.7034 27.5647 90.4716 27.6376V27.6376ZM115.612 27.291C115.215 27.5847 114.753 27.956 114.529 28.4809C114.411 29.0013 113.956 29.2951 113.951 29.7438C114.576 30.197 115.543 30.279 116.116 29.6082L115.836 27.7385C115.781 27.5893 115.785 27.291 115.612 27.291V27.291ZM124.913 26.6838C124.509 27.5026 123.995 28.3167 123.874 29.3575C123.987 30.0328 124.616 30.1148 125.009 30.4906L125.123 30.4131L125.02 29.0683C124.906 28.3224 125.023 27.4308 124.913 26.6838V26.6838ZM129.527 26.3407L129.35 26.409C129.233 27.1606 129.005 27.8301 128.942 28.6489C128.942 28.8755 128.942 29.0975 129.171 29.0201C129.744 28.6534 130.144 27.8347 130.6 27.1697C130.659 27.0934 130.717 26.8713 130.603 26.7221L129.527 26.3407ZM113.133 26.2305C112.218 27.1176 111.418 28.3075 110.899 29.6467C110.896 29.7958 111.013 29.7241 111.069 29.7958C111.865 29.7286 112.662 29.7332 113.349 29.2902C113.75 28.5478 114.209 27.8019 114.664 26.9866L114.606 26.9103C114.154 26.6837 113.643 26.4571 113.133 26.2305V26.2305ZM104.82 26.2451L104.769 26.0959C104.081 26.688 103.339 26.9101 102.598 27.3485C102.425 28.3164 102.19 29.3618 101.962 30.2534C102.355 30.4082 102.586 29.9653 102.932 29.815L104.647 27.8108L104.82 26.2451ZM102.146 25.999L102.091 25.9273C101.863 26.1482 101.692 26.5194 101.521 26.7415C100.889 27.2619 100.32 27.7094 99.747 28.3027C99.5743 28.9677 99.3425 29.5689 99.2253 30.2396C99.1706 30.6871 99.0526 31.1312 99.1663 31.5787C99.4502 31.5833 99.5674 31.285 99.7358 31.0629C99.8538 30.9866 100.022 31.0629 100.192 30.9183L101.165 29.8775C101.396 28.8367 101.518 27.7868 102.028 26.8952L102.146 25.999ZM92.8667 26.3841C92.5837 26.6062 92.2972 26.8328 92.0698 27.0548C91.9561 27.5023 91.9526 28.1001 92.121 28.4714C92.404 28.4759 92.6358 28.1776 92.9222 27.9555C93.4917 27.6617 93.3259 26.7656 93.6123 26.1677C93.6714 25.349 93.0394 26.1632 92.8667 26.3841V26.3841ZM111.365 25.7685C111.365 26.2889 110.682 26.9584 111.252 27.185L112.163 26.1442C112.221 26.0714 112.28 25.9222 112.226 25.773C111.935 25.7685 111.597 25.5464 111.365 25.7685V25.7685ZM89.9725 25.3971C89.5714 25.6954 89.2268 25.9892 88.9403 26.4379V26.587H89.3952C89.6235 26.4379 90.0237 26.4424 90.0237 25.9175C89.969 25.7683 90.1409 25.4688 89.9725 25.3971V25.3971ZM126.735 25.1989L126.68 25.2717C126.625 25.5701 126.849 25.7967 127.021 26.0278C127.132 26.1725 127.36 26.1007 127.477 25.9516C127.819 25.6521 127.874 26.3273 128.157 26.4811C128.33 26.4811 128.613 26.5585 128.781 26.3364C128.84 26.1827 128.84 25.8889 128.671 25.8115C128.047 25.5849 127.422 25.2763 126.735 25.1989V25.1989ZM109.893 24.9392C109.724 24.8618 109.551 25.0838 109.437 25.1555C108.468 25.5996 108.46 27.0162 108.173 28.0616C108.114 28.6594 108.053 29.329 108.111 29.9268H108.221C108.736 29.4064 109.081 28.6639 109.482 27.9944C109.823 27.1745 110.341 26.3558 110.69 25.4641C110.521 25.315 110.231 25.315 110.062 25.233L109.893 24.9392ZM95.7243 24.6154C95.3241 24.9092 94.9239 25.0538 94.5784 25.4307C94.2373 26.2494 94.1783 27.1411 94.1748 28.0372C94.1748 28.1864 94.226 28.4084 94.3988 28.2638C94.9682 28.0463 95.3684 27.2993 95.8867 26.9293C96.0551 26.4089 96.2868 25.8885 96.3459 25.2906H96.1766C95.9492 25.1415 95.8936 24.7657 95.7243 24.6154V24.6154ZM124.406 24.6648C123.665 25.5507 123.26 26.7418 122.687 27.7143C122.452 29.3483 122.786 30.8514 123.01 32.3454C123.235 33.2416 123.914 33.4682 124.428 33.9214C124.88 34.2972 125.449 34.3735 125.905 34.8267C126.129 34.9041 126.412 35.2025 126.644 35.0533C125.678 34.0034 124.605 33.1016 123.693 31.9742C123.415 30.9289 123.08 29.8061 123.253 28.6104C123.488 27.72 123.884 26.8226 124.348 26.0039C124.575 25.5609 124.972 25.2626 125.199 24.8185C124.975 24.5873 124.634 24.3653 124.406 24.6648V24.6648ZM97.7157 24.9246L97.0803 26.192C96.852 26.8615 96.5621 27.4593 96.503 28.2018C96.503 28.4284 96.6176 28.5776 96.7313 28.5047C97.359 28.1335 97.9874 27.7679 98.5604 27.1747L98.9024 25.9073C99.0196 25.2332 99.3095 24.4862 99.4241 23.8211C98.8547 24.1878 98.2852 24.4816 97.7157 24.9246V24.9246ZM107.737 23.1275C107.222 23.4987 106.767 23.9417 106.311 24.3846C105.963 25.4311 105.621 26.4765 105.5 27.5935C105.5 27.8156 105.444 28.1151 105.668 28.1914C106.466 27.8976 107.039 26.785 107.612 25.8934C107.67 25.069 107.674 24.1728 107.851 23.3541C107.851 23.2049 107.792 23.132 107.737 23.1275V23.1275ZM114.83 23.778L114.32 24.3713C114.088 24.8188 113.629 24.9634 113.515 25.4121C113.798 25.6375 114.026 25.7878 114.312 25.8596C114.705 25.9416 115.274 26.2456 115.561 25.8698C115.619 25.0499 115.451 24.3758 115.513 23.6334C115.517 22.7372 114.944 23.5514 114.83 23.778V23.778ZM128.399 23.1945C127.771 23.0407 127.033 22.9633 126.632 23.5554C126.519 23.7058 126.57 23.9324 126.684 24.0815C127.599 24.3844 128.506 24.693 129.416 25.0688C130.041 25.3 130.552 25.8978 131.232 25.9024C131.345 25.9024 131.459 25.8306 131.459 25.604C131.408 25.3102 131.121 25.3045 131.008 25.2282C130.155 25.0734 129.645 24.2501 129.024 23.5748L128.399 23.1945ZM101.25 23.5314C100.963 23.8309 100.618 23.8252 100.335 24.0518C100.045 24.9434 99.6446 25.7576 99.4719 26.7312C99.4675 26.8804 99.3573 27.107 99.5231 27.107C100.037 26.9578 100.438 26.2883 100.955 25.917C101.356 25.4741 101.584 24.8763 102.039 24.5096C102.668 24.1395 102.557 23.093 102.73 22.4235C102.219 22.7901 101.764 23.2376 101.25 23.5314V23.5314ZM93.5134 21.8363C92.6575 22.6505 91.8015 23.3929 91.1149 24.2845C90.8831 25.0304 90.6556 25.7728 90.7069 26.5916C90.9899 26.6736 91.2216 26.2978 91.5003 26.2306C91.9595 25.8548 92.3597 25.4882 92.7599 25.0406C92.8189 24.2982 93.1098 23.7004 93.2278 22.9545C93.2816 22.5833 93.5134 22.2121 93.5134 21.8363V21.8363ZM113.202 21.9709C112.405 22.5641 111.722 23.3054 111.031 24.2699C110.977 24.3474 110.918 24.4966 111.031 24.6457C111.66 24.7994 112.399 24.8051 113.082 24.6605C113.65 24.3656 114.055 23.474 114.511 22.8773C114.114 22.5015 113.662 22.1257 113.202 21.9709V21.9709ZM134.497 21.2964C134.321 21.5948 134.206 21.8943 134.203 22.2643C134.148 22.713 133.976 23.0888 133.689 23.2334C133.233 23.5272 133.516 24.3516 133.116 24.65C132.715 25.0166 132.315 25.4596 132.142 25.9845C132.087 26.062 132.142 26.2066 132.256 26.2066C132.598 26.2886 132.936 26.1394 133.226 25.7682C133.799 24.8766 134.259 23.9804 134.659 22.9396C134.772 22.5684 135.062 22.1972 134.89 21.7451C134.835 21.5993 134.666 21.301 134.497 21.2964V21.2964ZM110.536 20.8339L109.279 21.7972C108.534 22.3131 108.699 23.585 108.53 24.4767L108.585 24.7033C108.927 24.7033 109.095 24.1829 109.382 23.9608L110.414 23.2184L112.358 21.3679L112.299 21.2962C111.671 21.2142 111.16 20.7656 110.536 20.8339V20.8339ZM96.9918 20.2168C96.3051 20.588 95.6254 20.7326 94.9388 21.0264C94.2521 21.9898 93.9031 23.1855 93.6748 24.4529C93.6748 24.602 93.7885 24.6738 93.8988 24.602C94.5273 24.2354 95.2139 24.0133 95.7287 23.272C96.0152 22.8233 96.5256 22.9008 96.6428 22.3029C96.8156 21.7108 96.9293 21.0355 97.1064 20.4434C97.1064 20.2942 97.1064 20.1451 96.9918 20.2168V20.2168ZM128.407 20.2124C128.297 20.2842 128.124 20.4333 128.238 20.5837L129.487 21.2623C130.107 21.7155 130.791 22.3179 131.301 22.992C131.698 23.3678 132.035 24.2697 132.605 23.8256C132.664 23.6001 132.437 23.3735 132.381 23.1469C131.246 21.7201 130.118 19.4745 128.407 20.2124V20.2124ZM115.946 19.7501C115.719 19.8264 115.546 19.8993 115.377 20.1202C114.807 20.2648 114.29 20.5643 113.834 20.9298L113.775 21.2293C114.062 21.6768 114.573 21.7542 114.914 22.0583C115.197 22.1391 115.48 22.4386 115.708 22.0628C115.826 21.3933 115.944 20.6508 116.06 19.8993L115.946 19.7501ZM100.354 18.6748C99.5561 19.2624 98.7592 19.7828 98.0717 20.597C97.8364 21.7152 97.3225 22.6843 97.036 23.8013L97.0326 24.028C97.4293 23.8788 97.7748 23.7342 98.1194 23.5121C98.7444 22.8425 99.372 22.2504 99.8356 21.4305L99.9458 21.0605C100.064 20.2406 100.239 19.4936 100.354 18.6748V18.6748ZM106.219 18.7138C105.47 19.9037 104.618 21.0163 103.645 21.8316L103.64 22.5775C103.409 23.3245 103.123 23.9895 103.005 24.8139L103.001 25.7818L103.057 26.0084C103.344 26.0859 103.516 25.8592 103.74 25.6429C103.971 25.2671 104.317 25.1942 104.486 24.823C104.827 24.3755 105.286 23.9325 105.573 23.4884C105.635 21.769 105.93 20.2078 106.333 18.7138C106.333 18.5646 106.219 18.7138 106.219 18.7138V18.7138ZM107.24 18.645L107.186 18.4959C107.013 18.7179 106.954 19.0937 106.954 19.392C106.667 20.2837 106.491 21.2527 106.488 22.2263C106.488 22.5247 106.37 22.8959 106.598 22.9733C107.285 22.8287 107.744 21.8596 108.313 21.3392C108.601 20.5968 109.794 20.4579 109.404 19.4068C109.176 19.3294 109.003 19.4797 108.835 19.5515L107.747 20.2165C107.634 20.2882 107.464 20.3656 107.351 20.139L107.24 18.645ZM113.048 18.0144C112.537 18.6077 111.964 19.1281 111.564 19.8694C111.734 20.096 112.078 20.0243 112.302 20.096C112.475 20.1735 112.475 20.5492 112.699 20.4718L114.524 19.3684L114.753 19.1475C114.529 18.7717 114.129 18.5451 113.79 18.3185C113.507 18.3185 113.339 18.0144 113.048 18.0144V18.0144ZM131.834 18.0682C131.382 17.7687 130.754 17.2392 130.243 17.6821C130.243 17.8313 130.243 17.9816 130.298 17.9816C131.488 18.5157 132.509 19.7933 133.358 20.9878C133.472 21.1416 133.641 21.0698 133.755 20.9207C134.041 20.0245 133.079 19.4938 132.738 18.8972L131.834 18.0682ZM103.035 17.2004L102.238 17.7937C101.955 18.0146 101.554 17.9326 101.378 18.3084C101.319 19.7249 100.746 20.916 100.684 22.3372C100.684 22.4818 100.738 22.4818 100.853 22.4818C101.426 21.9659 101.94 21.3738 102.506 21.0026C103.082 20.5585 103.2 19.8126 103.204 18.9927C103.145 18.4678 103.431 18.0248 103.263 17.4987C103.263 17.3496 103.211 17.123 103.035 17.2004V17.2004ZM134.343 17.2629C134.107 18.7569 135.588 18.3185 135.812 19.5176C135.981 19.8888 135.808 20.1883 135.864 20.5584C135.977 20.785 136.147 20.785 136.374 20.785C136.947 20.4912 137.064 19.6725 137.12 18.9255C137.013 18.4005 136.726 17.8027 136.389 17.4269C135.765 17.0511 134.912 16.5934 134.343 17.2629V17.2629ZM97.9761 16.6412C97.2304 17.4553 96.4848 18.4198 95.7391 19.2386C95.6844 19.3115 95.6288 19.4606 95.6844 19.5369C96.3085 19.316 96.8268 18.8776 97.5099 18.8002C97.9101 18.2843 98.0829 17.4656 98.0317 16.7186L97.9761 16.6412ZM132.124 16.7278C131.837 16.7232 131.496 16.6458 131.323 16.8724C131.323 16.9453 131.323 17.0227 131.382 17.0227C132.007 17.3211 132.572 17.7743 133.141 18.2264C133.255 18.0055 133.314 17.6297 133.314 17.3302C132.976 16.959 132.462 17.0273 132.124 16.7278V16.7278ZM127.455 16.5442C126.089 17.4313 124.829 18.7659 123.289 19.0551C122.269 19.1997 121.243 18.8911 120.677 17.8412L120.619 17.9187C120.446 18.6645 120.729 19.2624 121.126 19.7156C121.916 20.7609 123.286 20.6209 124.256 20.1825C125.681 19.4457 126.823 18.0382 127.966 16.5499C127.797 16.4725 127.628 16.5442 127.455 16.5442V16.5442ZM115.561 16.1642C115.05 16.6128 114.481 16.8292 114.081 17.3496L114.132 17.4988L116.182 18.6363L116.292 18.5589C116.523 17.8848 116.696 17.1423 116.758 16.3236L115.561 16.1642ZM104.346 16.3862C104.063 17.1286 104.001 18.0248 103.942 18.8481C103.824 19.2968 103.879 19.8172 103.935 20.1929C104.449 19.8946 104.908 19.2296 105.31 18.5589C105.481 18.1888 105.312 17.7356 105.371 17.2869C105.371 16.6174 105.543 16.0252 105.548 15.35C105.036 15.4946 104.746 16.0924 104.346 16.3862V16.3862ZM116.99 14.8292C116.762 15.0512 116.424 15.1229 116.307 15.4987C116.476 15.649 116.644 15.5762 116.817 15.5762C117.044 15.5762 117.1 15.2824 117.159 14.984C117.159 14.9066 117.103 14.7574 116.99 14.8292V14.8292ZM115.4 14.1455C114.944 14.0681 114.998 14.7433 114.827 15.0417C114.713 15.2637 114.654 15.6349 114.768 15.7841C115.051 15.6395 115.395 15.4174 115.678 15.0474C115.568 14.7479 115.513 14.4495 115.4 14.1455V14.1455ZM133.443 13.7496C132.932 13.4467 132.422 13.5184 131.962 13.7359C131.566 13.8122 131.334 14.1789 130.937 14.1789C130.254 14.3998 129.571 14.7665 128.884 14.9885C128.145 15.2049 127.349 15.1229 126.665 15.4167C125.123 16.1546 123.936 14.5786 122.397 14.8678C121.882 14.9396 121.313 15.2345 121.141 15.9041C120.968 16.5007 121.082 17.176 121.42 17.5518C122.21 18.6746 123.638 18.1587 124.55 17.7203C125.861 16.9836 126.948 15.4224 128.539 15.5807C129.222 15.5864 129.796 15.2914 130.42 14.9976C131.561 14.3326 132.983 14.6412 134.005 15.3973C134.519 15.5476 134.853 16.6704 135.371 15.9997C135.544 15.403 134.975 14.9544 134.692 14.5786L133.443 13.7496ZM116.255 13.3308C116.141 13.3308 116.086 13.48 116.086 13.5574C116.024 13.8557 116.083 14.1495 116.251 14.3761C116.424 14.4536 116.593 14.1552 116.766 14.0106C116.715 13.7111 116.369 13.5574 116.255 13.3308V13.3308ZM101.403 12.6315C100.603 13.4468 99.8017 14.2656 99.1185 15.2289L98.7071 18.3615V18.7373H98.7626C99.3868 18.2169 100.188 17.8502 100.592 16.8823L101.227 13.6051C101.227 13.2293 101.518 12.9355 101.459 12.6315H101.403ZM103.23 12.3438C102.943 12.493 102.601 12.3438 102.429 12.7196C102.025 14.0587 101.566 15.3979 101.503 16.8873L101.558 16.9648C102.127 16.5935 102.814 16.2998 103.27 15.6302C103.329 14.512 103.508 13.3937 103.736 12.4258L103.23 12.3438ZM114.382 12.2757C114.099 12.0491 113.813 12.4932 113.53 12.4203C113.412 12.6423 113.584 12.7198 113.698 12.8689C114.037 13.3165 114.547 13.3939 115.061 13.2493C115.179 13.1775 115.403 13.1001 115.347 12.8018C114.951 12.8018 114.664 12.5752 114.382 12.2757V12.2757ZM125.082 12.2712C124.855 12.647 124.682 13.1674 124.733 13.6878C124.847 14.0636 125.02 14.5122 125.299 14.5897C125.645 14.8151 126.096 14.748 126.437 14.5213C126.724 14.4496 126.896 14.0066 126.955 13.6297C126.955 13.1822 126.904 12.7336 126.731 12.3578C126.338 11.7611 125.538 11.9057 125.082 12.2712V12.2712ZM117.684 11.625C117.398 11.9962 116.659 12.2183 116.828 12.8878C116.997 13.1862 117.225 13.3411 117.508 13.4128C117.794 13.0416 117.912 12.4494 118.022 11.9234C117.971 11.7024 117.798 11.625 117.684 11.625V11.625ZM118.037 9.76026C117.864 9.91057 117.467 10.0552 117.632 10.431C117.805 10.5801 117.974 10.8068 118.202 10.8785C118.426 10.7339 118.43 10.2864 118.544 9.98686C118.661 9.53934 118.206 9.61678 118.037 9.76026V9.76026ZM111.774 9.41829C111.663 9.41829 111.663 9.56746 111.663 9.6449C112.001 10.3919 112.28 11.2152 112.85 11.6684C113.019 11.8905 113.302 11.9679 113.471 11.8176C113.647 11.7459 113.702 11.5238 113.588 11.3746C113.023 10.6231 112.516 9.64945 111.774 9.41829V9.41829ZM128.168 8.85921C127.999 8.93209 127.94 9.08126 127.94 9.23043C127.885 9.60165 128.053 9.82826 128.277 10.0549C128.45 10.0549 128.675 10.2086 128.851 9.98654C129.02 9.6882 128.738 9.46159 128.678 9.16325C128.509 9.08582 128.341 8.85921 128.168 8.85921V8.85921ZM123.047 8.44957C122.768 8.37328 122.422 8.15123 122.14 8.36873C121.508 8.66251 120.883 9.48125 120.825 10.3774C120.876 10.9753 120.99 11.5731 121.387 11.9489C122.746 13.0807 124.061 11.597 125.372 11.3032C126.566 11.014 127.36 12.213 128.267 12.8929L129.009 12.9748C129.064 13.0466 129.009 13.1969 129.009 13.1969C128.833 13.5681 128.55 13.5681 128.264 13.6399C127.977 13.7116 127.694 13.3358 127.525 13.5579C127.525 13.7845 127.409 14.232 127.58 14.3049L128.55 14.2377C129.516 13.871 130.486 13.428 131.396 12.8405L131.456 12.6902C130.945 11.8669 130.206 11.3362 129.586 10.8113C129.189 10.2863 128.843 11.1051 128.389 10.8022C127.653 10.1269 126.625 10.7145 125.831 10.3342C124.98 9.51086 124.068 8.75817 123.047 8.44957V8.44957ZM120.104 4.85103L119.932 4.99564C119.811 6.11842 119.866 7.38012 119.693 8.5029C119.219 12.083 117.9 15.1382 117.258 18.6409C116.85 21.104 116.728 24.0134 117.056 26.6302C117.222 28.4954 117.669 30.2877 118.114 32.0846C118.621 34.1036 119.525 36.0508 120.883 37.4047C121.28 37.9297 121.798 37.3376 122.305 37.4139C123.388 37.1975 124.182 37.9491 125.207 38.031C125.894 38.0356 126.632 37.891 127.143 37.144C127.26 37.0005 127.26 36.701 127.092 36.5518C125.5 35.6466 123.796 35.0339 122.551 33.3088C121.989 31.8876 121.941 30.1716 121.717 28.5239C121.949 27.7826 122.121 27.1119 122.463 26.5152C122.981 25.4744 123.44 24.3607 124.182 23.542C124.697 23.3199 125.094 23.9952 125.604 23.8449C125.949 23.7777 125.781 23.1799 126.007 22.8815C126.236 22.5057 126.578 22.2894 126.978 22.2165C128.006 22.0719 129.082 22.3805 129.876 23.2812C130.331 23.8073 130.783 24.4097 131.408 24.6351C131.462 24.6351 131.635 24.7126 131.635 24.5634C130.449 22.7608 128.972 21.556 127.327 21.0983L127.271 20.8774C127.212 20.4959 127.444 20.275 127.668 19.9812C128.186 19.4608 128.814 19.1716 129.494 19.3207C130.805 19.7011 131.823 20.9058 132.781 22.2552C132.896 22.4044 133.124 22.3326 133.296 22.188C133.351 22.0377 133.237 21.884 133.127 21.7348C132.106 20.6075 131.202 19.1852 130.008 18.6557C129.612 18.502 129.211 18.7229 128.873 18.42C128.814 18.3471 128.759 18.1205 128.873 18.0488C129.387 17.5284 129.846 16.7859 130.416 16.4204C131.271 15.8271 132.58 15.9091 133.377 16.4386C133.601 16.5115 133.828 17.0365 134.056 16.7381C134.114 16.5889 134.114 16.3669 134.056 16.2177C133.49 15.6153 132.752 15.3887 132.069 15.3068C130.93 15.4468 130.019 16.1893 128.99 16.5593C127.962 18.0442 126.82 19.2296 125.678 20.3422C124.476 21.3055 122.997 21.7394 121.574 21.2816C120.722 20.8284 119.874 19.7785 119.763 18.5066C119.767 17.837 119.884 17.1674 120.285 16.6459C120.343 16.1984 120.343 15.678 120.519 15.2293C120.92 14.0348 122.004 13.8947 122.97 13.9767C123.311 13.9767 123.594 14.3525 123.936 14.2079L123.943 13.1625L123.884 13.0851C122.915 13.6055 121.607 13.519 120.814 12.6182C120.358 12.2425 120.076 11.6446 120.024 10.8976C119.855 10.2998 120.027 9.62568 120.259 9.03354C120.773 8.13623 121.405 7.39493 122.257 7.39948C123.907 7.41428 125.151 8.61336 126.514 9.59721C126.746 9.6735 126.97 9.82382 127.198 9.59721L127.319 8.55642L127.205 8.33437C126.408 7.65455 125.559 7.05217 124.707 6.52267C123.172 5.8383 121.754 5.08219 120.104 4.85103V4.85103ZM13.4457 4.48842C11.6306 2.68127 9.07407 1.92061 6.79275 2.87485C4.39771 3.9054 2.4506 7.02777 2.2084 10.3813C2.2084 10.5362 2.03913 10.6079 2.14937 10.7571C1.97315 12.0974 2.02871 13.3693 2.0209 14.7141C2.24139 16.954 2.68585 18.9729 3.30653 20.9202C4.76925 25.5559 7.88393 29.1599 10.9439 32.2436C13.5516 34.504 16.1637 36.6857 18.9442 38.272C20.8731 39.553 22.9191 40.464 25.0242 41.0755C26.901 41.6107 28.7813 40.7293 30.4862 41.7121C32.2458 42.5456 33.146 44.9403 33.8214 46.9593C34.6113 49.2823 34.9421 51.8216 35.3275 54.361C35.7207 56.7557 36.5064 58.9238 37.5793 60.9485C38.1453 62.1475 38.9934 63.1211 39.7287 64.1767C40.918 66.1228 42.6776 67.3276 43.464 69.5731C43.8573 70.6959 44.0778 72.4928 43.504 73.6065C43.3903 73.9822 43.1038 74.1986 43.0456 74.5744L44.1212 75.9967L45.2532 77.8755C45.9876 79.4458 46.3773 81.1664 46.4832 83.0317C46.5388 84.0816 46.5344 85.1998 46.5865 86.2451C46.7549 86.3943 46.8695 86.1677 47.0414 86.1005C47.4972 85.6576 48.0076 86.1051 48.4052 86.4091C48.801 87.2278 49.4807 87.9805 49.4773 89.1022C49.4738 90.0712 48.959 90.7408 48.3861 91.3341L48.3279 91.4832C49.3453 93.0581 50.1934 94.7787 51.2108 96.2773C52.3428 98.5274 53.5286 100.773 54.6571 103.023C55.6745 104.748 57.1329 106.421 58.5505 107.255H65.0637L65.2286 106.907C65.4014 106.46 65.2321 105.934 65.2321 105.413C65.1774 105.037 64.9534 104.662 64.8979 104.214C65.0706 103.843 65.4708 103.694 65.6991 103.4C65.6436 102.426 64.5046 102.643 64.5098 101.597C64.3987 100.85 64.0029 100.176 63.5497 99.7276C63.2667 99.4247 62.9256 99.419 62.7563 99.0478C63.0992 98.5274 63.5497 99.1252 63.9499 99.2072C64.575 99.805 65.3093 100.557 65.1922 101.679C65.5889 102.127 66.1002 102.204 66.496 102.729C66.779 102.735 66.8971 102.215 67.0143 101.838C66.7313 101.313 66.2755 101.159 65.8198 101.086C65.4231 101.082 65.3684 100.479 65.3128 100.114C64.8614 99.2117 64.1227 98.6048 63.4985 98.007C62.8735 97.5549 61.9082 97.7713 61.2797 98.0696C60.9932 98.3588 60.7615 99.1058 60.3066 99.0295C59.5166 97.7565 58.7232 96.4082 58.106 95.0588C57.3673 93.7094 57.033 92.138 56.4714 90.7169C55.9097 88.8471 55.8611 86.679 55.4132 84.7375C55.303 84.0622 55.0755 83.3881 54.6232 82.9394L52.0746 80.2315C51.1084 79.1816 50.3184 77.8323 49.9252 76.3383C49.6439 75.5867 49.8193 74.6177 49.7672 73.7215C49.8818 72.9745 49.9399 72.3049 50.2307 71.6353C50.8618 70.1459 52.1145 69.4091 53.4262 69.4957C54.1093 69.4239 54.6198 69.9489 55.1858 70.2529C56.0964 70.8542 56.7726 71.8323 57.3386 72.9563C57.5105 72.3584 57.4002 71.6832 57.3456 71.0865C57.0079 69.6642 56.6737 68.3205 56.5079 66.8265C56.4601 65.2608 56.8603 63.7668 57.665 62.6531C58.1208 62.283 58.5209 61.8389 59.0314 61.8389C59.4871 61.9209 60.0609 61.8492 60.2259 62.4459C59.9975 62.9663 59.3144 62.5142 58.9142 62.808C57.7753 63.5504 57.599 65.2653 57.6468 66.7593C57.7015 67.4335 57.757 68.1759 58.2675 68.4071C60.1408 69.6118 62.1869 70.2962 64.2928 70.836C65.6548 71.0717 67.0768 71.0808 68.4431 71.3848C70.1506 71.6262 71.8 71.9337 73.5084 72.0214C75.044 72.0305 76.5241 71.8904 78.0042 71.6786C79.8263 71.3894 81.4835 70.5035 83.2465 69.9967C84.4436 69.7804 85.5826 69.5629 86.8317 69.5014C88.2016 69.4331 89.5098 69.5925 90.8761 69.4479C91.7902 69.3078 92.6982 69.539 93.6635 69.4672L93.726 69.3226L93.3259 69.318C93.1574 69.3943 92.9847 69.1689 92.8119 69.2406L92.0732 69.1632L91.5628 68.932L90.4794 68.9992C89.686 68.9172 88.8257 68.8409 88.0922 68.4595C87.8639 68.3103 87.5809 68.5323 87.4055 68.6815C86.0418 69.1199 84.5617 68.735 83.4262 67.8332L82.8568 67.9778C82.0599 68.7157 81.2005 69.457 80.2308 69.6016C79.3193 69.5196 78.2985 69.5879 77.5563 68.9855C76.1934 69.2019 74.6543 69.342 73.4606 68.4355C73.1811 68.2818 73.0092 67.684 72.616 67.906C70.9623 67.7466 69.6584 66.4701 68.4683 65.1162C68.0716 64.8896 67.5021 64.9613 67.2191 64.5138C66.937 64.3589 67.2782 64.138 67.1644 63.9114C65.8571 63.309 64.5524 61.8059 63.877 60.157C63.8214 60.0079 63.9352 59.787 63.8258 59.6321C63.0871 58.8805 62.4073 57.9798 61.9559 56.857C62.1834 56.3412 62.7528 56.6395 63.094 56.3457C63.0393 55.8982 62.7563 55.5225 62.5879 55.1467C62.5323 54.9246 62.3049 54.6935 62.5323 54.4714C63.2746 54.4042 63.9577 54.4817 64.6956 54.4862C64.8102 54.5637 64.8684 54.3416 64.9274 54.1924C64.9821 54.1195 65.1001 53.8212 65.2694 53.9704C66.1766 54.2015 67.1462 54.3507 67.9396 54.9588C68.3364 55.3346 68.6775 55.8595 69.0708 56.0132C70.1541 56.0952 71.0621 56.6976 72.0865 57.0791C72.9936 57.4549 73.7914 58.211 74.6985 58.7359C74.9268 58.9671 75.2645 58.8908 75.492 59.1937C76.5172 58.9773 77.7143 59.0593 78.677 59.5125C79.5364 59.2176 80.2751 58.8521 80.9617 58.2588C81.7586 57.3672 82.6736 56.7796 83.5877 56.11C83.8707 55.8162 83.8195 55.2184 84.2197 54.9201C85.0209 54.1059 85.9906 53.59 86.8421 52.9968L87.5878 52.2555C87.8752 51.9617 88.1573 51.6622 88.3891 51.291C88.1616 50.9881 87.8231 50.6168 87.5366 50.3185V50.1682C88.0549 48.9782 89.0245 48.607 89.8804 48.0149L89.7667 47.7928C88.4073 46.7384 87.0444 45.2341 86.1998 43.3598C85.4098 41.49 84.7926 39.5485 84.9141 37.2312C85.0313 36.5605 84.9766 35.8146 85.2631 35.2168C85.3221 34.923 85.494 34.5518 85.3803 34.3206C85.0391 34.2477 84.5799 34.6918 84.4141 34.1714C84.4697 33.6454 84.7015 33.125 84.7084 32.4508C84.0799 32.8221 83.3932 33.1159 82.7691 33.2605C82.5408 33.3322 82.1996 33.4825 82.0859 33.2559C82.0894 32.6581 82.3767 32.2094 82.6033 31.7619C82.6033 31.689 82.6076 31.4681 82.493 31.4681C81.7474 31.8337 80.8914 32.1274 80.098 32.3449C77.4208 33.2263 74.5145 33.6511 71.609 33.93L64.667 33.9585C64.5524 34.0314 64.4977 33.8093 64.4387 33.9585L61.9334 33.8674C59.0314 33.9209 56.1849 33.4484 53.4557 32.9086L52.3202 32.682C51.1266 32.5955 50.0432 32.3643 48.9078 32.1331C46.6308 31.7471 44.2983 31.4294 41.9067 31.4875L38.549 31.7619L36.7859 32.0511C34.1634 32.6285 31.8265 33.9585 29.487 35.5823C28.0026 36.1665 26.4088 36.6094 24.7004 36.2963C23.9035 36.1414 23.1648 35.9877 22.4269 35.6074C19.7558 34.6964 17.1993 33.3322 14.7609 31.6754C13.398 30.7689 12.0933 29.6416 10.7894 28.5086C9.31627 26.9337 7.83966 25.5069 6.53927 23.5506C5.01144 21.1559 3.99752 18.5345 3.55654 15.4702C3.10861 13.2976 3.23361 10.6853 3.81002 8.60376C4.73192 6.1464 6.50281 4.14225 8.60791 4.00674C10.4882 4.01585 12.1349 4.93138 13.3207 6.80116C13.9449 7.92394 14.1654 9.27332 14.2166 10.6899C14.2131 11.8855 13.8095 13.0801 14.1471 14.2028C14.7123 14.8007 15.109 15.5522 15.5066 16.2992C15.6159 16.5976 15.6715 17.0462 15.958 17.1225C16.4137 16.9779 16.5274 16.2309 16.7002 15.7116C16.8764 14.7426 17.3938 13.5481 16.8833 12.5016C16.4319 11.6783 15.866 10.8539 15.701 9.88026C15.4215 8.30997 14.9145 6.88884 14.1246 5.53946L13.4457 4.48842ZM118.628 3.94472C117.21 2.51904 114.988 3.24554 113.339 3.53022C112.078 3.89689 110.885 4.41159 109.742 5.14949C107.292 6.70043 104.835 8.40168 102.778 11.0765V11.1483C103.402 11.2257 103.971 11.0811 104.541 10.7873C104.596 10.7144 104.827 10.6427 104.886 10.7919C104.937 11.9101 104.534 12.7288 104.361 13.7024C104.361 14.0008 104.188 14.2946 104.357 14.5212L106.356 13.1866C106.524 13.1194 106.697 12.7436 106.924 13.042C107.039 13.2731 107.035 13.4952 106.921 13.7172C106.634 14.4585 106.575 15.283 106.399 16.1017C106.341 16.4729 106.286 16.8487 106.396 17.1482L107.48 16.4057C107.88 16.2611 108.111 15.5916 108.504 15.7453C108.732 16.1211 108.501 16.5652 108.615 17.0127L108.379 18.7276C109.062 18.4384 109.635 17.9191 110.205 17.3213C110.323 17.2484 110.491 17.3213 110.547 17.475C110.378 18.1457 110.201 18.8916 110.312 19.6386L110.371 19.8606C110.712 19.4894 111.054 18.969 111.454 18.5978C112.31 17.7836 112.997 16.8202 113.915 16.0061L114.088 15.037C114.143 14.8104 114.261 14.4392 114.205 14.1363C112.784 13.9097 111.707 12.0308 111.146 10.5368C110.977 10.161 110.863 9.71234 110.524 9.48574C110.524 9.414 110.524 9.33657 110.583 9.18739L111.439 8.44495C112.637 7.03863 114.18 5.85322 116.002 6.46471C116.626 6.76419 117.416 7.22196 117.643 8.18987C117.584 8.41192 117.413 8.48822 117.243 8.41192C116.222 7.43376 114.514 7.57269 113.544 8.38801C113.375 8.53718 113.089 8.6818 113.089 8.90727C113.599 9.43336 113.992 10.1804 114.389 10.859C114.727 11.7552 115.462 12.0592 116.262 11.9146L117.005 11.1722L116.894 10.2043C117.13 9.23522 117.926 8.7877 118.61 8.57021C118.955 7.38024 119.19 6.03541 119.025 4.69172L118.628 3.94472ZM138.802 110.488H5.92984V107.255H9.79367C9.96642 107.106 9.96295 106.599 9.90826 106.45C9.17299 104.951 9.01153 103.082 9.07403 101.217C9.08185 100.022 9.25373 98.9047 9.37179 97.7865L9.6652 95.5455L10.081 91.8207C10.1426 90.5488 10.2607 89.3588 10.3232 88.0869C10.2755 86.0725 10.3961 84.1298 10.4586 82.1109C10.5871 79.428 11.9022 77.3453 13.3311 75.4858C14.2461 74.5987 15.2748 74.0066 16.2991 73.4953C17.497 73.0523 18.5257 72.1653 19.4988 71.2019C20.9277 69.044 21.1664 66.138 21.5779 63.3766L21.8244 58.8229L21.9451 57.0305C22.0701 54.1257 22.7055 51.436 23.8558 48.9787C24.2559 48.1645 24.8844 47.422 25.4539 46.7525C25.4608 45.9337 25.3506 45.0375 25.6371 44.2905C25.6961 43.9193 26.0971 43.6255 25.8688 43.2498C25.0164 42.8637 24.0502 42.7146 23.1977 42.3342C20.8105 41.4232 18.4814 40.3585 16.2661 38.8509C13.5455 36.8171 10.8779 34.6342 8.32835 32.0755C6.17203 29.8971 4.19193 27.0446 2.7813 24.1249C1.82293 21.8794 1.03298 19.4847 0.761269 16.8724C0.37584 14.1065 0.555533 11.1914 1.02169 8.58482C1.36719 7.24569 1.88544 5.97829 2.5174 4.78833L3.6598 3.15427C4.34645 2.4847 5.03311 1.67051 5.88904 1.37672C6.51406 1.07724 7.08265 0.711709 7.71114 0.716264C8.39432 0.643386 9.13653 0.504462 9.76069 0.731068C10.4994 0.811917 11.1826 1.11596 11.8658 1.4143C12.5455 1.56917 13.115 2.1761 13.7391 2.54733C15.326 4.27704 16.5673 6.52716 17.1845 8.99476C17.4641 10.4876 18.5986 11.394 18.8747 12.8152C19.0987 13.7113 18.8122 14.5312 18.5804 15.35C17.9493 16.8394 17.5448 18.4769 16.6264 19.7397C16.3989 19.9663 16.1706 20.1155 15.9432 19.9618C14.9223 19.3548 14.5881 17.7834 13.9665 16.6652C13.0637 15.3112 12.4978 13.6681 12.6193 11.804C12.7365 10.9796 12.8537 10.0116 12.7434 9.18721C12.5195 8.14186 11.8988 7.09082 11.1019 6.56132C10.4812 6.11266 9.68429 5.95438 8.88653 5.87695C7.57919 6.01701 6.37777 6.83119 5.63208 8.3195C5.05915 9.50491 4.93762 10.9272 4.82043 12.42C4.69542 15.4035 5.4819 17.87 6.49496 20.2704C7.45419 22.2893 8.81708 23.9416 10.1756 25.5222C10.9699 26.1963 11.7043 27.0253 12.5012 27.6276C14.2574 29.2811 16.1897 30.4904 18.1177 31.5505C19.9364 32.605 21.9234 33.2176 23.8558 33.9783C25.0528 34.3598 26.5294 34.5135 27.7274 34.0796C29.895 33.1208 31.948 31.7191 34.1156 30.7603L36.7928 29.8835C39.1297 29.4496 41.635 29.1695 44.1359 29.4109L45.8443 29.6466C47.6629 29.9597 49.5432 30.1966 51.4209 30.4323C52.7829 30.7409 54.1458 30.8992 55.5121 31.2078C58.073 31.8204 60.692 31.5448 63.3666 31.7088C64.7876 31.9457 66.2095 31.7282 67.6349 31.743L73.7836 31.4822C76.972 31.2078 80.0468 30.4038 82.842 28.8563C83.8672 28.3405 84.8369 27.5263 85.8655 26.7895C87.2909 25.4493 88.7233 24.347 90.0974 22.7847C91.3501 21.3738 92.6687 20.0381 93.9248 18.7035C96.5516 15.736 98.9024 12.469 101.643 9.57779C103.13 8.0929 104.504 6.38254 106.16 5.352L108.611 3.65075C109.981 2.83656 111.461 2.1761 112.945 1.66482C115.164 1.22641 117.9 0.802807 119.716 2.75457C119.94 3.27952 120.453 3.13491 120.85 3.21234C121.758 3.36607 122.613 3.74754 123.462 4.12332C125.056 4.73481 126.588 5.71297 127.948 6.98948C128.972 7.07146 129.879 8.1988 130.218 9.39445C130.842 9.77479 131.408 10.3054 131.977 10.8258L132.766 11.804C133.678 12.2572 134.644 12.7867 135.434 13.6874L136.341 15.1097C136.452 15.8612 137.016 16.2416 137.358 16.7665C137.582 17.5864 138.148 18.1888 138.035 19.1567C137.913 20.1258 137.571 21.0937 136.881 21.7587L135.97 22.6503C135.334 24.216 134.647 25.7772 133.615 27.1175C133.219 27.7825 132.476 27.7768 131.907 27.8497C131.566 27.7005 131.169 27.7677 130.883 27.9943C130.254 28.9577 129.508 29.9985 128.483 29.9894L128.425 29.9165C128.318 29.0932 128.322 28.1241 128.608 27.3771C128.326 26.9296 127.925 27.5263 127.525 27.5217C127.297 27.3726 127.415 26.9194 127.073 26.9194C126.959 26.9194 126.787 27.0685 126.731 26.9194C126.677 26.3215 126.162 26.1678 125.883 25.8638H125.824L125.758 28.0273C125.755 29.3004 125.861 30.5724 125.916 31.8398C125.916 31.9115 125.916 31.9889 125.857 32.0607C125.347 31.8398 124.836 31.382 124.381 31.2317V31.3091C124.718 32.1336 125.343 32.5048 125.854 33.106C126.022 32.9614 126.14 32.5913 126.198 32.2918C126.371 31.6177 126.376 30.7978 126.606 30.1283C127 30.3549 127.342 30.8798 127.679 31.3285C127.907 32.0755 128.134 32.827 128.186 33.7232C128.183 34.2436 127.841 34.8369 128.179 35.3618C128.402 35.7376 128.631 36.1908 128.513 36.7112C128.285 37.7566 127.995 38.9465 127.135 39.3895C126.279 39.9828 125.145 39.6742 124.234 39.443C123.609 39.2164 122.929 38.7632 122.302 39.1344C122.07 39.2073 121.901 39.3565 121.842 39.5774C121.787 39.9486 121.956 40.2481 122.011 40.5464C122.908 43.539 123.467 46.6078 123.966 49.8168C124.072 50.9395 124.068 52.2069 124.006 53.4026C123.947 54.5254 123.657 55.4933 123.539 56.6115C122.273 60.7075 120.835 64.6588 118.598 68.075C118.367 68.5954 117.798 68.9666 117.968 69.5633C118.529 71.2839 118.922 73.0045 119.37 74.6477L120.208 78.2369C120.766 81.0029 121.21 83.7688 121.828 86.4631C122.669 89.754 123.62 92.972 125.376 95.7436C125.887 96.5715 126.68 96.8755 127.422 96.5772C128.733 96.2879 129.982 96.6728 130.945 97.8002C131.907 98.6291 132.417 99.7519 133.321 100.654C133.95 100.952 134.346 101.704 134.684 102.451C135.819 103.129 136.267 104.778 136.205 106.349C136.147 106.571 136.032 106.869 136.142 107.168L136.205 107.255H138.802V110.488Z" fill="white"/>
<mask id="mask0_1_2064" style="mask-type:luminance" maskUnits="userSpaceOnUse" x="113" y="117" width="21" height="22">
<path fill-rule="evenodd" clip-rule="evenodd" d="M113.383 117.183H133.903V139H113.383V117.183Z" fill="white"/>
</mask>
<g mask="url(#mask0_1_2064)">
<path fill-rule="evenodd" clip-rule="evenodd" d="M123.488 120.845C122.004 120.912 120.637 121.202 119.44 122.089C117.669 123.419 116.406 125.803 116.571 128.565C116.729 131.402 118.599 133.73 120.531 134.712C122.118 135.248 123.94 135.634 125.648 135.122C126.563 134.829 127.529 134.535 128.329 133.797C129.81 132.612 130.847 130.603 130.798 128.29C130.802 126.569 130.413 125.004 129.45 123.726C128.999 123.274 128.602 122.599 128.091 122.296C126.731 121.24 125.079 121.009 123.488 120.845V120.845ZM125.094 117.274C127.312 117.665 129.417 118.648 131.17 120.599C132.077 121.727 132.752 122.855 133.318 124.199C133.88 125.924 134.101 128.087 133.692 130.024C133.462 131.219 133.175 132.337 132.658 133.378C131.452 135.831 129.454 137.387 127.515 138.274C126.203 138.707 124.836 139.074 123.414 138.987C119.599 139.19 116.079 136.77 114.221 132.506C113.879 131.754 113.714 131.007 113.544 130.188L113.383 128.319C113.398 124.512 115.172 121.091 117.684 119.092C119.286 117.906 121.052 117.246 122.989 117.183L125.094 117.274Z" fill="white"/>
</g>
<path fill-rule="evenodd" clip-rule="evenodd" d="M11.5266 117.17V138.782H25.9594V135.216H14.6083V117.17H11.5266Z" fill="white"/>
<path fill-rule="evenodd" clip-rule="evenodd" d="M61.0412 117.2V138.777H78.9819V135.216H64.0057V129.907H75.9436V126.249H64.0057V120.982L78.9159 120.972V117.19L61.0412 117.2Z" fill="white"/>
</svg>
