<svg width="180" height="184" viewBox="0 0 180 184" fill="none" xmlns="http://www.w3.org/2000/svg">
<path d="M80.0684 94.6875C78.1055 94.6875 76.1865 94.541 74.3115 94.248C72.4658 93.9844 70.8398 93.6475 69.4336 93.2373V88.9307C70.7812 89.4287 72.3926 89.8535 74.2676 90.2051C76.1426 90.5566 78.1055 90.7324 80.1562 90.7324C82.998 90.7324 85.7227 90.1611 88.3301 89.0186C90.9668 87.876 93.4131 86.1035 95.6689 83.7012C97.9541 81.2695 100.005 78.1348 101.821 74.2969C103.638 70.459 105.19 65.8447 106.479 60.4541H106.216C105.19 62.0068 103.843 63.4717 102.173 64.8486C100.532 66.1963 98.6133 67.2949 96.416 68.1445C94.248 68.9941 91.8018 69.4189 89.0771 69.4189C85.8838 69.4189 83.1299 68.7598 80.8154 67.4414C78.5303 66.123 76.7871 64.2773 75.5859 61.9043C74.3848 59.5312 73.7842 56.7627 73.7842 53.5986C73.7842 50.7861 74.1357 48.1348 74.8389 45.6445C75.542 43.1543 76.5527 40.8691 77.8711 38.7891C79.1895 36.709 80.7568 34.9219 82.5732 33.4277C84.3896 31.9043 86.4111 30.7324 88.6377 29.9121C90.8643 29.0625 93.2373 28.6377 95.7568 28.6377C99.4482 28.6377 102.51 29.458 104.941 31.0986C107.402 32.7393 109.233 35.0391 110.435 37.998C111.636 40.9277 112.236 44.3555 112.236 48.2812C112.236 51.5039 111.885 54.9463 111.182 58.6084C110.508 62.2412 109.541 65.8594 108.281 69.4629C107.021 73.0371 105.513 76.377 103.755 79.4824C102.026 82.5586 100.093 85.1514 97.9541 87.2607C96.6357 88.5791 95.2588 89.707 93.8232 90.6445C92.3877 91.582 90.9082 92.3584 89.3848 92.9736C87.8906 93.5596 86.3525 93.9844 84.7705 94.248C83.2178 94.541 81.6504 94.6875 80.0684 94.6875ZM89.7363 65.5957C92.6367 65.5957 95.2734 65.0244 97.6465 63.8818C100.049 62.7393 102.056 61.2451 103.667 59.3994C105.308 57.5537 106.436 55.5762 107.051 53.4668C107.314 52.6172 107.505 51.7236 107.622 50.7861C107.739 49.8486 107.798 48.7793 107.798 47.5781C107.798 44.9121 107.402 42.4365 106.611 40.1514C105.82 37.8662 104.531 36.0352 102.744 34.6582C100.957 33.252 98.584 32.5488 95.625 32.5488C92.9004 32.5488 90.4541 33.1201 88.2861 34.2627C86.1475 35.4053 84.3311 36.958 82.8369 38.9209C81.3428 40.8838 80.2002 43.1104 79.4092 45.6006C78.6182 48.0908 78.2227 50.6982 78.2227 53.4229C78.2227 57.2314 79.248 60.2197 81.2988 62.3877C83.3496 64.5264 86.1621 65.5957 89.7363 65.5957Z" fill="#00609C"/>
<path d="M59.9735 124.137C59.1395 124.137 58.4582 123.964 57.9296 123.617C57.4009 123.271 57.0136 122.801 56.7675 122.209C56.5214 121.612 56.3983 120.938 56.3983 120.186C56.3983 119.648 56.4439 119.121 56.5351 118.606C56.6308 118.087 56.7698 117.59 56.952 117.116C57.1343 116.642 57.3622 116.207 57.6356 115.811C57.9136 115.414 58.2349 115.07 58.5995 114.778C58.9687 114.482 59.3788 114.254 59.83 114.095C60.2857 113.931 60.787 113.849 61.3339 113.849C62.4048 113.849 63.2525 114.179 63.8769 114.84C64.5058 115.501 64.8202 116.478 64.8202 117.772C64.8202 118.215 64.7815 118.677 64.704 119.16C64.6311 119.643 64.5149 120.124 64.3554 120.603C64.1959 121.076 63.9885 121.525 63.7333 121.949C63.4826 122.373 63.1773 122.749 62.8173 123.077C62.4618 123.405 62.0471 123.665 61.5731 123.856C61.1037 124.043 60.5705 124.137 59.9735 124.137ZM60.0009 123.508C60.484 123.508 60.9192 123.424 61.3065 123.255C61.6985 123.086 62.0448 122.854 62.3456 122.558C62.6509 122.261 62.913 121.924 63.1317 121.546C63.3505 121.168 63.5305 120.764 63.6718 120.336C63.8131 119.908 63.9179 119.475 63.9862 119.037C64.0546 118.595 64.0888 118.171 64.0888 117.766C64.0888 116.745 63.8518 115.943 63.3778 115.359C62.9084 114.776 62.2089 114.484 61.2792 114.484C60.7961 114.484 60.3563 114.564 59.9599 114.724C59.5679 114.879 59.217 115.095 58.9071 115.373C58.6018 115.651 58.3375 115.975 58.1142 116.344C57.8909 116.713 57.7063 117.109 57.5604 117.533C57.4146 117.957 57.3052 118.392 57.2323 118.839C57.164 119.285 57.1298 119.728 57.1298 120.165C57.1298 120.83 57.2323 121.414 57.4374 121.915C57.647 122.416 57.9638 122.808 58.3876 123.091C58.8114 123.369 59.3492 123.508 60.0009 123.508ZM70.0302 124.137C69.3967 124.137 68.8544 124.032 68.4032 123.822C67.9566 123.613 67.6125 123.305 67.371 122.899C67.134 122.494 67.0155 121.997 67.0155 121.409C67.0155 121.254 67.0269 121.083 67.0497 120.896C67.077 120.705 67.1112 120.505 67.1522 120.295L68.4921 114.006H69.1962L67.8632 120.302C67.8222 120.493 67.7903 120.687 67.7675 120.883C67.7447 121.074 67.7333 121.243 67.7333 121.389C67.7333 122.068 67.9384 122.592 68.3485 122.961C68.7632 123.326 69.3352 123.508 70.0644 123.508C70.6705 123.508 71.1968 123.394 71.6435 123.166C72.0901 122.938 72.4615 122.599 72.7577 122.147C73.0585 121.692 73.2818 121.122 73.4276 120.438L74.8085 114.006H75.5058L74.1317 120.521C73.9586 121.327 73.692 121.999 73.3319 122.537C72.9719 123.07 72.5162 123.471 71.9647 123.74C71.4133 124.005 70.7685 124.137 70.0302 124.137ZM78.2411 124L80.2304 114.642H77.2294L77.3661 114.006H84.079L83.9491 114.642H80.9413L78.9589 124H78.2411ZM92.1474 124.137C91.3134 124.137 90.6321 123.964 90.1034 123.617C89.5748 123.271 89.1874 122.801 88.9413 122.209C88.6952 121.612 88.5722 120.938 88.5722 120.186C88.5722 119.648 88.6177 119.121 88.7089 118.606C88.8046 118.087 88.9436 117.59 89.1259 117.116C89.3082 116.642 89.536 116.207 89.8095 115.811C90.0875 115.414 90.4088 115.07 90.7733 114.778C91.1425 114.482 91.5526 114.254 92.0038 114.095C92.4595 113.931 92.9608 113.849 93.5077 113.849C94.5787 113.849 95.4263 114.179 96.0507 114.84C96.6796 115.501 96.994 116.478 96.994 117.772C96.994 118.215 96.9553 118.677 96.8778 119.16C96.8049 119.643 96.6887 120.124 96.5292 120.603C96.3697 121.076 96.1623 121.525 95.9071 121.949C95.6565 122.373 95.3511 122.749 94.9911 123.077C94.6356 123.405 94.2209 123.665 93.747 123.856C93.2776 124.043 92.7444 124.137 92.1474 124.137ZM92.1747 123.508C92.6578 123.508 93.093 123.424 93.4804 123.255C93.8723 123.086 94.2187 122.854 94.5194 122.558C94.8248 122.261 95.0868 121.924 95.3056 121.546C95.5243 121.168 95.7043 120.764 95.8456 120.336C95.9869 119.908 96.0917 119.475 96.1601 119.037C96.2284 118.595 96.2626 118.171 96.2626 117.766C96.2626 116.745 96.0256 115.943 95.5517 115.359C95.0823 114.776 94.3827 114.484 93.453 114.484C92.97 114.484 92.5302 114.564 92.1337 114.724C91.7418 114.879 91.3909 115.095 91.081 115.373C90.7756 115.651 90.5113 115.975 90.288 116.344C90.0647 116.713 89.8801 117.109 89.7343 117.533C89.5884 117.957 89.4791 118.392 89.4062 118.839C89.3378 119.285 89.3036 119.728 89.3036 120.165C89.3036 120.83 89.4062 121.414 89.6112 121.915C89.8209 122.416 90.1376 122.808 90.5614 123.091C90.9853 123.369 91.523 123.508 92.1747 123.508ZM98.6562 124L100.775 114.006H105.813L105.69 114.642H101.35L100.44 118.9H104.535L104.392 119.536H100.304L99.3603 124H98.6562ZM112.474 124L114.012 116.754C114.071 116.476 114.128 116.216 114.183 115.975C114.242 115.729 114.296 115.505 114.347 115.305C114.397 115.1 114.44 114.926 114.476 114.785C114.349 114.904 114.217 115.013 114.08 115.113C113.948 115.209 113.786 115.318 113.595 115.441L111.947 116.528L111.612 116.002L114.682 114.006H115.304L113.178 124H112.474ZM120.924 124.137C120.172 124.137 119.579 123.87 119.146 123.337C118.713 122.804 118.497 122.024 118.497 120.999C118.497 120.507 118.529 119.99 118.593 119.447C118.661 118.905 118.766 118.367 118.907 117.834C119.048 117.296 119.228 116.79 119.447 116.316C119.67 115.838 119.933 115.414 120.233 115.045C120.539 114.671 120.89 114.38 121.286 114.17C121.683 113.956 122.127 113.849 122.619 113.849C123.034 113.849 123.392 113.917 123.692 114.054C123.998 114.19 124.251 114.389 124.451 114.648C124.652 114.908 124.8 115.223 124.895 115.592C124.996 115.956 125.046 116.371 125.046 116.836C125.046 117.406 125.009 117.982 124.936 118.565C124.864 119.144 124.752 119.707 124.601 120.254C124.451 120.796 124.262 121.302 124.034 121.771C123.811 122.241 123.546 122.653 123.241 123.009C122.936 123.364 122.589 123.642 122.202 123.843C121.819 124.039 121.393 124.137 120.924 124.137ZM120.985 123.528C121.354 123.528 121.692 123.435 121.997 123.248C122.307 123.057 122.585 122.795 122.831 122.462C123.082 122.129 123.3 121.746 123.487 121.313C123.674 120.876 123.831 120.409 123.959 119.912C124.086 119.411 124.18 118.9 124.239 118.381C124.303 117.857 124.335 117.344 124.335 116.843C124.335 116.091 124.194 115.507 123.911 115.093C123.628 114.674 123.186 114.464 122.585 114.464C122.197 114.464 121.844 114.562 121.525 114.758C121.211 114.949 120.926 115.214 120.671 115.551C120.42 115.888 120.201 116.275 120.015 116.713C119.832 117.146 119.68 117.606 119.557 118.094C119.438 118.581 119.349 119.074 119.29 119.57C119.231 120.062 119.201 120.536 119.201 120.992C119.201 121.831 119.356 122.464 119.666 122.893C119.976 123.316 120.416 123.528 120.985 123.528Z" fill="#00609C"/>
</svg>
